<ttFont>
<head>
    <!-- Most of this table will be recalculated by the compiler -->
    <tableVersion value="1.0"/>
    <fontRevision value="1.301"/>
    <checkSumAdjustment value="0x9ef5958e"/>
    <magicNumber value="0x5f0f3cf5"/>
    <flags value="00000000 00001011"/>
    <unitsPerEm value="1000"/>
    <created value="Tue Jul  1 21:12:00 2008"/>
    <modified value="Thu Mar  6 18:33:37 2014"/>
    <xMin value="-215"/>
    <yMin value="-358"/>
    <xMax value="1356"/>
    <yMax value="1186"/>
    <macStyle value="00000000 00000000"/>
    <lowestRecPPEM value="9"/>
    <fontDirectionHint value="2"/>
    <indexToLocFormat value="0"/>
    <glyphDataFormat value="0"/>
  </head>
    <TTGlyph name="A" xMin="-10" yMin="0" xMax="703" yMax="739">
      <contour>
        <pt x="526" y="0" on="1"/>
        <pt x="471" y="133" on="1"/>
        <pt x="218" y="133" on="1"/>
        <pt x="163" y="0" on="1"/>
        <pt x="-10" y="0" on="1"/>
        <pt x="335" y="739" on="1"/>
        <pt x="358" y="739" on="1"/>
        <pt x="703" y="0" on="1"/>
      </contour>
      <contour>
        <pt x="345" y="439" on="1"/>
        <pt x="272" y="263" on="1"/>
        <pt x="417" y="263" on="1"/>
      </contour>
    </TTGlyph>
    <TTGlyph name="AE" xMin="-11" yMin="0" xMax="944" yMax="733">
      <contour>
        <pt x="481" y="0" on="1"/>
        <pt x="481" y="124" on="1"/>
        <pt x="258" y="124" on="1"/>
        <pt x="181" y="0" on="1"/>
        <pt x="-11" y="0" on="1"/>
        <pt x="481" y="733" on="1"/>
        <pt x="944" y="733" on="1"/>
        <pt x="944" y="577" on="1"/>
        <pt x="651" y="577" on="1"/>
        <pt x="651" y="446" on="1"/>
        <pt x="918" y="446" on="1"/>
        <pt x="918" y="298" on="1"/>
        <pt x="651" y="298" on="1"/>
        <pt x="651" y="155" on="1"/>
        <pt x="944" y="155" on="1"/>
        <pt x="944" y="0" on="1"/>
      </contour>
      <contour>
        <pt x="481" y="485" on="1"/>
        <pt x="344" y="263" on="1"/>
        <pt x="481" y="263" on="1"/>
      </contour>
    </TTGlyph>
    <TTGlyph name="AEacute" xMin="-11" yMin="0" xMax="944" yMax="997">
      <component glyphName="AE" x="0" y="0" flags="0x204"/>
      <component glyphName="acute" x="484" y="305" flags="0x4"/>
    </TTGlyph>
    <TTGlyph name="Aacute" xMin="-10" yMin="0" xMax="703" yMax="997">
      <component glyphName="A" x="0" y="0" flags="0x204"/>
      <component glyphName="acute" x="154" y="305" flags="0x4"/>
    </TTGlyph>
    <TTGlyph name="Abreve" xMin="-10" yMin="0" xMax="703" yMax="966">
      <component glyphName="A" x="0" y="0" flags="0x204"/>
      <component glyphName="breve" x="96" y="305" flags="0x4"/>
    </TTGlyph>
    <TTGlyph name="Acircumflex" xMin="-10" yMin="0" xMax="703" yMax="996">
      <component glyphName="A" x="0" y="0" flags="0x204"/>
      <component glyphName="circumflex" x="93" y="305" flags="0x4"/>
    </TTGlyph>
    <TTGlyph name="Adieresis" xMin="-10" yMin="0" xMax="703" yMax="950">
      <component glyphName="A" x="0" y="0" flags="0x204"/>
      <component glyphName="dieresis" x="96" y="305" flags="0x4"/>
    </TTGlyph>
    <TTGlyph name="Agrave" xMin="-10" yMin="0" xMax="703" yMax="998">
      <component glyphName="A" x="0" y="0" flags="0x204"/>
      <component glyphName="grave" x="8" y="305" flags="0x4"/>
    </TTGlyph>
    <TTGlyph name="Amacron" xMin="-10" yMin="0" xMax="703" yMax="916">
      <component glyphName="A" x="0" y="0" flags="0x204"/>
      <component glyphName="macron" x="96" y="305" flags="0x4"/>
    </TTGlyph>
    <TTGlyph name="Aogonek" xMin="-10" yMin="-224" xMax="703" yMax="739">
      <contour>
        <pt x="702" y="-177" on="1"/>
        <pt x="682" y="-196" on="0"/>
        <pt x="625" y="-224" on="0"/>
        <pt x="585" y="-224" on="1"/>
        <pt x="539" y="-224" on="0"/>
        <pt x="487" y="-173" on="0"/>
        <pt x="487" y="-130" on="1"/>
        <pt x="487" y="-92" on="0"/>
        <pt x="525" y="-31" on="0"/>
        <pt x="554" y="0" on="1"/>
        <pt x="526" y="0" on="1"/>
        <pt x="471" y="133" on="1"/>
        <pt x="218" y="133" on="1"/>
        <pt x="163" y="0" on="1"/>
        <pt x="-10" y="0" on="1"/>
        <pt x="335" y="739" on="1"/>
        <pt x="358" y="739" on="1"/>
        <pt x="703" y="0" on="1"/>
        <pt x="641" y="0" on="1"/>
        <pt x="616" y="-29" on="0"/>
        <pt x="587" y="-79" on="0"/>
        <pt x="587" y="-103" on="1"/>
        <pt x="587" y="-136" on="0"/>
        <pt x="621" y="-136" on="1"/>
        <pt x="635" y="-136" on="0"/>
        <pt x="656" y="-124" on="0"/>
        <pt x="667" y="-116" on="1"/>
      </contour>
      <contour>
        <pt x="345" y="439" on="1"/>
        <pt x="272" y="263" on="1"/>
        <pt x="417" y="263" on="1"/>
      </contour>
    </TTGlyph>
    <TTGlyph name="Aring" xMin="-10" yMin="0" xMax="703" yMax="937">
      <contour>
        <pt x="475" y="812" on="1"/>
        <pt x="475" y="770" on="0"/>
        <pt x="423" y="702" on="0"/>
        <pt x="379" y="691" on="1"/>
        <pt x="703" y="0" on="1"/>
        <pt x="526" y="0" on="1"/>
        <pt x="471" y="133" on="1"/>
        <pt x="218" y="133" on="1"/>
        <pt x="163" y="0" on="1"/>
        <pt x="-10" y="0" on="1"/>
        <pt x="312" y="691" on="1"/>
        <pt x="268" y="702" on="0"/>
        <pt x="216" y="770" on="0"/>
        <pt x="216" y="812" on="1"/>
        <pt x="216" y="837" on="0"/>
        <pt x="235" y="882" on="0"/>
        <pt x="269" y="916" on="0"/>
        <pt x="316" y="937" on="0"/>
        <pt x="345" y="937" on="1"/>
        <pt x="374" y="937" on="0"/>
        <pt x="422" y="916" on="0"/>
        <pt x="456" y="882" on="0"/>
        <pt x="475" y="837" on="0"/>
      </contour>
      <contour>
        <pt x="345" y="439" on="1"/>
        <pt x="272" y="263" on="1"/>
        <pt x="417" y="263" on="1"/>
      </contour>
      <contour>
        <pt x="395" y="812" on="1"/>
        <pt x="395" y="836" on="0"/>
        <pt x="366" y="869" on="0"/>
        <pt x="345" y="869" on="1"/>
        <pt x="325" y="869" on="0"/>
        <pt x="297" y="838" on="0"/>
        <pt x="297" y="812" on="1"/>
        <pt x="297" y="786" on="0"/>
        <pt x="325" y="755" on="0"/>
        <pt x="345" y="755" on="1"/>
        <pt x="366" y="755" on="0"/>
        <pt x="395" y="786" on="0"/>
      </contour>
    </TTGlyph>
    <TTGlyph name="Aringacute" xMin="-10" yMin="0" xMax="703" yMax="1186">
      <component glyphName="acute" x="147" y="494" flags="0x4"/>
      <component glyphName="Aring" x="0" y="0" flags="0x4"/>
    </TTGlyph>
    <TTGlyph name="Atilde" xMin="-10" yMin="0" xMax="703" yMax="952">
      <component glyphName="A" x="0" y="0" flags="0x204"/>
      <component glyphName="tilde" x="96" y="305" flags="0x4"/>
    </TTGlyph>
    <TTGlyph name="B" xMin="80" yMin="-7" xMax="627" yMax="740">
      <contour>
        <pt x="627" y="208" on="1"/>
        <pt x="627" y="165" on="0"/>
        <pt x="586" y="87" on="0"/>
        <pt x="505" y="28" on="0"/>
        <pt x="381" y="-7" on="0"/>
        <pt x="299" y="-7" on="1"/>
        <pt x="251" y="-7" on="0"/>
        <pt x="134" y="1" on="0"/>
        <pt x="80" y="8" on="1"/>
        <pt x="80" y="724" on="1"/>
        <pt x="100" y="727" on="0"/>
        <pt x="152" y="733" on="0"/>
        <pt x="208" y="737" on="0"/>
        <pt x="262" y="740" on="0"/>
        <pt x="285" y="740" on="1"/>
        <pt x="365" y="740" on="0"/>
        <pt x="485" y="707" on="0"/>
        <pt x="566" y="652" on="0"/>
        <pt x="606" y="581" on="0"/>
        <pt x="606" y="543" on="1"/>
        <pt x="606" y="485" on="0"/>
        <pt x="543" y="406" on="0"/>
        <pt x="480" y="380" on="1"/>
        <pt x="555" y="357" on="0"/>
        <pt x="627" y="271" on="0"/>
      </contour>
      <contour>
        <pt x="431" y="512" on="1"/>
        <pt x="431" y="545" on="0"/>
        <pt x="376" y="592" on="0"/>
        <pt x="322" y="592" on="1"/>
        <pt x="299" y="592" on="0"/>
        <pt x="263" y="588" on="0"/>
        <pt x="245" y="585" on="1"/>
        <pt x="245" y="432" on="1"/>
        <pt x="259" y="430" on="0"/>
        <pt x="285" y="429" on="0"/>
        <pt x="308" y="429" on="1"/>
        <pt x="370" y="429" on="0"/>
        <pt x="431" y="472" on="0"/>
      </contour>
      <contour>
        <pt x="443" y="226" on="1"/>
        <pt x="443" y="268" on="0"/>
        <pt x="377" y="314" on="0"/>
        <pt x="309" y="314" on="1"/>
        <pt x="270" y="314" on="0"/>
        <pt x="245" y="311" on="1"/>
        <pt x="245" y="141" on="1"/>
        <pt x="263" y="139" on="0"/>
        <pt x="290" y="138" on="0"/>
        <pt x="316" y="138" on="1"/>
        <pt x="381" y="138" on="0"/>
        <pt x="443" y="184" on="0"/>
      </contour>
    </TTGlyph>
    <TTGlyph name="C" xMin="55" yMin="-12" xMax="692" yMax="745">
      <contour>
        <pt x="692" y="56" on="1"/>
        <pt x="644" y="24" on="0"/>
        <pt x="519" y="-12" on="0"/>
        <pt x="456" y="-12" on="1"/>
        <pt x="366" y="-12" on="0"/>
        <pt x="219" y="45" on="0"/>
        <pt x="113" y="146" on="0"/>
        <pt x="55" y="285" on="0"/>
        <pt x="55" y="366" on="1"/>
        <pt x="55" y="448" on="0"/>
        <pt x="113" y="587" on="0"/>
        <pt x="219" y="688" on="0"/>
        <pt x="366" y="745" on="0"/>
        <pt x="456" y="745" on="1"/>
        <pt x="520" y="745" on="0"/>
        <pt x="635" y="710" on="0"/>
        <pt x="685" y="681" on="1"/>
        <pt x="633" y="537" on="1"/>
        <pt x="592" y="560" on="0"/>
        <pt x="503" y="586" on="0"/>
        <pt x="458" y="586" on="1"/>
        <pt x="407" y="586" on="0"/>
        <pt x="324" y="555" on="0"/>
        <pt x="267" y="498" on="0"/>
        <pt x="236" y="417" on="0"/>
        <pt x="236" y="366" on="1"/>
        <pt x="236" y="315" on="0"/>
        <pt x="267" y="233" on="0"/>
        <pt x="324" y="176" on="0"/>
        <pt x="407" y="146" on="0"/>
        <pt x="458" y="146" on="1"/>
        <pt x="503" y="146" on="0"/>
        <pt x="599" y="174" on="0"/>
        <pt x="641" y="200" on="1"/>
      </contour>
    </TTGlyph>
    <TTGlyph name="Cacute" xMin="55" yMin="-12" xMax="692" yMax="997">
      <component glyphName="C" x="0" y="0" flags="0x204"/>
      <component glyphName="acute" x="235" y="305" flags="0x4"/>
    </TTGlyph>
    <TTGlyph name="Ccaron" xMin="55" yMin="-12" xMax="692" yMax="994">
      <component glyphName="C" x="0" y="0" flags="0x204"/>
      <component glyphName="caron" x="181" y="305" flags="0x4"/>
    </TTGlyph>
    <TTGlyph name="Ccedilla" xMin="55" yMin="-261" xMax="692" yMax="745">
      <contour>
        <pt x="576" y="-148" on="1"/>
        <pt x="576" y="-171" on="0"/>
        <pt x="560" y="-211" on="0"/>
        <pt x="527" y="-243" on="0"/>
        <pt x="478" y="-261" on="0"/>
        <pt x="446" y="-261" on="1"/>
        <pt x="414" y="-261" on="0"/>
        <pt x="349" y="-239" on="0"/>
        <pt x="315" y="-219" on="1"/>
        <pt x="347" y="-143" on="1"/>
        <pt x="376" y="-162" on="0"/>
        <pt x="427" y="-181" on="0"/>
        <pt x="452" y="-181" on="1"/>
        <pt x="486" y="-181" on="0"/>
        <pt x="486" y="-150" on="1"/>
        <pt x="486" y="-136" on="0"/>
        <pt x="445" y="-111" on="0"/>
        <pt x="387" y="-111" on="1"/>
        <pt x="382" y="-101" on="1"/>
        <pt x="406" y="-10" on="1"/>
        <pt x="327" y="-3" on="0"/>
        <pt x="197" y="60" on="0"/>
        <pt x="105" y="159" on="0"/>
        <pt x="55" y="290" on="0"/>
        <pt x="55" y="366" on="1"/>
        <pt x="55" y="448" on="0"/>
        <pt x="113" y="587" on="0"/>
        <pt x="219" y="688" on="0"/>
        <pt x="366" y="745" on="0"/>
        <pt x="456" y="745" on="1"/>
        <pt x="520" y="745" on="0"/>
        <pt x="635" y="710" on="0"/>
        <pt x="685" y="681" on="1"/>
        <pt x="633" y="537" on="1"/>
        <pt x="592" y="560" on="0"/>
        <pt x="503" y="586" on="0"/>
        <pt x="458" y="586" on="1"/>
        <pt x="407" y="586" on="0"/>
        <pt x="324" y="555" on="0"/>
        <pt x="267" y="498" on="0"/>
        <pt x="236" y="417" on="0"/>
        <pt x="236" y="366" on="1"/>
        <pt x="236" y="315" on="0"/>
        <pt x="267" y="233" on="0"/>
        <pt x="324" y="176" on="0"/>
        <pt x="407" y="146" on="0"/>
        <pt x="458" y="146" on="1"/>
        <pt x="503" y="146" on="0"/>
        <pt x="599" y="174" on="0"/>
        <pt x="641" y="200" on="1"/>
        <pt x="692" y="56" on="1"/>
        <pt x="645" y="25" on="0"/>
        <pt x="526" y="-10" on="0"/>
        <pt x="465" y="-12" on="1"/>
        <pt x="459" y="-41" on="1"/>
        <pt x="524" y="-56" on="0"/>
        <pt x="576" y="-111" on="0"/>
      </contour>
    </TTGlyph>
    <TTGlyph name="Cdotaccent" xMin="55" yMin="-12" xMax="692" yMax="950">
      <component glyphName="C" x="0" y="0" flags="0x204"/>
      <component glyphName="dotaccent" x="207" y="305" flags="0x4"/>
    </TTGlyph>
    <TTGlyph name="D" xMin="80" yMin="-6" xMax="743" yMax="738">
      <contour>
        <pt x="743" y="373" on="1"/>
        <pt x="743" y="292" on="0"/>
        <pt x="691" y="153" on="0"/>
        <pt x="584" y="52" on="0"/>
        <pt x="418" y="-6" on="0"/>
        <pt x="304" y="-6" on="1"/>
        <pt x="272" y="-6" on="0"/>
        <pt x="219" y="-5" on="0"/>
        <pt x="168" y="-2" on="0"/>
        <pt x="114" y="3" on="0"/>
        <pt x="80" y="6" on="1"/>
        <pt x="80" y="726" on="1"/>
        <pt x="144" y="733" on="0"/>
        <pt x="242" y="738" on="0"/>
        <pt x="297" y="738" on="1"/>
        <pt x="411" y="738" on="0"/>
        <pt x="579" y="682" on="0"/>
        <pt x="689" y="584" on="0"/>
        <pt x="743" y="451" on="0"/>
      </contour>
      <contour>
        <pt x="562" y="373" on="1"/>
        <pt x="562" y="473" on="0"/>
        <pt x="439" y="586" on="0"/>
        <pt x="320" y="586" on="1"/>
        <pt x="298" y="586" on="0"/>
        <pt x="270" y="584" on="0"/>
        <pt x="250" y="582" on="1"/>
        <pt x="250" y="150" on="1"/>
        <pt x="262" y="149" on="0"/>
        <pt x="279" y="147" on="0"/>
        <pt x="297" y="146" on="0"/>
        <pt x="317" y="146" on="0"/>
        <pt x="331" y="146" on="1"/>
        <pt x="391" y="146" on="0"/>
        <pt x="478" y="178" on="0"/>
        <pt x="535" y="238" on="0"/>
        <pt x="562" y="322" on="0"/>
      </contour>
    </TTGlyph>
    <TTGlyph name="Dcaron" xMin="80" yMin="-6" xMax="743" yMax="994">
      <component glyphName="D" x="0" y="0" flags="0x204"/>
      <component glyphName="caron" x="125" y="305" flags="0x4"/>
    </TTGlyph>
    <TTGlyph name="Dcroat" xMin="27" yMin="-6" xMax="763" yMax="738">
      <component glyphName="Eth" x="0" y="0" flags="0x204"/>
    </TTGlyph>
    <TTGlyph name="E" xMin="80" yMin="0" xMax="544" yMax="733">
      <contour>
        <pt x="80" y="0" on="1"/>
        <pt x="80" y="733" on="1"/>
        <pt x="544" y="733" on="1"/>
        <pt x="544" y="577" on="1"/>
        <pt x="250" y="577" on="1"/>
        <pt x="250" y="446" on="1"/>
        <pt x="518" y="446" on="1"/>
        <pt x="518" y="298" on="1"/>
        <pt x="250" y="298" on="1"/>
        <pt x="250" y="155" on="1"/>
        <pt x="544" y="155" on="1"/>
        <pt x="544" y="0" on="1"/>
      </contour>
    </TTGlyph>
    <TTGlyph name="Eacute" xMin="80" yMin="0" xMax="544" yMax="997">
      <component glyphName="E" x="0" y="0" flags="0x204"/>
      <component glyphName="acute" x="120" y="305" flags="0x4"/>
    </TTGlyph>
    <TTGlyph name="Ebreve" xMin="80" yMin="0" xMax="544" yMax="966">
      <component glyphName="E" x="0" y="0" flags="0x204"/>
      <component glyphName="breve" x="62" y="305" flags="0x4"/>
    </TTGlyph>
    <TTGlyph name="Ecaron" xMin="80" yMin="0" xMax="544" yMax="994">
      <component glyphName="E" x="0" y="0" flags="0x204"/>
      <component glyphName="caron" x="66" y="305" flags="0x4"/>
    </TTGlyph>
    <TTGlyph name="Ecircumflex" xMin="80" yMin="0" xMax="544" yMax="996">
      <component glyphName="E" x="0" y="0" flags="0x204"/>
      <component glyphName="circumflex" x="59" y="305" flags="0x4"/>
    </TTGlyph>
    <TTGlyph name="Edieresis" xMin="80" yMin="0" xMax="544" yMax="950">
      <component glyphName="E" x="0" y="0" flags="0x204"/>
      <component glyphName="dieresis" x="62" y="305" flags="0x4"/>
    </TTGlyph>
    <TTGlyph name="Edotaccent" xMin="80" yMin="0" xMax="544" yMax="950">
      <component glyphName="E" x="0" y="0" flags="0x204"/>
      <component glyphName="dotaccent" x="92" y="305" flags="0x4"/>
    </TTGlyph>
    <TTGlyph name="Egrave" xMin="80" yMin="0" xMax="544" yMax="998">
      <component glyphName="E" x="0" y="0" flags="0x204"/>
      <component glyphName="grave" x="-25" y="305" flags="0x4"/>
    </TTGlyph>
    <TTGlyph name="Emacron" xMin="80" yMin="0" xMax="544" yMax="916">
      <component glyphName="E" x="0" y="0" flags="0x204"/>
      <component glyphName="macron" x="62" y="305" flags="0x4"/>
    </TTGlyph>
    <TTGlyph name="Eogonek" xMin="80" yMin="-224" xMax="553" yMax="733">
      <contour>
        <pt x="553" y="-177" on="1"/>
        <pt x="533" y="-196" on="0"/>
        <pt x="476" y="-224" on="0"/>
        <pt x="436" y="-224" on="1"/>
        <pt x="390" y="-224" on="0"/>
        <pt x="338" y="-173" on="0"/>
        <pt x="338" y="-130" on="1"/>
        <pt x="338" y="-92" on="0"/>
        <pt x="376" y="-31" on="0"/>
        <pt x="405" y="0" on="1"/>
        <pt x="80" y="0" on="1"/>
        <pt x="80" y="733" on="1"/>
        <pt x="544" y="733" on="1"/>
        <pt x="544" y="577" on="1"/>
        <pt x="250" y="577" on="1"/>
        <pt x="250" y="446" on="1"/>
        <pt x="518" y="446" on="1"/>
        <pt x="518" y="298" on="1"/>
        <pt x="250" y="298" on="1"/>
        <pt x="250" y="155" on="1"/>
        <pt x="544" y="155" on="1"/>
        <pt x="544" y="0" on="1"/>
        <pt x="492" y="0" on="1"/>
        <pt x="467" y="-29" on="0"/>
        <pt x="438" y="-79" on="0"/>
        <pt x="438" y="-103" on="1"/>
        <pt x="438" y="-136" on="0"/>
        <pt x="472" y="-136" on="1"/>
        <pt x="486" y="-136" on="0"/>
        <pt x="507" y="-124" on="0"/>
        <pt x="518" y="-116" on="1"/>
      </contour>
    </TTGlyph>
    <TTGlyph name="Eth" xMin="27" yMin="-6" xMax="763" yMax="738">
      <contour>
        <pt x="763" y="373" on="1"/>
        <pt x="763" y="292" on="0"/>
        <pt x="711" y="153" on="0"/>
        <pt x="604" y="52" on="0"/>
        <pt x="438" y="-6" on="0"/>
        <pt x="324" y="-6" on="1"/>
        <pt x="292" y="-6" on="0"/>
        <pt x="239" y="-5" on="0"/>
        <pt x="188" y="-2" on="0"/>
        <pt x="134" y="3" on="0"/>
        <pt x="100" y="6" on="1"/>
        <pt x="100" y="306" on="1"/>
        <pt x="27" y="306" on="1"/>
        <pt x="27" y="441" on="1"/>
        <pt x="100" y="441" on="1"/>
        <pt x="100" y="726" on="1"/>
        <pt x="164" y="733" on="0"/>
        <pt x="262" y="738" on="0"/>
        <pt x="317" y="738" on="1"/>
        <pt x="431" y="738" on="0"/>
        <pt x="599" y="682" on="0"/>
        <pt x="709" y="584" on="0"/>
        <pt x="763" y="451" on="0"/>
      </contour>
      <contour>
        <pt x="582" y="373" on="1"/>
        <pt x="582" y="473" on="0"/>
        <pt x="459" y="586" on="0"/>
        <pt x="340" y="586" on="1"/>
        <pt x="318" y="586" on="0"/>
        <pt x="290" y="584" on="0"/>
        <pt x="270" y="582" on="1"/>
        <pt x="270" y="441" on="1"/>
        <pt x="384" y="441" on="1"/>
        <pt x="384" y="306" on="1"/>
        <pt x="270" y="306" on="1"/>
        <pt x="270" y="150" on="1"/>
        <pt x="282" y="149" on="0"/>
        <pt x="299" y="147" on="0"/>
        <pt x="317" y="146" on="0"/>
        <pt x="337" y="146" on="0"/>
        <pt x="351" y="146" on="1"/>
        <pt x="411" y="146" on="0"/>
        <pt x="498" y="178" on="0"/>
        <pt x="555" y="238" on="0"/>
        <pt x="582" y="322" on="0"/>
      </contour>
    </TTGlyph>
    <TTGlyph name="Euro" xMin="28" yMin="-12" xMax="598" yMax="601">
      <contour>
        <pt x="28" y="320" on="1"/>
        <pt x="28" y="403" on="1"/>
        <pt x="108" y="403" on="1"/>
        <pt x="124" y="446" on="0"/>
        <pt x="180" y="519" on="0"/>
        <pt x="257" y="572" on="0"/>
        <pt x="353" y="601" on="0"/>
        <pt x="409" y="601" on="1"/>
        <pt x="460" y="601" on="0"/>
        <pt x="556" y="571" on="0"/>
        <pt x="595" y="547" on="1"/>
        <pt x="547" y="435" on="1"/>
        <pt x="515" y="452" on="0"/>
        <pt x="447" y="472" on="0"/>
        <pt x="411" y="472" on="1"/>
        <pt x="355" y="472" on="0"/>
        <pt x="282" y="436" on="0"/>
        <pt x="262" y="403" on="1"/>
        <pt x="489" y="403" on="1"/>
        <pt x="489" y="320" on="1"/>
        <pt x="236" y="320" on="1"/>
        <pt x="235" y="315" on="0"/>
        <pt x="235" y="302" on="0"/>
        <pt x="235" y="294" on="1"/>
        <pt x="235" y="286" on="0"/>
        <pt x="235" y="275" on="0"/>
        <pt x="236" y="269" on="1"/>
        <pt x="489" y="269" on="1"/>
        <pt x="489" y="186" on="1"/>
        <pt x="263" y="186" on="1"/>
        <pt x="283" y="154" on="0"/>
        <pt x="358" y="117" on="0"/>
        <pt x="414" y="117" on="1"/>
        <pt x="449" y="117" on="0"/>
        <pt x="522" y="137" on="0"/>
        <pt x="553" y="156" on="1"/>
        <pt x="598" y="44" on="1"/>
        <pt x="560" y="19" on="0"/>
        <pt x="460" y="-12" on="0"/>
        <pt x="409" y="-12" on="1"/>
        <pt x="353" y="-12" on="0"/>
        <pt x="256" y="17" on="0"/>
        <pt x="179" y="69" on="0"/>
        <pt x="123" y="142" on="0"/>
        <pt x="108" y="186" on="1"/>
        <pt x="28" y="186" on="1"/>
        <pt x="28" y="269" on="1"/>
        <pt x="91" y="269" on="1"/>
        <pt x="90" y="275" on="0"/>
        <pt x="90" y="285" on="0"/>
        <pt x="90" y="293" on="1"/>
        <pt x="90" y="301" on="0"/>
        <pt x="90" y="314" on="0"/>
        <pt x="91" y="320" on="1"/>
      </contour>
    </TTGlyph>
    <TTGlyph name="Euro.lin" xMin="33" yMin="-12" xMax="737" yMax="745">
      <contour>
        <pt x="33" y="402" on="1"/>
        <pt x="33" y="491" on="1"/>
        <pt x="132" y="491" on="1"/>
        <pt x="150" y="548" on="0"/>
        <pt x="218" y="641" on="0"/>
        <pt x="313" y="708" on="0"/>
        <pt x="434" y="745" on="0"/>
        <pt x="504" y="745" on="1"/>
        <pt x="571" y="745" on="0"/>
        <pt x="687" y="708" on="0"/>
        <pt x="732" y="680" on="1"/>
        <pt x="667" y="554" on="1"/>
        <pt x="627" y="577" on="0"/>
        <pt x="551" y="601" on="0"/>
        <pt x="504" y="601" on="1"/>
        <pt x="426" y="601" on="0"/>
        <pt x="326" y="541" on="0"/>
        <pt x="300" y="491" on="1"/>
        <pt x="604" y="491" on="1"/>
        <pt x="604" y="402" on="1"/>
        <pt x="274" y="402" on="1"/>
        <pt x="270" y="386" on="0"/>
        <pt x="270" y="367" on="1"/>
        <pt x="270" y="356" on="0"/>
        <pt x="270" y="335" on="0"/>
        <pt x="272" y="325" on="1"/>
        <pt x="604" y="325" on="1"/>
        <pt x="604" y="235" on="1"/>
        <pt x="302" y="235" on="1"/>
        <pt x="326" y="190" on="0"/>
        <pt x="429" y="132" on="0"/>
        <pt x="511" y="132" on="1"/>
        <pt x="554" y="132" on="0"/>
        <pt x="635" y="159" on="0"/>
        <pt x="675" y="182" on="1"/>
        <pt x="737" y="57" on="1"/>
        <pt x="692" y="26" on="0"/>
        <pt x="569" y="-12" on="0"/>
        <pt x="497" y="-12" on="1"/>
        <pt x="430" y="-12" on="0"/>
        <pt x="314" y="24" on="0"/>
        <pt x="220" y="89" on="0"/>
        <pt x="152" y="180" on="0"/>
        <pt x="133" y="235" on="1"/>
        <pt x="33" y="235" on="1"/>
        <pt x="33" y="325" on="1"/>
        <pt x="114" y="325" on="1"/>
        <pt x="112" y="335" on="0"/>
        <pt x="113" y="355" on="0"/>
        <pt x="113" y="364" on="1"/>
        <pt x="113" y="375" on="0"/>
        <pt x="112" y="393" on="0"/>
        <pt x="114" y="402" on="1"/>
      </contour>
    </TTGlyph>
    <TTGlyph name="F" xMin="80" yMin="0" xMax="544" yMax="733">
      <contour>
        <pt x="250" y="577" on="1"/>
        <pt x="250" y="415" on="1"/>
        <pt x="502" y="415" on="1"/>
        <pt x="502" y="266" on="1"/>
        <pt x="250" y="266" on="1"/>
        <pt x="250" y="0" on="1"/>
        <pt x="80" y="0" on="1"/>
        <pt x="80" y="733" on="1"/>
        <pt x="544" y="733" on="1"/>
        <pt x="544" y="577" on="1"/>
      </contour>
    </TTGlyph>
    <TTGlyph name="G" xMin="55" yMin="-12" xMax="718" yMax="745">
      <contour>
        <pt x="718" y="412" on="1"/>
        <pt x="718" y="62" on="1"/>
        <pt x="657" y="27" on="0"/>
        <pt x="524" y="-12" on="0"/>
        <pt x="440" y="-12" on="1"/>
        <pt x="359" y="-12" on="0"/>
        <pt x="219" y="43" on="0"/>
        <pt x="115" y="143" on="0"/>
        <pt x="55" y="282" on="0"/>
        <pt x="55" y="366" on="1"/>
        <pt x="55" y="450" on="0"/>
        <pt x="116" y="590" on="0"/>
        <pt x="222" y="690" on="0"/>
        <pt x="366" y="745" on="0"/>
        <pt x="449" y="745" on="1"/>
        <pt x="521" y="745" on="0"/>
        <pt x="640" y="711" on="0"/>
        <pt x="695" y="682" on="1"/>
        <pt x="624" y="545" on="1"/>
        <pt x="545" y="586" on="0"/>
        <pt x="460" y="586" on="1"/>
        <pt x="405" y="586" on="0"/>
        <pt x="322" y="554" on="0"/>
        <pt x="265" y="495" on="0"/>
        <pt x="236" y="414" on="0"/>
        <pt x="236" y="366" on="1"/>
        <pt x="236" y="313" on="0"/>
        <pt x="269" y="229" on="0"/>
        <pt x="327" y="171" on="0"/>
        <pt x="405" y="139" on="0"/>
        <pt x="450" y="139" on="1"/>
        <pt x="491" y="139" on="0"/>
        <pt x="538" y="148" on="0"/>
        <pt x="558" y="159" on="1"/>
        <pt x="558" y="267" on="1"/>
        <pt x="411" y="267" on="1"/>
        <pt x="411" y="412" on="1"/>
      </contour>
    </TTGlyph>
    <TTGlyph name="G.alt" xMin="55" yMin="-12" xMax="809" yMax="745">
      <contour>
        <pt x="800" y="412" on="1"/>
        <pt x="809" y="307" on="0"/>
        <pt x="757" y="149" on="0"/>
        <pt x="656" y="42" on="0"/>
        <pt x="518" y="-12" on="0"/>
        <pt x="440" y="-12" on="1"/>
        <pt x="359" y="-12" on="0"/>
        <pt x="219" y="43" on="0"/>
        <pt x="115" y="143" on="0"/>
        <pt x="55" y="282" on="0"/>
        <pt x="55" y="366" on="1"/>
        <pt x="55" y="450" on="0"/>
        <pt x="116" y="590" on="0"/>
        <pt x="222" y="690" on="0"/>
        <pt x="366" y="745" on="0"/>
        <pt x="449" y="745" on="1"/>
        <pt x="521" y="745" on="0"/>
        <pt x="640" y="711" on="0"/>
        <pt x="695" y="682" on="1"/>
        <pt x="625" y="545" on="1"/>
        <pt x="545" y="586" on="0"/>
        <pt x="460" y="586" on="1"/>
        <pt x="405" y="586" on="0"/>
        <pt x="322" y="554" on="0"/>
        <pt x="265" y="495" on="0"/>
        <pt x="236" y="414" on="0"/>
        <pt x="236" y="366" on="1"/>
        <pt x="236" y="313" on="0"/>
        <pt x="270" y="229" on="0"/>
        <pt x="326" y="171" on="0"/>
        <pt x="400" y="139" on="0"/>
        <pt x="441" y="139" on="1"/>
        <pt x="483" y="139" on="0"/>
        <pt x="544" y="158" on="0"/>
        <pt x="588" y="193" on="0"/>
        <pt x="617" y="240" on="0"/>
        <pt x="625" y="267" on="1"/>
        <pt x="411" y="267" on="1"/>
        <pt x="411" y="412" on="1"/>
      </contour>
    </TTGlyph>
    <TTGlyph name="Gbreve" xMin="55" yMin="-12" xMax="718" yMax="966">
      <component glyphName="G" x="0" y="0" flags="0x204"/>
      <component glyphName="breve" x="186" y="305" flags="0x4"/>
    </TTGlyph>
    <TTGlyph name="Gbreve.alt" xMin="55" yMin="-12" xMax="809" yMax="966">
      <component glyphName="G.alt" x="0" y="0" flags="0x204"/>
      <component glyphName="breve" x="196" y="305" flags="0x4"/>
    </TTGlyph>
    <TTGlyph name="Gcommaaccent" xMin="55" yMin="-358" xMax="718" yMax="745">
      <component glyphName="G" x="0" y="0" flags="0x204"/>
      <component glyphName="commaaccent" x="334" y="0" flags="0x4"/>
    </TTGlyph>
    <TTGlyph name="Gcommaaccent.alt" xMin="55" yMin="-358" xMax="809" yMax="745">
      <component glyphName="G.alt" x="0" y="0" flags="0x204"/>
      <component glyphName="commaaccent" x="344" y="0" flags="0x4"/>
    </TTGlyph>
    <TTGlyph name="Gdotaccent" xMin="55" yMin="-12" xMax="718" yMax="950">
      <component glyphName="G" x="0" y="0" flags="0x204"/>
      <component glyphName="dotaccent" x="216" y="305" flags="0x4"/>
    </TTGlyph>
    <TTGlyph name="Gdotaccent.alt" xMin="55" yMin="-12" xMax="809" yMax="950">
      <component glyphName="G.alt" x="0" y="0" flags="0x204"/>
      <component glyphName="dotaccent" x="226" y="305" flags="0x4"/>
    </TTGlyph>
    <TTGlyph name="H" xMin="80" yMin="0" xMax="702" yMax="733">
      <contour>
        <pt x="80" y="733" on="1"/>
        <pt x="250" y="733" on="1"/>
        <pt x="250" y="446" on="1"/>
        <pt x="532" y="446" on="1"/>
        <pt x="532" y="733" on="1"/>
        <pt x="702" y="733" on="1"/>
        <pt x="702" y="0" on="1"/>
        <pt x="532" y="0" on="1"/>
        <pt x="532" y="294" on="1"/>
        <pt x="250" y="294" on="1"/>
        <pt x="250" y="0" on="1"/>
        <pt x="80" y="0" on="1"/>
      </contour>
    </TTGlyph>
    <TTGlyph name="Hbar" xMin="25" yMin="0" xMax="777" yMax="733">
      <contour>
        <pt x="542" y="0" on="1"/>
        <pt x="542" y="274" on="1"/>
        <pt x="260" y="274" on="1"/>
        <pt x="260" y="0" on="1"/>
        <pt x="90" y="0" on="1"/>
        <pt x="90" y="525" on="1"/>
        <pt x="25" y="525" on="1"/>
        <pt x="25" y="629" on="1"/>
        <pt x="90" y="629" on="1"/>
        <pt x="90" y="733" on="1"/>
        <pt x="260" y="733" on="1"/>
        <pt x="260" y="629" on="1"/>
        <pt x="542" y="629" on="1"/>
        <pt x="542" y="733" on="1"/>
        <pt x="712" y="733" on="1"/>
        <pt x="712" y="629" on="1"/>
        <pt x="777" y="629" on="1"/>
        <pt x="777" y="525" on="1"/>
        <pt x="712" y="525" on="1"/>
        <pt x="712" y="0" on="1"/>
      </contour>
      <contour>
        <pt x="542" y="426" on="1"/>
        <pt x="542" y="525" on="1"/>
        <pt x="260" y="525" on="1"/>
        <pt x="260" y="426" on="1"/>
      </contour>
    </TTGlyph>
    <TTGlyph name="I" xMin="85" yMin="0" xMax="255" yMax="733">
      <contour>
        <pt x="85" y="0" on="1"/>
        <pt x="85" y="733" on="1"/>
        <pt x="255" y="733" on="1"/>
        <pt x="255" y="0" on="1"/>
      </contour>
    </TTGlyph>
    <TTGlyph name="Iacute" xMin="85" yMin="0" xMax="355" yMax="1012">
      <component glyphName="I" x="0" y="0" flags="0x204"/>
      <component glyphName="acute" x="-21" y="320" flags="0x4"/>
    </TTGlyph>
    <TTGlyph name="Ibreve" xMin="7" yMin="0" xMax="335" yMax="966">
      <component glyphName="I" x="0" y="0" flags="0x204"/>
      <component glyphName="breve" x="-79" y="305" flags="0x4"/>
    </TTGlyph>
    <TTGlyph name="Icircumflex" xMin="-20" yMin="0" xMax="362" yMax="996">
      <component glyphName="I" x="0" y="0" flags="0x204"/>
      <component glyphName="circumflex" x="-82" y="305" flags="0x4"/>
    </TTGlyph>
    <TTGlyph name="Idieresis" xMin="0" yMin="0" xMax="342" yMax="950">
      <component glyphName="I" x="0" y="0" flags="0x204"/>
      <component glyphName="dieresis" x="-79" y="305" flags="0x4"/>
    </TTGlyph>
    <TTGlyph name="Idotaccent" xMin="85" yMin="0" xMax="255" yMax="950">
      <component glyphName="I" x="0" y="0" flags="0x204"/>
      <component glyphName="dotaccent" x="-49" y="305" flags="0x4"/>
    </TTGlyph>
    <TTGlyph name="Igrave" xMin="-30" yMin="0" xMax="255" yMax="998">
      <component glyphName="I" x="0" y="0" flags="0x204"/>
      <component glyphName="grave" x="-167" y="305" flags="0x4"/>
    </TTGlyph>
    <TTGlyph name="Imacron" xMin="27" yMin="0" xMax="315" yMax="916">
      <component glyphName="I" x="0" y="0" flags="0x204"/>
      <component glyphName="macron" x="-79" y="305" flags="0x4"/>
    </TTGlyph>
    <TTGlyph name="Iogonek" xMin="61" yMin="-224" xMax="276" yMax="733">
      <contour>
        <pt x="276" y="-177" on="1"/>
        <pt x="256" y="-196" on="0"/>
        <pt x="199" y="-224" on="0"/>
        <pt x="159" y="-224" on="1"/>
        <pt x="113" y="-224" on="0"/>
        <pt x="61" y="-173" on="0"/>
        <pt x="61" y="-130" on="1"/>
        <pt x="61" y="-92" on="0"/>
        <pt x="99" y="-31" on="0"/>
        <pt x="128" y="0" on="1"/>
        <pt x="85" y="0" on="1"/>
        <pt x="85" y="733" on="1"/>
        <pt x="255" y="733" on="1"/>
        <pt x="255" y="0" on="1"/>
        <pt x="215" y="0" on="1"/>
        <pt x="190" y="-29" on="0"/>
        <pt x="161" y="-79" on="0"/>
        <pt x="161" y="-103" on="1"/>
        <pt x="161" y="-136" on="0"/>
        <pt x="195" y="-136" on="1"/>
        <pt x="209" y="-136" on="0"/>
        <pt x="230" y="-124" on="0"/>
        <pt x="241" y="-116" on="1"/>
      </contour>
    </TTGlyph>
    <TTGlyph name="J" xMin="13" yMin="-12" xMax="476" yMax="733">
      <contour>
        <pt x="476" y="253" on="1"/>
        <pt x="476" y="193" on="0"/>
        <pt x="448" y="95" on="0"/>
        <pt x="386" y="26" on="0"/>
        <pt x="286" y="-12" on="0"/>
        <pt x="213" y="-12" on="1"/>
        <pt x="154" y="-12" on="0"/>
        <pt x="61" y="13" on="0"/>
        <pt x="13" y="40" on="1"/>
        <pt x="66" y="182" on="1"/>
        <pt x="96" y="163" on="0"/>
        <pt x="172" y="143" on="0"/>
        <pt x="208" y="143" on="1"/>
        <pt x="260" y="143" on="0"/>
        <pt x="306" y="206" on="0"/>
        <pt x="306" y="268" on="1"/>
        <pt x="306" y="733" on="1"/>
        <pt x="476" y="733" on="1"/>
      </contour>
    </TTGlyph>
    <TTGlyph name="K" xMin="80" yMin="0" xMax="724" yMax="733">
      <contour>
        <pt x="519" y="0" on="1"/>
        <pt x="250" y="343" on="1"/>
        <pt x="250" y="0" on="1"/>
        <pt x="80" y="0" on="1"/>
        <pt x="80" y="733" on="1"/>
        <pt x="250" y="733" on="1"/>
        <pt x="250" y="414" on="1"/>
        <pt x="507" y="733" on="1"/>
        <pt x="708" y="733" on="1"/>
        <pt x="407" y="384" on="1"/>
        <pt x="724" y="0" on="1"/>
      </contour>
    </TTGlyph>
    <TTGlyph name="Kcommaaccent" xMin="80" yMin="-348" xMax="724" yMax="733">
      <component glyphName="K" x="0" y="0" flags="0x204"/>
      <component glyphName="commaaccent" x="273" y="10" flags="0x4"/>
    </TTGlyph>
    <TTGlyph name="L" xMin="80" yMin="0" xMax="544" yMax="733">
      <contour>
        <pt x="80" y="0" on="1"/>
        <pt x="80" y="733" on="1"/>
        <pt x="250" y="733" on="1"/>
        <pt x="250" y="155" on="1"/>
        <pt x="544" y="155" on="1"/>
        <pt x="544" y="0" on="1"/>
      </contour>
    </TTGlyph>
    <TTGlyph name="Lacute" xMin="80" yMin="0" xMax="544" yMax="1012">
      <component glyphName="L" x="0" y="0" flags="0x204"/>
      <component glyphName="acute" x="22" y="320" flags="0x4"/>
    </TTGlyph>
    <TTGlyph name="Lcaron" xMin="80" yMin="0" xMax="544" yMax="734">
      <component glyphName="L" x="0" y="0" flags="0x204"/>
      <component glyphName="caron.alt" x="270" y="-6" flags="0x4"/>
    </TTGlyph>
    <TTGlyph name="Lcommaaccent" xMin="80" yMin="-358" xMax="544" yMax="733">
      <component glyphName="L" x="0" y="0" flags="0x204"/>
      <component glyphName="commaaccent" x="210" y="0" flags="0x4"/>
    </TTGlyph>
    <TTGlyph name="Ldot" xMin="80" yMin="0" xMax="544" yMax="733">
      <contour>
        <pt x="80" y="0" on="1"/>
        <pt x="80" y="733" on="1"/>
        <pt x="250" y="733" on="1"/>
        <pt x="250" y="155" on="1"/>
        <pt x="544" y="155" on="1"/>
        <pt x="544" y="0" on="1"/>
      </contour>
      <contour>
        <pt x="371" y="396" on="1"/>
        <pt x="371" y="428" on="0"/>
        <pt x="415" y="472" on="0"/>
        <pt x="446" y="472" on="1"/>
        <pt x="478" y="472" on="0"/>
        <pt x="521" y="428" on="0"/>
        <pt x="521" y="396" on="1"/>
        <pt x="521" y="365" on="0"/>
        <pt x="478" y="321" on="0"/>
        <pt x="446" y="321" on="1"/>
        <pt x="415" y="321" on="0"/>
        <pt x="371" y="365" on="0"/>
      </contour>
    </TTGlyph>
    <TTGlyph name="Lslash" xMin="22" yMin="0" xMax="544" yMax="733">
      <contour>
        <pt x="80" y="0" on="1"/>
        <pt x="80" y="243" on="1"/>
        <pt x="22" y="217" on="1"/>
        <pt x="22" y="352" on="1"/>
        <pt x="80" y="379" on="1"/>
        <pt x="80" y="733" on="1"/>
        <pt x="250" y="733" on="1"/>
        <pt x="250" y="456" on="1"/>
        <pt x="368" y="510" on="1"/>
        <pt x="368" y="375" on="1"/>
        <pt x="250" y="321" on="1"/>
        <pt x="250" y="155" on="1"/>
        <pt x="544" y="155" on="1"/>
        <pt x="544" y="0" on="1"/>
      </contour>
    </TTGlyph>
    <TTGlyph name="M" xMin="70" yMin="0" xMax="841" yMax="740">
      <contour>
        <pt x="676" y="0" on="1"/>
        <pt x="667" y="360" on="1"/>
        <pt x="464" y="103" on="1"/>
        <pt x="446" y="103" on="1"/>
        <pt x="241" y="360" on="1"/>
        <pt x="234" y="0" on="1"/>
        <pt x="70" y="0" on="1"/>
        <pt x="104" y="738" on="1"/>
        <pt x="127" y="740" on="1"/>
        <pt x="459" y="321" on="1"/>
        <pt x="783" y="740" on="1"/>
        <pt x="806" y="738" on="1"/>
        <pt x="841" y="0" on="1"/>
      </contour>
    </TTGlyph>
    <TTGlyph name="M.alt" xMin="70" yMin="0" xMax="841" yMax="740">
      <contour>
        <pt x="676" y="0" on="1"/>
        <pt x="667" y="360" on="1"/>
        <pt x="464" y="103" on="1"/>
        <pt x="446" y="103" on="1"/>
        <pt x="241" y="360" on="1"/>
        <pt x="234" y="0" on="1"/>
        <pt x="70" y="0" on="1"/>
        <pt x="104" y="738" on="1"/>
        <pt x="127" y="740" on="1"/>
        <pt x="459" y="321" on="1"/>
        <pt x="783" y="740" on="1"/>
        <pt x="806" y="738" on="1"/>
        <pt x="841" y="0" on="1"/>
      </contour>
    </TTGlyph>
    <TTGlyph name="N" xMin="80" yMin="-14" xMax="709" yMax="747">
      <contour>
        <pt x="692" y="-14" on="1"/>
        <pt x="250" y="383" on="1"/>
        <pt x="250" y="0" on="1"/>
        <pt x="80" y="0" on="1"/>
        <pt x="80" y="743" on="1"/>
        <pt x="103" y="747" on="1"/>
        <pt x="539" y="353" on="1"/>
        <pt x="539" y="733" on="1"/>
        <pt x="709" y="733" on="1"/>
        <pt x="709" y="-11" on="1"/>
      </contour>
    </TTGlyph>
    <TTGlyph name="Nacute" xMin="80" yMin="-14" xMax="709" yMax="997">
      <component glyphName="N" x="0" y="0" flags="0x204"/>
      <component glyphName="acute" x="202" y="305" flags="0x4"/>
    </TTGlyph>
    <TTGlyph name="Ncaron" xMin="80" yMin="-14" xMax="709" yMax="994">
      <component glyphName="N" x="0" y="0" flags="0x204"/>
      <component glyphName="caron" x="148" y="305" flags="0x4"/>
    </TTGlyph>
    <TTGlyph name="Ncommaaccent" xMin="80" yMin="-348" xMax="709" yMax="747">
      <component glyphName="N" x="0" y="0" flags="0x204"/>
      <component glyphName="commaaccent" x="292" y="10" flags="0x4"/>
    </TTGlyph>
    <TTGlyph name="Ntilde" xMin="80" yMin="-14" xMax="709" yMax="952">
      <component glyphName="N" x="0" y="0" flags="0x204"/>
      <component glyphName="tilde" x="144" y="305" flags="0x4"/>
    </TTGlyph>
    <TTGlyph name="O" xMin="55" yMin="-12" xMax="806" yMax="745">
      <contour>
        <pt x="427" y="-12" on="1"/>
        <pt x="342" y="-12" on="0"/>
        <pt x="204" y="46" on="0"/>
        <pt x="107" y="147" on="0"/>
        <pt x="55" y="285" on="0"/>
        <pt x="55" y="366" on="1"/>
        <pt x="55" y="447" on="0"/>
        <pt x="110" y="586" on="0"/>
        <pt x="209" y="687" on="0"/>
        <pt x="349" y="745" on="0"/>
        <pt x="434" y="745" on="1"/>
        <pt x="519" y="745" on="0"/>
        <pt x="656" y="687" on="0"/>
        <pt x="753" y="586" on="0"/>
        <pt x="806" y="447" on="0"/>
        <pt x="806" y="366" on="1"/>
        <pt x="806" y="285" on="0"/>
        <pt x="751" y="147" on="0"/>
        <pt x="651" y="46" on="0"/>
        <pt x="512" y="-12" on="0"/>
      </contour>
      <contour>
        <pt x="430" y="139" on="1"/>
        <pt x="473" y="139" on="0"/>
        <pt x="545" y="173" on="0"/>
        <pt x="596" y="234" on="0"/>
        <pt x="624" y="317" on="0"/>
        <pt x="624" y="366" on="1"/>
        <pt x="624" y="415" on="0"/>
        <pt x="596" y="499" on="0"/>
        <pt x="545" y="559" on="0"/>
        <pt x="473" y="593" on="0"/>
        <pt x="430" y="593" on="1"/>
        <pt x="386" y="593" on="0"/>
        <pt x="315" y="559" on="0"/>
        <pt x="264" y="499" on="0"/>
        <pt x="236" y="415" on="0"/>
        <pt x="236" y="366" on="1"/>
        <pt x="236" y="317" on="0"/>
        <pt x="264" y="234" on="0"/>
        <pt x="315" y="173" on="0"/>
        <pt x="386" y="139" on="0"/>
      </contour>
    </TTGlyph>
    <TTGlyph name="OE" xMin="55" yMin="-6" xMax="1002" yMax="738">
      <contour>
        <pt x="633" y="0" on="1"/>
        <pt x="596" y="-3" on="0"/>
        <pt x="529" y="-6" on="0"/>
        <pt x="491" y="-6" on="1"/>
        <pt x="387" y="-6" on="0"/>
        <pt x="224" y="50" on="0"/>
        <pt x="113" y="148" on="0"/>
        <pt x="55" y="282" on="0"/>
        <pt x="55" y="359" on="1"/>
        <pt x="55" y="440" on="0"/>
        <pt x="111" y="579" on="0"/>
        <pt x="220" y="680" on="0"/>
        <pt x="380" y="738" on="0"/>
        <pt x="484" y="738" on="1"/>
        <pt x="526" y="738" on="0"/>
        <pt x="591" y="735" on="0"/>
        <pt x="626" y="733" on="1"/>
        <pt x="1002" y="733" on="1"/>
        <pt x="1002" y="577" on="1"/>
        <pt x="709" y="577" on="1"/>
        <pt x="709" y="446" on="1"/>
        <pt x="976" y="446" on="1"/>
        <pt x="976" y="298" on="1"/>
        <pt x="709" y="298" on="1"/>
        <pt x="709" y="155" on="1"/>
        <pt x="1002" y="155" on="1"/>
        <pt x="1002" y="0" on="1"/>
      </contour>
      <contour>
        <pt x="539" y="582" on="1"/>
        <pt x="527" y="583" on="0"/>
        <pt x="510" y="585" on="0"/>
        <pt x="492" y="586" on="0"/>
        <pt x="472" y="586" on="0"/>
        <pt x="458" y="586" on="1"/>
        <pt x="407" y="586" on="0"/>
        <pt x="325" y="554" on="0"/>
        <pt x="267" y="495" on="0"/>
        <pt x="236" y="411" on="0"/>
        <pt x="236" y="359" on="1"/>
        <pt x="236" y="309" on="0"/>
        <pt x="271" y="230" on="0"/>
        <pt x="334" y="175" on="0"/>
        <pt x="419" y="146" on="0"/>
        <pt x="469" y="146" on="1"/>
        <pt x="491" y="146" on="0"/>
        <pt x="519" y="148" on="0"/>
        <pt x="539" y="150" on="1"/>
      </contour>
    </TTGlyph>
    <TTGlyph name="Oacute" xMin="55" yMin="-12" xMax="806" yMax="997">
      <component glyphName="O" x="0" y="0" flags="0x204"/>
      <component glyphName="acute" x="238" y="305" flags="0x4"/>
    </TTGlyph>
    <TTGlyph name="Obreve" xMin="55" yMin="-12" xMax="806" yMax="966">
      <component glyphName="O" x="0" y="0" flags="0x204"/>
      <component glyphName="breve" x="180" y="305" flags="0x4"/>
    </TTGlyph>
    <TTGlyph name="Ocircumflex" xMin="55" yMin="-12" xMax="806" yMax="996">
      <component glyphName="O" x="0" y="0" flags="0x204"/>
      <component glyphName="circumflex" x="177" y="305" flags="0x4"/>
    </TTGlyph>
    <TTGlyph name="Odieresis" xMin="55" yMin="-12" xMax="806" yMax="950">
      <component glyphName="O" x="0" y="0" flags="0x204"/>
      <component glyphName="dieresis" x="180" y="305" flags="0x4"/>
    </TTGlyph>
    <TTGlyph name="Ograve" xMin="55" yMin="-12" xMax="806" yMax="998">
      <component glyphName="O" x="0" y="0" flags="0x204"/>
      <component glyphName="grave" x="92" y="305" flags="0x4"/>
    </TTGlyph>
    <TTGlyph name="Ohungarumlaut" xMin="55" yMin="-12" xMax="806" yMax="1037">
      <component glyphName="O" x="0" y="0" flags="0x204"/>
      <component glyphName="hungarumlaut" x="237" y="305" flags="0x4"/>
    </TTGlyph>
    <TTGlyph name="Omacron" xMin="55" yMin="-12" xMax="806" yMax="916">
      <component glyphName="O" x="0" y="0" flags="0x204"/>
      <component glyphName="macron" x="180" y="305" flags="0x4"/>
    </TTGlyph>
    <TTGlyph name="Oslash" xMin="35" yMin="-12" xMax="825" yMax="745">
      <contour>
        <pt x="806" y="366" on="1"/>
        <pt x="806" y="285" on="0"/>
        <pt x="751" y="147" on="0"/>
        <pt x="651" y="46" on="0"/>
        <pt x="512" y="-12" on="0"/>
        <pt x="427" y="-12" on="1"/>
        <pt x="357" y="-12" on="0"/>
        <pt x="240" y="27" on="0"/>
        <pt x="194" y="62" on="1"/>
        <pt x="121" y="-6" on="1"/>
        <pt x="35" y="81" on="1"/>
        <pt x="112" y="153" on="1"/>
        <pt x="55" y="245" on="0"/>
        <pt x="55" y="366" on="1"/>
        <pt x="55" y="447" on="0"/>
        <pt x="110" y="586" on="0"/>
        <pt x="209" y="687" on="0"/>
        <pt x="349" y="745" on="0"/>
        <pt x="434" y="745" on="1"/>
        <pt x="504" y="745" on="0"/>
        <pt x="621" y="706" on="0"/>
        <pt x="667" y="670" on="1"/>
        <pt x="703" y="704" on="1"/>
        <pt x="739" y="738" on="1"/>
        <pt x="825" y="652" on="1"/>
        <pt x="748" y="580" on="1"/>
        <pt x="806" y="488" on="0"/>
      </contour>
      <contour>
        <pt x="543" y="555" on="1"/>
        <pt x="520" y="573" on="0"/>
        <pt x="463" y="593" on="0"/>
        <pt x="430" y="593" on="1"/>
        <pt x="386" y="593" on="0"/>
        <pt x="315" y="559" on="0"/>
        <pt x="264" y="499" on="0"/>
        <pt x="236" y="415" on="0"/>
        <pt x="236" y="366" on="1"/>
        <pt x="236" y="319" on="0"/>
        <pt x="248" y="280" on="1"/>
      </contour>
      <contour>
        <pt x="624" y="366" on="1"/>
        <pt x="624" y="414" on="0"/>
        <pt x="611" y="452" on="1"/>
        <pt x="317" y="177" on="1"/>
        <pt x="364" y="139" on="0"/>
        <pt x="430" y="139" on="1"/>
        <pt x="473" y="139" on="0"/>
        <pt x="545" y="173" on="0"/>
        <pt x="596" y="234" on="0"/>
        <pt x="624" y="317" on="0"/>
      </contour>
    </TTGlyph>
    <TTGlyph name="Oslashacute" xMin="35" yMin="-12" xMax="825" yMax="997">
      <component glyphName="Oslash" x="0" y="0" flags="0x204"/>
      <component glyphName="acute" x="238" y="305" flags="0x4"/>
    </TTGlyph>
    <TTGlyph name="Otilde" xMin="55" yMin="-12" xMax="806" yMax="952">
      <component glyphName="O" x="0" y="0" flags="0x204"/>
      <component glyphName="tilde" x="180" y="305" flags="0x4"/>
    </TTGlyph>
    <TTGlyph name="P" xMin="80" yMin="0" xMax="610" yMax="738">
      <contour>
        <pt x="610" y="477" on="1"/>
        <pt x="610" y="420" on="0"/>
        <pt x="572" y="325" on="0"/>
        <pt x="497" y="256" on="0"/>
        <pt x="386" y="217" on="0"/>
        <pt x="313" y="217" on="1"/>
        <pt x="295" y="217" on="0"/>
        <pt x="267" y="218" on="0"/>
        <pt x="250" y="219" on="1"/>
        <pt x="250" y="0" on="1"/>
        <pt x="80" y="0" on="1"/>
        <pt x="80" y="726" on="1"/>
        <pt x="192" y="738" on="0"/>
        <pt x="284" y="738" on="1"/>
        <pt x="363" y="738" on="0"/>
        <pt x="485" y="698" on="0"/>
        <pt x="568" y="628" on="0"/>
        <pt x="610" y="532" on="0"/>
      </contour>
      <contour>
        <pt x="436" y="474" on="1"/>
        <pt x="436" y="519" on="0"/>
        <pt x="376" y="579" on="0"/>
        <pt x="313" y="579" on="1"/>
        <pt x="296" y="579" on="0"/>
        <pt x="270" y="577" on="0"/>
        <pt x="250" y="575" on="1"/>
        <pt x="250" y="366" on="1"/>
        <pt x="268" y="365" on="0"/>
        <pt x="289" y="364" on="0"/>
        <pt x="301" y="364" on="1"/>
        <pt x="369" y="364" on="0"/>
        <pt x="436" y="420" on="0"/>
      </contour>
    </TTGlyph>
    <TTGlyph name="Q" xMin="55" yMin="-28" xMax="825" yMax="745">
      <contour>
        <pt x="722" y="-28" on="1"/>
        <pt x="636" y="50" on="1"/>
        <pt x="591" y="21" on="0"/>
        <pt x="486" y="-12" on="0"/>
        <pt x="427" y="-12" on="1"/>
        <pt x="342" y="-12" on="0"/>
        <pt x="205" y="46" on="0"/>
        <pt x="108" y="147" on="0"/>
        <pt x="55" y="285" on="0"/>
        <pt x="55" y="366" on="1"/>
        <pt x="55" y="447" on="0"/>
        <pt x="110" y="586" on="0"/>
        <pt x="210" y="687" on="0"/>
        <pt x="349" y="745" on="0"/>
        <pt x="434" y="745" on="1"/>
        <pt x="519" y="745" on="0"/>
        <pt x="657" y="687" on="0"/>
        <pt x="754" y="586" on="0"/>
        <pt x="806" y="447" on="0"/>
        <pt x="806" y="366" on="1"/>
        <pt x="806" y="309" on="0"/>
        <pt x="773" y="203" on="0"/>
        <pt x="744" y="158" on="1"/>
        <pt x="784" y="124" on="1"/>
        <pt x="802" y="109" on="0"/>
        <pt x="825" y="89" on="1"/>
      </contour>
      <contour>
        <pt x="625" y="366" on="1"/>
        <pt x="625" y="415" on="0"/>
        <pt x="597" y="499" on="0"/>
        <pt x="546" y="559" on="0"/>
        <pt x="474" y="593" on="0"/>
        <pt x="431" y="593" on="1"/>
        <pt x="387" y="593" on="0"/>
        <pt x="316" y="559" on="0"/>
        <pt x="265" y="499" on="0"/>
        <pt x="237" y="415" on="0"/>
        <pt x="237" y="366" on="1"/>
        <pt x="237" y="317" on="0"/>
        <pt x="265" y="234" on="0"/>
        <pt x="316" y="173" on="0"/>
        <pt x="387" y="139" on="0"/>
        <pt x="431" y="139" on="1"/>
        <pt x="474" y="139" on="0"/>
        <pt x="514" y="158" on="1"/>
        <pt x="406" y="250" on="1"/>
        <pt x="509" y="368" on="1"/>
        <pt x="611" y="275" on="1"/>
        <pt x="625" y="319" on="0"/>
      </contour>
    </TTGlyph>
    <TTGlyph name="R" xMin="81" yMin="0" xMax="661" yMax="738">
      <contour>
        <pt x="468" y="0" on="1"/>
        <pt x="343" y="239" on="1"/>
        <pt x="335" y="238" on="0"/>
        <pt x="322" y="238" on="0"/>
        <pt x="314" y="238" on="1"/>
        <pt x="295" y="238" on="0"/>
        <pt x="269" y="239" on="0"/>
        <pt x="251" y="240" on="1"/>
        <pt x="251" y="0" on="1"/>
        <pt x="81" y="0" on="1"/>
        <pt x="81" y="726" on="1"/>
        <pt x="128" y="731" on="0"/>
        <pt x="232" y="738" on="0"/>
        <pt x="297" y="738" on="1"/>
        <pt x="382" y="738" on="0"/>
        <pt x="503" y="700" on="0"/>
        <pt x="580" y="634" on="0"/>
        <pt x="615" y="545" on="0"/>
        <pt x="615" y="495" on="1"/>
        <pt x="615" y="429" on="0"/>
        <pt x="549" y="318" on="0"/>
        <pt x="489" y="283" on="1"/>
        <pt x="661" y="0" on="1"/>
      </contour>
      <contour>
        <pt x="438" y="489" on="1"/>
        <pt x="438" y="535" on="0"/>
        <pt x="372" y="586" on="0"/>
        <pt x="317" y="586" on="1"/>
        <pt x="297" y="586" on="0"/>
        <pt x="269" y="584" on="0"/>
        <pt x="251" y="581" on="1"/>
        <pt x="251" y="379" on="1"/>
        <pt x="268" y="377" on="0"/>
        <pt x="290" y="376" on="0"/>
        <pt x="305" y="376" on="1"/>
        <pt x="366" y="376" on="0"/>
        <pt x="438" y="433" on="0"/>
      </contour>
    </TTGlyph>
    <TTGlyph name="Racute" xMin="81" yMin="0" xMax="661" yMax="997">
      <component glyphName="R" x="0" y="0" flags="0x204"/>
      <component glyphName="acute" x="147" y="305" flags="0x4"/>
    </TTGlyph>
    <TTGlyph name="Rcaron" xMin="81" yMin="0" xMax="661" yMax="994">
      <component glyphName="R" x="0" y="0" flags="0x204"/>
      <component glyphName="caron" x="93" y="305" flags="0x4"/>
    </TTGlyph>
    <TTGlyph name="Rcommaaccent" xMin="81" yMin="-348" xMax="661" yMax="738">
      <component glyphName="R" x="0" y="0" flags="0x204"/>
      <component glyphName="commaaccent" x="237" y="10" flags="0x4"/>
    </TTGlyph>
    <TTGlyph name="S" xMin="25" yMin="-12" xMax="533" yMax="745">
      <contour>
        <pt x="533" y="216" on="1"/>
        <pt x="533" y="172" on="0"/>
        <pt x="501" y="90" on="0"/>
        <pt x="436" y="26" on="0"/>
        <pt x="338" y="-12" on="0"/>
        <pt x="272" y="-12" on="1"/>
        <pt x="241" y="-12" on="0"/>
        <pt x="174" y="0" on="0"/>
        <pt x="109" y="20" on="0"/>
        <pt x="49" y="47" on="0"/>
        <pt x="25" y="63" on="1"/>
        <pt x="72" y="217" on="1"/>
        <pt x="117" y="185" on="0"/>
        <pt x="225" y="146" on="0"/>
        <pt x="277" y="146" on="1"/>
        <pt x="322" y="146" on="0"/>
        <pt x="360" y="183" on="0"/>
        <pt x="360" y="210" on="1"/>
        <pt x="360" y="224" on="0"/>
        <pt x="351" y="249" on="0"/>
        <pt x="322" y="275" on="0"/>
        <pt x="271" y="302" on="0"/>
        <pt x="229" y="319" on="1"/>
        <pt x="181" y="338" on="0"/>
        <pt x="114" y="386" on="0"/>
        <pt x="73" y="440" on="0"/>
        <pt x="55" y="501" on="0"/>
        <pt x="55" y="534" on="1"/>
        <pt x="55" y="574" on="0"/>
        <pt x="88" y="650" on="0"/>
        <pt x="152" y="709" on="0"/>
        <pt x="249" y="745" on="0"/>
        <pt x="313" y="745" on="1"/>
        <pt x="343" y="745" on="0"/>
        <pt x="402" y="735" on="0"/>
        <pt x="456" y="719" on="0"/>
        <pt x="502" y="699" on="0"/>
        <pt x="518" y="688" on="1"/>
        <pt x="475" y="536" on="1"/>
        <pt x="459" y="547" on="0"/>
        <pt x="419" y="568" on="0"/>
        <pt x="376" y="585" on="0"/>
        <pt x="332" y="596" on="0"/>
        <pt x="313" y="596" on="1"/>
        <pt x="266" y="596" on="0"/>
        <pt x="226" y="560" on="0"/>
        <pt x="226" y="537" on="1"/>
        <pt x="226" y="519" on="0"/>
        <pt x="240" y="493" on="0"/>
        <pt x="272" y="471" on="0"/>
        <pt x="320" y="449" on="0"/>
        <pt x="355" y="434" on="1"/>
        <pt x="406" y="412" on="0"/>
        <pt x="475" y="365" on="0"/>
        <pt x="516" y="312" on="0"/>
        <pt x="533" y="251" on="0"/>
      </contour>
    </TTGlyph>
    <TTGlyph name="Sacute" xMin="25" yMin="-12" xMax="533" yMax="997">
      <component glyphName="S" x="0" y="0" flags="0x204"/>
      <component glyphName="acute" x="95" y="305" flags="0x4"/>
    </TTGlyph>
    <TTGlyph name="Scaron" xMin="25" yMin="-12" xMax="533" yMax="994">
      <component glyphName="S" x="0" y="0" flags="0x204"/>
      <component glyphName="caron" x="41" y="305" flags="0x4"/>
    </TTGlyph>
    <TTGlyph name="Scedilla" xMin="25" yMin="-261" xMax="533" yMax="745">
      <contour>
        <pt x="406" y="-148" on="1"/>
        <pt x="406" y="-171" on="0"/>
        <pt x="390" y="-211" on="0"/>
        <pt x="357" y="-243" on="0"/>
        <pt x="308" y="-261" on="0"/>
        <pt x="276" y="-261" on="1"/>
        <pt x="244" y="-261" on="0"/>
        <pt x="179" y="-239" on="0"/>
        <pt x="145" y="-219" on="1"/>
        <pt x="177" y="-143" on="1"/>
        <pt x="206" y="-162" on="0"/>
        <pt x="257" y="-181" on="0"/>
        <pt x="282" y="-181" on="1"/>
        <pt x="316" y="-181" on="0"/>
        <pt x="316" y="-150" on="1"/>
        <pt x="316" y="-136" on="0"/>
        <pt x="275" y="-111" on="0"/>
        <pt x="217" y="-111" on="1"/>
        <pt x="212" y="-101" on="1"/>
        <pt x="236" y="-10" on="1"/>
        <pt x="180" y="-4" on="0"/>
        <pt x="67" y="36" on="0"/>
        <pt x="25" y="63" on="1"/>
        <pt x="72" y="217" on="1"/>
        <pt x="117" y="185" on="0"/>
        <pt x="225" y="146" on="0"/>
        <pt x="277" y="146" on="1"/>
        <pt x="322" y="146" on="0"/>
        <pt x="360" y="183" on="0"/>
        <pt x="360" y="210" on="1"/>
        <pt x="360" y="224" on="0"/>
        <pt x="351" y="249" on="0"/>
        <pt x="322" y="275" on="0"/>
        <pt x="271" y="302" on="0"/>
        <pt x="229" y="319" on="1"/>
        <pt x="181" y="338" on="0"/>
        <pt x="114" y="386" on="0"/>
        <pt x="73" y="440" on="0"/>
        <pt x="55" y="501" on="0"/>
        <pt x="55" y="534" on="1"/>
        <pt x="55" y="574" on="0"/>
        <pt x="88" y="650" on="0"/>
        <pt x="152" y="709" on="0"/>
        <pt x="249" y="745" on="0"/>
        <pt x="313" y="745" on="1"/>
        <pt x="343" y="745" on="0"/>
        <pt x="402" y="735" on="0"/>
        <pt x="456" y="719" on="0"/>
        <pt x="502" y="699" on="0"/>
        <pt x="518" y="688" on="1"/>
        <pt x="475" y="536" on="1"/>
        <pt x="459" y="547" on="0"/>
        <pt x="419" y="568" on="0"/>
        <pt x="376" y="585" on="0"/>
        <pt x="332" y="596" on="0"/>
        <pt x="313" y="596" on="1"/>
        <pt x="266" y="596" on="0"/>
        <pt x="226" y="560" on="0"/>
        <pt x="226" y="537" on="1"/>
        <pt x="226" y="519" on="0"/>
        <pt x="240" y="493" on="0"/>
        <pt x="272" y="471" on="0"/>
        <pt x="320" y="449" on="0"/>
        <pt x="355" y="434" on="1"/>
        <pt x="406" y="412" on="0"/>
        <pt x="475" y="365" on="0"/>
        <pt x="516" y="312" on="0"/>
        <pt x="533" y="251" on="0"/>
        <pt x="533" y="216" on="1"/>
        <pt x="533" y="174" on="0"/>
        <pt x="504" y="95" on="0"/>
        <pt x="445" y="33" on="0"/>
        <pt x="356" y="-7" on="0"/>
        <pt x="296" y="-11" on="1"/>
        <pt x="289" y="-41" on="1"/>
        <pt x="354" y="-56" on="0"/>
        <pt x="406" y="-111" on="0"/>
      </contour>
    </TTGlyph>
    <TTGlyph name="Scommaaccent" xMin="25" yMin="-358" xMax="533" yMax="745">
      <component glyphName="S" x="0" y="0" flags="0x204"/>
      <component glyphName="commaaccent" x="185" y="0" flags="0x4"/>
    </TTGlyph>
    <TTGlyph name="T" xMin="25" yMin="0" xMax="635" yMax="733">
      <contour>
        <pt x="415" y="577" on="1"/>
        <pt x="415" y="0" on="1"/>
        <pt x="245" y="0" on="1"/>
        <pt x="245" y="577" on="1"/>
        <pt x="25" y="577" on="1"/>
        <pt x="25" y="733" on="1"/>
        <pt x="635" y="733" on="1"/>
        <pt x="635" y="577" on="1"/>
      </contour>
    </TTGlyph>
    <TTGlyph name="Tcaron" xMin="25" yMin="0" xMax="635" yMax="994">
      <component glyphName="T" x="0" y="0" flags="0x204"/>
      <component glyphName="caron" x="84" y="305" flags="0x4"/>
    </TTGlyph>
    <TTGlyph name="Tcommaaccent" xMin="25" yMin="-358" xMax="635" yMax="733">
      <component glyphName="T" x="0" y="0" flags="0x204"/>
      <component glyphName="commaaccent" x="228" y="0" flags="0x4"/>
    </TTGlyph>
    <TTGlyph name="Thorn" xMin="80" yMin="0" xMax="610" yMax="733">
      <contour>
        <pt x="610" y="364" on="1"/>
        <pt x="610" y="307" on="0"/>
        <pt x="572" y="212" on="0"/>
        <pt x="497" y="143" on="0"/>
        <pt x="386" y="104" on="0"/>
        <pt x="313" y="104" on="1"/>
        <pt x="295" y="104" on="0"/>
        <pt x="267" y="105" on="0"/>
        <pt x="250" y="106" on="1"/>
        <pt x="250" y="0" on="1"/>
        <pt x="80" y="0" on="1"/>
        <pt x="80" y="733" on="1"/>
        <pt x="250" y="733" on="1"/>
        <pt x="250" y="625" on="1"/>
        <pt x="284" y="625" on="1"/>
        <pt x="363" y="625" on="0"/>
        <pt x="485" y="585" on="0"/>
        <pt x="568" y="515" on="0"/>
        <pt x="610" y="419" on="0"/>
      </contour>
      <contour>
        <pt x="436" y="361" on="1"/>
        <pt x="436" y="406" on="0"/>
        <pt x="376" y="466" on="0"/>
        <pt x="313" y="466" on="1"/>
        <pt x="296" y="466" on="0"/>
        <pt x="270" y="464" on="0"/>
        <pt x="250" y="462" on="1"/>
        <pt x="250" y="253" on="1"/>
        <pt x="268" y="252" on="0"/>
        <pt x="289" y="251" on="0"/>
        <pt x="301" y="251" on="1"/>
        <pt x="369" y="251" on="0"/>
        <pt x="436" y="307" on="0"/>
      </contour>
    </TTGlyph>
    <TTGlyph name="U" xMin="72" yMin="-12" xMax="693" yMax="733">
      <contour>
        <pt x="693" y="298" on="1"/>
        <pt x="693" y="145" on="0"/>
        <pt x="527" y="-12" on="0"/>
        <pt x="379" y="-12" on="1"/>
        <pt x="230" y="-12" on="0"/>
        <pt x="72" y="144" on="0"/>
        <pt x="72" y="298" on="1"/>
        <pt x="72" y="733" on="1"/>
        <pt x="242" y="733" on="1"/>
        <pt x="242" y="310" on="1"/>
        <pt x="242" y="232" on="0"/>
        <pt x="310" y="143" on="0"/>
        <pt x="383" y="143" on="1"/>
        <pt x="455" y="143" on="0"/>
        <pt x="523" y="232" on="0"/>
        <pt x="523" y="310" on="1"/>
        <pt x="523" y="733" on="1"/>
        <pt x="693" y="733" on="1"/>
      </contour>
    </TTGlyph>
    <TTGlyph name="Uacute" xMin="72" yMin="-12" xMax="693" yMax="997">
      <component glyphName="U" x="0" y="0" flags="0x204"/>
      <component glyphName="acute" x="190" y="305" flags="0x4"/>
    </TTGlyph>
    <TTGlyph name="Ubreve" xMin="72" yMin="-12" xMax="693" yMax="966">
      <component glyphName="U" x="0" y="0" flags="0x204"/>
      <component glyphName="breve" x="132" y="305" flags="0x4"/>
    </TTGlyph>
    <TTGlyph name="Ucircumflex" xMin="72" yMin="-12" xMax="693" yMax="996">
      <component glyphName="U" x="0" y="0" flags="0x204"/>
      <component glyphName="circumflex" x="129" y="305" flags="0x4"/>
    </TTGlyph>
    <TTGlyph name="Udieresis" xMin="72" yMin="-12" xMax="693" yMax="950">
      <component glyphName="U" x="0" y="0" flags="0x204"/>
      <component glyphName="dieresis" x="132" y="305" flags="0x4"/>
    </TTGlyph>
    <TTGlyph name="Ugrave" xMin="72" yMin="-12" xMax="693" yMax="998">
      <component glyphName="U" x="0" y="0" flags="0x204"/>
      <component glyphName="grave" x="44" y="305" flags="0x4"/>
    </TTGlyph>
    <TTGlyph name="Uhungarumlaut" xMin="72" yMin="-12" xMax="693" yMax="1037">
      <component glyphName="U" x="0" y="0" flags="0x204"/>
      <component glyphName="hungarumlaut" x="189" y="305" flags="0x4"/>
    </TTGlyph>
    <TTGlyph name="Umacron" xMin="72" yMin="-12" xMax="693" yMax="916">
      <component glyphName="U" x="0" y="0" flags="0x204"/>
      <component glyphName="macron" x="132" y="305" flags="0x4"/>
    </TTGlyph>
    <TTGlyph name="Uogonek" xMin="72" yMin="-224" xMax="693" yMax="733">
      <contour>
        <pt x="502" y="-177" on="1"/>
        <pt x="482" y="-196" on="0"/>
        <pt x="425" y="-224" on="0"/>
        <pt x="385" y="-224" on="1"/>
        <pt x="339" y="-224" on="0"/>
        <pt x="287" y="-173" on="0"/>
        <pt x="287" y="-130" on="1"/>
        <pt x="287" y="-95" on="0"/>
        <pt x="319" y="-38" on="0"/>
        <pt x="344" y="-10" on="1"/>
        <pt x="212" y="-2" on="0"/>
        <pt x="72" y="153" on="0"/>
        <pt x="72" y="298" on="1"/>
        <pt x="72" y="733" on="1"/>
        <pt x="242" y="733" on="1"/>
        <pt x="242" y="310" on="1"/>
        <pt x="242" y="232" on="0"/>
        <pt x="310" y="143" on="0"/>
        <pt x="383" y="143" on="1"/>
        <pt x="455" y="143" on="0"/>
        <pt x="523" y="232" on="0"/>
        <pt x="523" y="310" on="1"/>
        <pt x="523" y="733" on="1"/>
        <pt x="693" y="733" on="1"/>
        <pt x="693" y="298" on="1"/>
        <pt x="693" y="158" on="0"/>
        <pt x="557" y="5" on="0"/>
        <pt x="433" y="-9" on="1"/>
        <pt x="412" y="-35" on="0"/>
        <pt x="387" y="-80" on="0"/>
        <pt x="387" y="-103" on="1"/>
        <pt x="387" y="-136" on="0"/>
        <pt x="421" y="-136" on="1"/>
        <pt x="435" y="-136" on="0"/>
        <pt x="456" y="-124" on="0"/>
        <pt x="467" y="-116" on="1"/>
      </contour>
    </TTGlyph>
    <TTGlyph name="Uring" xMin="72" yMin="-12" xMax="693" yMax="1044">
      <component glyphName="U" x="0" y="0" flags="0x204"/>
      <component glyphName="ring" x="133" y="305" flags="0x4"/>
    </TTGlyph>
    <TTGlyph name="V" xMin="-10" yMin="-6" xMax="710" yMax="733">
      <contour>
        <pt x="360" y="-6" on="1"/>
        <pt x="340" y="-6" on="1"/>
        <pt x="-10" y="733" on="1"/>
        <pt x="185" y="733" on="1"/>
        <pt x="352" y="337" on="1"/>
        <pt x="519" y="733" on="1"/>
        <pt x="710" y="733" on="1"/>
      </contour>
    </TTGlyph>
    <TTGlyph name="W" xMin="0" yMin="-14" xMax="1022" yMax="739">
      <contour>
        <pt x="759" y="-12" on="1"/>
        <pt x="736" y="-14" on="1"/>
        <pt x="511" y="425" on="1"/>
        <pt x="289" y="-14" on="1"/>
        <pt x="267" y="-12" on="1"/>
        <pt x="0" y="733" on="1"/>
        <pt x="195" y="733" on="1"/>
        <pt x="313" y="348" on="1"/>
        <pt x="504" y="739" on="1"/>
        <pt x="522" y="739" on="1"/>
        <pt x="714" y="351" on="1"/>
        <pt x="831" y="733" on="1"/>
        <pt x="1022" y="733" on="1"/>
      </contour>
    </TTGlyph>
    <TTGlyph name="Wacute" xMin="0" yMin="-14" xMax="1022" yMax="997">
      <component glyphName="W" x="0" y="0" flags="0x204"/>
      <component glyphName="acute" x="319" y="305" flags="0x4"/>
    </TTGlyph>
    <TTGlyph name="Wcircumflex" xMin="0" yMin="-14" xMax="1022" yMax="996">
      <component glyphName="W" x="0" y="0" flags="0x204"/>
      <component glyphName="circumflex" x="258" y="305" flags="0x4"/>
    </TTGlyph>
    <TTGlyph name="Wdieresis" xMin="0" yMin="-14" xMax="1022" yMax="950">
      <component glyphName="W" x="0" y="0" flags="0x204"/>
      <component glyphName="dieresis" x="261" y="305" flags="0x4"/>
    </TTGlyph>
    <TTGlyph name="Wgrave" xMin="0" yMin="-14" xMax="1022" yMax="998">
      <component glyphName="W" x="0" y="0" flags="0x204"/>
      <component glyphName="grave" x="173" y="305" flags="0x4"/>
    </TTGlyph>
    <TTGlyph name="X" xMin="20" yMin="0" xMax="719" yMax="733">
      <contour>
        <pt x="516" y="0" on="1"/>
        <pt x="369" y="241" on="1"/>
        <pt x="220" y="0" on="1"/>
        <pt x="20" y="0" on="1"/>
        <pt x="261" y="358" on="1"/>
        <pt x="20" y="733" on="1"/>
        <pt x="223" y="733" on="1"/>
        <pt x="371" y="491" on="1"/>
        <pt x="520" y="733" on="1"/>
        <pt x="719" y="733" on="1"/>
        <pt x="478" y="375" on="1"/>
        <pt x="719" y="0" on="1"/>
      </contour>
    </TTGlyph>
    <TTGlyph name="Y" xMin="10" yMin="0" xMax="696" yMax="733">
      <contour>
        <pt x="438" y="290" on="1"/>
        <pt x="438" y="0" on="1"/>
        <pt x="268" y="0" on="1"/>
        <pt x="268" y="291" on="1"/>
        <pt x="10" y="733" on="1"/>
        <pt x="205" y="733" on="1"/>
        <pt x="355" y="452" on="1"/>
        <pt x="505" y="733" on="1"/>
        <pt x="696" y="733" on="1"/>
      </contour>
    </TTGlyph>
    <TTGlyph name="Yacute" xMin="10" yMin="0" xMax="696" yMax="997">
      <component glyphName="Y" x="0" y="0" flags="0x204"/>
      <component glyphName="acute" x="161" y="305" flags="0x4"/>
    </TTGlyph>
    <TTGlyph name="Ycircumflex" xMin="10" yMin="0" xMax="696" yMax="996">
      <component glyphName="Y" x="0" y="0" flags="0x204"/>
      <component glyphName="circumflex" x="100" y="305" flags="0x4"/>
    </TTGlyph>
    <TTGlyph name="Ydieresis" xMin="10" yMin="0" xMax="696" yMax="950">
      <component glyphName="Y" x="0" y="0" flags="0x204"/>
      <component glyphName="dieresis" x="103" y="305" flags="0x4"/>
    </TTGlyph>
    <TTGlyph name="Ygrave" xMin="10" yMin="0" xMax="696" yMax="998">
      <component glyphName="Y" x="0" y="0" flags="0x204"/>
      <component glyphName="grave" x="15" y="305" flags="0x4"/>
    </TTGlyph>
    <TTGlyph name="Z" xMin="22" yMin="0" xMax="661" yMax="733">
      <contour>
        <pt x="298" y="155" on="1"/>
        <pt x="649" y="155" on="1"/>
        <pt x="649" y="0" on="1"/>
        <pt x="27" y="0" on="1"/>
        <pt x="22" y="18" on="1"/>
        <pt x="385" y="577" on="1"/>
        <pt x="48" y="577" on="1"/>
        <pt x="48" y="733" on="1"/>
        <pt x="656" y="733" on="1"/>
        <pt x="661" y="714" on="1"/>
      </contour>
    </TTGlyph>
    <TTGlyph name="Zacute" xMin="22" yMin="0" xMax="661" yMax="997">
      <component glyphName="Z" x="0" y="0" flags="0x204"/>
      <component glyphName="acute" x="149" y="305" flags="0x4"/>
    </TTGlyph>
    <TTGlyph name="Zcaron" xMin="22" yMin="0" xMax="661" yMax="994">
      <component glyphName="Z" x="0" y="0" flags="0x204"/>
      <component glyphName="caron" x="95" y="305" flags="0x4"/>
    </TTGlyph>
    <TTGlyph name="Zdotaccent" xMin="22" yMin="0" xMax="661" yMax="950">
      <component glyphName="Z" x="0" y="0" flags="0x204"/>
      <component glyphName="dotaccent" x="121" y="305" flags="0x4"/>
    </TTGlyph>
    <TTGlyph name="a" xMin="26" yMin="-8" xMax="436" yMax="442">
      <contour>
        <pt x="293" y="0" on="1"/>
        <pt x="293" y="37" on="1"/>
        <pt x="270" y="15" on="0"/>
        <pt x="217" y="-8" on="0"/>
        <pt x="175" y="-8" on="1"/>
        <pt x="143" y="-8" on="0"/>
        <pt x="89" y="10" on="0"/>
        <pt x="49" y="44" on="0"/>
        <pt x="26" y="95" on="0"/>
        <pt x="26" y="127" on="1"/>
        <pt x="26" y="155" on="0"/>
        <pt x="47" y="204" on="0"/>
        <pt x="88" y="240" on="0"/>
        <pt x="147" y="261" on="0"/>
        <pt x="185" y="261" on="1"/>
        <pt x="220" y="261" on="0"/>
        <pt x="267" y="247" on="0"/>
        <pt x="289" y="235" on="1"/>
        <pt x="289" y="246" on="1"/>
        <pt x="289" y="293" on="0"/>
        <pt x="237" y="332" on="0"/>
        <pt x="192" y="332" on="1"/>
        <pt x="170" y="332" on="0"/>
        <pt x="119" y="324" on="0"/>
        <pt x="90" y="317" on="1"/>
        <pt x="77" y="420" on="1"/>
        <pt x="107" y="429" on="0"/>
        <pt x="186" y="442" on="0"/>
        <pt x="218" y="442" on="1"/>
        <pt x="330" y="442" on="0"/>
        <pt x="436" y="341" on="0"/>
        <pt x="436" y="243" on="1"/>
        <pt x="436" y="0" on="1"/>
      </contour>
      <contour>
        <pt x="289" y="156" on="1"/>
        <pt x="275" y="168" on="0"/>
        <pt x="248" y="179" on="0"/>
        <pt x="227" y="179" on="1"/>
        <pt x="202" y="179" on="0"/>
        <pt x="165" y="151" on="0"/>
        <pt x="165" y="128" on="1"/>
        <pt x="165" y="104" on="0"/>
        <pt x="196" y="76" on="0"/>
        <pt x="222" y="76" on="1"/>
        <pt x="247" y="76" on="0"/>
        <pt x="278" y="92" on="0"/>
        <pt x="289" y="107" on="1"/>
      </contour>
    </TTGlyph>
    <TTGlyph name="aacute" xMin="26" yMin="-8" xMax="436" yMax="692">
      <component glyphName="a" x="0" y="0" flags="0x204"/>
      <component glyphName="acute" x="55" y="0" flags="0x4"/>
    </TTGlyph>
    <TTGlyph name="abreve" xMin="26" yMin="-8" xMax="436" yMax="661">
      <component glyphName="a" x="0" y="0" flags="0x204"/>
      <component glyphName="breve" x="-2" y="0" flags="0x4"/>
    </TTGlyph>
    <TTGlyph name="acircumflex" xMin="26" yMin="-8" xMax="439" yMax="691">
      <component glyphName="a" x="0" y="0" flags="0x204"/>
      <component glyphName="circumflex" x="-5" y="0" flags="0x4"/>
    </TTGlyph>
    <TTGlyph name="acute" xMin="128" yMin="483" xMax="376" yMax="692">
      <contour>
        <pt x="163" y="483" on="1"/>
        <pt x="128" y="550" on="1"/>
        <pt x="317" y="692" on="1"/>
        <pt x="376" y="572" on="1"/>
      </contour>
    </TTGlyph>
    <TTGlyph name="adieresis" xMin="26" yMin="-8" xMax="436" yMax="645">
      <component glyphName="a" x="0" y="0" flags="0x204"/>
      <component glyphName="dieresis" x="-2" y="0" flags="0x4"/>
    </TTGlyph>
    <TTGlyph name="ae" xMin="26" yMin="-8" xMax="723" yMax="442">
      <contour>
        <pt x="290" y="246" on="1"/>
        <pt x="290" y="293" on="0"/>
        <pt x="238" y="332" on="0"/>
        <pt x="193" y="332" on="1"/>
        <pt x="170" y="332" on="0"/>
        <pt x="120" y="324" on="0"/>
        <pt x="91" y="317" on="1"/>
        <pt x="78" y="420" on="1"/>
        <pt x="107" y="429" on="0"/>
        <pt x="182" y="442" on="0"/>
        <pt x="214" y="442" on="1"/>
        <pt x="328" y="442" on="0"/>
        <pt x="378" y="381" on="1"/>
        <pt x="406" y="409" on="0"/>
        <pt x="479" y="442" on="0"/>
        <pt x="523" y="442" on="1"/>
        <pt x="572" y="442" on="0"/>
        <pt x="647" y="409" on="0"/>
        <pt x="697" y="352" on="0"/>
        <pt x="723" y="276" on="0"/>
        <pt x="723" y="233" on="1"/>
        <pt x="723" y="228" on="0"/>
        <pt x="723" y="212" on="0"/>
        <pt x="722" y="194" on="0"/>
        <pt x="721" y="178" on="0"/>
        <pt x="720" y="172" on="1"/>
        <pt x="436" y="172" on="1"/>
        <pt x="443" y="135" on="0"/>
        <pt x="494" y="102" on="0"/>
        <pt x="546" y="102" on="1"/>
        <pt x="572" y="102" on="0"/>
        <pt x="643" y="115" on="0"/>
        <pt x="677" y="125" on="1"/>
        <pt x="691" y="16" on="1"/>
        <pt x="649" y="5" on="0"/>
        <pt x="570" y="-8" on="0"/>
        <pt x="535" y="-8" on="1"/>
        <pt x="475" y="-8" on="0"/>
        <pt x="384" y="36" on="0"/>
        <pt x="355" y="72" on="1"/>
        <pt x="319" y="33" on="0"/>
        <pt x="237" y="-8" on="0"/>
        <pt x="188" y="-8" on="1"/>
        <pt x="116" y="-8" on="0"/>
        <pt x="26" y="62" on="0"/>
        <pt x="26" y="127" on="1"/>
        <pt x="26" y="155" on="0"/>
        <pt x="47" y="204" on="0"/>
        <pt x="88" y="240" on="0"/>
        <pt x="147" y="261" on="0"/>
        <pt x="185" y="261" on="1"/>
        <pt x="220" y="261" on="0"/>
        <pt x="267" y="247" on="0"/>
        <pt x="290" y="235" on="1"/>
      </contour>
      <contour>
        <pt x="594" y="253" on="1"/>
        <pt x="591" y="292" on="0"/>
        <pt x="549" y="330" on="0"/>
        <pt x="518" y="330" on="1"/>
        <pt x="485" y="330" on="0"/>
        <pt x="443" y="291" on="0"/>
        <pt x="438" y="253" on="1"/>
      </contour>
      <contour>
        <pt x="311" y="138" on="1"/>
        <pt x="297" y="160" on="0"/>
        <pt x="256" y="185" on="0"/>
        <pt x="223" y="185" on="1"/>
        <pt x="200" y="185" on="0"/>
        <pt x="165" y="156" on="0"/>
        <pt x="165" y="133" on="1"/>
        <pt x="165" y="109" on="0"/>
        <pt x="196" y="82" on="0"/>
        <pt x="222" y="82" on="1"/>
        <pt x="247" y="82" on="0"/>
        <pt x="297" y="109" on="0"/>
      </contour>
    </TTGlyph>
    <TTGlyph name="aeacute" xMin="26" yMin="-8" xMax="723" yMax="692">
      <component glyphName="ae" x="0" y="0" flags="0x204"/>
      <component glyphName="acute" x="189" y="0" flags="0x4"/>
    </TTGlyph>
    <TTGlyph name="agrave" xMin="26" yMin="-8" xMax="436" yMax="693">
      <component glyphName="a" x="0" y="0" flags="0x204"/>
      <component glyphName="grave" x="-90" y="0" flags="0x4"/>
    </TTGlyph>
    <TTGlyph name="amacron" xMin="26" yMin="-8" xMax="436" yMax="611">
      <component glyphName="a" x="0" y="0" flags="0x204"/>
      <component glyphName="macron" x="-2" y="0" flags="0x4"/>
    </TTGlyph>
    <TTGlyph name="ampersand" xMin="50" yMin="-13" xMax="621" yMax="610">
      <contour>
        <pt x="621" y="227" on="1"/>
        <pt x="599" y="202" on="0"/>
        <pt x="554" y="152" on="0"/>
        <pt x="530" y="129" on="1"/>
        <pt x="561" y="100" on="0"/>
        <pt x="596" y="72" on="1"/>
        <pt x="510" y="-13" on="1"/>
        <pt x="492" y="3" on="0"/>
        <pt x="452" y="34" on="0"/>
        <pt x="435" y="49" on="1"/>
        <pt x="394" y="22" on="0"/>
        <pt x="306" y="-10" on="0"/>
        <pt x="258" y="-10" on="1"/>
        <pt x="219" y="-10" on="0"/>
        <pt x="144" y="13" on="0"/>
        <pt x="86" y="56" on="0"/>
        <pt x="50" y="119" on="0"/>
        <pt x="50" y="160" on="1"/>
        <pt x="50" y="211" on="0"/>
        <pt x="122" y="303" on="0"/>
        <pt x="183" y="329" on="1"/>
        <pt x="163" y="361" on="0"/>
        <pt x="142" y="417" on="0"/>
        <pt x="142" y="442" on="1"/>
        <pt x="142" y="475" on="0"/>
        <pt x="170" y="536" on="0"/>
        <pt x="219" y="582" on="0"/>
        <pt x="287" y="610" on="0"/>
        <pt x="328" y="610" on="1"/>
        <pt x="369" y="610" on="0"/>
        <pt x="435" y="584" on="0"/>
        <pt x="482" y="540" on="0"/>
        <pt x="507" y="485" on="0"/>
        <pt x="507" y="455" on="1"/>
        <pt x="507" y="403" on="0"/>
        <pt x="432" y="319" on="0"/>
        <pt x="360" y="297" on="1"/>
        <pt x="377" y="277" on="0"/>
        <pt x="421" y="230" on="0"/>
        <pt x="446" y="207" on="1"/>
        <pt x="471" y="230" on="0"/>
        <pt x="516" y="279" on="0"/>
        <pt x="535" y="303" on="1"/>
      </contour>
      <contour>
        <pt x="380" y="448" on="1"/>
        <pt x="380" y="470" on="0"/>
        <pt x="352" y="500" on="0"/>
        <pt x="327" y="500" on="1"/>
        <pt x="305" y="500" on="0"/>
        <pt x="278" y="466" on="0"/>
        <pt x="278" y="442" on="1"/>
        <pt x="278" y="428" on="0"/>
        <pt x="290" y="389" on="0"/>
        <pt x="305" y="369" on="1"/>
        <pt x="346" y="383" on="0"/>
        <pt x="380" y="426" on="0"/>
      </contour>
      <contour>
        <pt x="348" y="132" on="1"/>
        <pt x="319" y="161" on="0"/>
        <pt x="267" y="217" on="0"/>
        <pt x="244" y="244" on="1"/>
        <pt x="222" y="234" on="0"/>
        <pt x="198" y="195" on="0"/>
        <pt x="198" y="173" on="1"/>
        <pt x="198" y="144" on="0"/>
        <pt x="238" y="108" on="0"/>
        <pt x="273" y="108" on="1"/>
        <pt x="289" y="108" on="0"/>
        <pt x="328" y="121" on="0"/>
      </contour>
    </TTGlyph>
    <TTGlyph name="ampersand.cap" xMin="26" yMin="-16" xMax="726" yMax="745">
      <contour>
        <pt x="400" y="346" on="1"/>
        <pt x="422" y="323" on="0"/>
        <pt x="474" y="273" on="0"/>
        <pt x="503" y="247" on="1"/>
        <pt x="536" y="279" on="0"/>
        <pt x="598" y="345" on="0"/>
        <pt x="620" y="375" on="1"/>
        <pt x="726" y="281" on="1"/>
        <pt x="700" y="250" on="0"/>
        <pt x="641" y="185" on="0"/>
        <pt x="612" y="156" on="1"/>
        <pt x="696" y="89" on="1"/>
        <pt x="590" y="-16" on="1"/>
        <pt x="567" y="3" on="0"/>
        <pt x="520" y="39" on="0"/>
        <pt x="497" y="59" on="1"/>
        <pt x="446" y="27" on="0"/>
        <pt x="338" y="-12" on="0"/>
        <pt x="281" y="-12" on="1"/>
        <pt x="225" y="-12" on="0"/>
        <pt x="131" y="18" on="0"/>
        <pt x="64" y="74" on="0"/>
        <pt x="26" y="151" on="0"/>
        <pt x="26" y="198" on="1"/>
        <pt x="26" y="260" on="0"/>
        <pt x="107" y="363" on="0"/>
        <pt x="179" y="396" on="1"/>
        <pt x="155" y="433" on="0"/>
        <pt x="134" y="504" on="0"/>
        <pt x="134" y="538" on="1"/>
        <pt x="134" y="578" on="0"/>
        <pt x="169" y="653" on="0"/>
        <pt x="230" y="711" on="0"/>
        <pt x="315" y="745" on="0"/>
        <pt x="366" y="745" on="1"/>
        <pt x="416" y="745" on="0"/>
        <pt x="498" y="713" on="0"/>
        <pt x="555" y="659" on="0"/>
        <pt x="586" y="590" on="0"/>
        <pt x="586" y="554" on="1"/>
        <pt x="586" y="492" on="0"/>
        <pt x="494" y="379" on="0"/>
      </contour>
      <contour>
        <pt x="386" y="154" on="1"/>
        <pt x="348" y="190" on="0"/>
        <pt x="280" y="260" on="0"/>
        <pt x="251" y="295" on="1"/>
        <pt x="230" y="283" on="0"/>
        <pt x="205" y="240" on="0"/>
        <pt x="205" y="215" on="1"/>
        <pt x="205" y="177" on="0"/>
        <pt x="254" y="129" on="0"/>
        <pt x="299" y="129" on="1"/>
        <pt x="338" y="129" on="0"/>
      </contour>
      <contour>
        <pt x="329" y="441" on="1"/>
        <pt x="387" y="463" on="0"/>
        <pt x="429" y="519" on="0"/>
        <pt x="429" y="545" on="1"/>
        <pt x="429" y="573" on="0"/>
        <pt x="397" y="610" on="0"/>
        <pt x="368" y="610" on="1"/>
        <pt x="339" y="610" on="0"/>
        <pt x="302" y="564" on="0"/>
        <pt x="302" y="528" on="1"/>
        <pt x="302" y="507" on="0"/>
        <pt x="314" y="464" on="0"/>
      </contour>
    </TTGlyph>
    <TTGlyph name="aogonek" xMin="26" yMin="-214" xMax="448" yMax="442">
      <contour>
        <pt x="448" y="-167" on="1"/>
        <pt x="428" y="-186" on="0"/>
        <pt x="371" y="-214" on="0"/>
        <pt x="331" y="-214" on="1"/>
        <pt x="285" y="-214" on="0"/>
        <pt x="233" y="-163" on="0"/>
        <pt x="233" y="-120" on="1"/>
        <pt x="233" y="-85" on="0"/>
        <pt x="267" y="-27" on="0"/>
        <pt x="293" y="2" on="1"/>
        <pt x="293" y="37" on="1"/>
        <pt x="270" y="15" on="0"/>
        <pt x="217" y="-8" on="0"/>
        <pt x="175" y="-8" on="1"/>
        <pt x="143" y="-8" on="0"/>
        <pt x="89" y="10" on="0"/>
        <pt x="49" y="44" on="0"/>
        <pt x="26" y="95" on="0"/>
        <pt x="26" y="127" on="1"/>
        <pt x="26" y="155" on="0"/>
        <pt x="47" y="204" on="0"/>
        <pt x="88" y="240" on="0"/>
        <pt x="147" y="261" on="0"/>
        <pt x="185" y="261" on="1"/>
        <pt x="220" y="261" on="0"/>
        <pt x="267" y="247" on="0"/>
        <pt x="289" y="235" on="1"/>
        <pt x="289" y="246" on="1"/>
        <pt x="289" y="293" on="0"/>
        <pt x="237" y="332" on="0"/>
        <pt x="192" y="332" on="1"/>
        <pt x="170" y="332" on="0"/>
        <pt x="119" y="324" on="0"/>
        <pt x="90" y="317" on="1"/>
        <pt x="77" y="420" on="1"/>
        <pt x="107" y="429" on="0"/>
        <pt x="186" y="442" on="0"/>
        <pt x="218" y="442" on="1"/>
        <pt x="330" y="442" on="0"/>
        <pt x="436" y="341" on="0"/>
        <pt x="436" y="243" on="1"/>
        <pt x="436" y="0" on="1"/>
        <pt x="379" y="0" on="1"/>
        <pt x="358" y="-26" on="0"/>
        <pt x="333" y="-71" on="0"/>
        <pt x="333" y="-93" on="1"/>
        <pt x="333" y="-126" on="0"/>
        <pt x="367" y="-126" on="1"/>
        <pt x="381" y="-126" on="0"/>
        <pt x="402" y="-114" on="0"/>
        <pt x="413" y="-106" on="1"/>
      </contour>
      <contour>
        <pt x="289" y="156" on="1"/>
        <pt x="275" y="168" on="0"/>
        <pt x="248" y="179" on="0"/>
        <pt x="227" y="179" on="1"/>
        <pt x="202" y="179" on="0"/>
        <pt x="165" y="151" on="0"/>
        <pt x="165" y="128" on="1"/>
        <pt x="165" y="104" on="0"/>
        <pt x="196" y="76" on="0"/>
        <pt x="222" y="76" on="1"/>
        <pt x="247" y="76" on="0"/>
        <pt x="278" y="92" on="0"/>
        <pt x="289" y="107" on="1"/>
      </contour>
    </TTGlyph>
    <TTGlyph name="aring" xMin="26" yMin="-8" xMax="436" yMax="739">
      <component glyphName="a" x="0" y="0" flags="0x204"/>
      <component glyphName="ring" x="-1" y="0" flags="0x4"/>
    </TTGlyph>
    <TTGlyph name="aringacute" xMin="26" yMin="-8" xMax="436" yMax="988">
      <component glyphName="a" x="0" y="0" flags="0x204"/>
      <component glyphName="ring" x="-8" y="0" flags="0x4"/>
      <component glyphName="acute" x="42" y="296" flags="0x4"/>
    </TTGlyph>
    <TTGlyph name="arrowleft" xMin="32" yMin="3" xMax="655" yMax="490">
      <contour>
        <pt x="236" y="189" on="1"/>
        <pt x="338" y="90" on="1"/>
        <pt x="254" y="3" on="1"/>
        <pt x="32" y="239" on="1"/>
        <pt x="32" y="254" on="1"/>
        <pt x="254" y="490" on="1"/>
        <pt x="338" y="403" on="1"/>
        <pt x="236" y="304" on="1"/>
        <pt x="655" y="304" on="1"/>
        <pt x="655" y="189" on="1"/>
      </contour>
    </TTGlyph>
    <TTGlyph name="arrowleft.cap" xMin="32" yMin="127" xMax="655" yMax="614">
      <component glyphName="arrowleft" x="0" y="124" flags="0x204"/>
    </TTGlyph>
    <TTGlyph name="arrowright" xMin="50" yMin="3" xMax="673" yMax="490">
      <contour>
        <pt x="469" y="304" on="1"/>
        <pt x="367" y="403" on="1"/>
        <pt x="451" y="490" on="1"/>
        <pt x="673" y="254" on="1"/>
        <pt x="673" y="239" on="1"/>
        <pt x="451" y="3" on="1"/>
        <pt x="367" y="90" on="1"/>
        <pt x="469" y="189" on="1"/>
        <pt x="50" y="189" on="1"/>
        <pt x="50" y="304" on="1"/>
      </contour>
    </TTGlyph>
    <TTGlyph name="arrowright.cap" xMin="50" yMin="127" xMax="673" yMax="614">
      <component glyphName="arrowright" x="0" y="124" flags="0x204"/>
    </TTGlyph>
    <TTGlyph name="asciicircum" xMin="62" yMin="497" xMax="444" yMax="691">
      <contour>
        <pt x="313" y="497" on="1"/>
        <pt x="250" y="580" on="1"/>
        <pt x="187" y="497" on="1"/>
        <pt x="62" y="497" on="1"/>
        <pt x="225" y="691" on="1"/>
        <pt x="286" y="691" on="1"/>
        <pt x="444" y="497" on="1"/>
      </contour>
    </TTGlyph>
    <TTGlyph name="asciitilde" xMin="64" yMin="293" xMax="445" yMax="442">
      <contour>
        <pt x="445" y="358" on="1"/>
        <pt x="422" y="332" on="0"/>
        <pt x="357" y="294" on="0"/>
        <pt x="325" y="294" on="1"/>
        <pt x="301" y="294" on="0"/>
        <pt x="268" y="305" on="0"/>
        <pt x="251" y="314" on="1"/>
        <pt x="231" y="325" on="0"/>
        <pt x="204" y="333" on="0"/>
        <pt x="186" y="333" on="1"/>
        <pt x="143" y="333" on="0"/>
        <pt x="109" y="293" on="1"/>
        <pt x="64" y="375" on="1"/>
        <pt x="87" y="401" on="0"/>
        <pt x="152" y="439" on="0"/>
        <pt x="184" y="439" on="1"/>
        <pt x="207" y="439" on="0"/>
        <pt x="241" y="429" on="0"/>
        <pt x="258" y="419" on="1"/>
        <pt x="276" y="409" on="0"/>
        <pt x="302" y="402" on="0"/>
        <pt x="318" y="402" on="1"/>
        <pt x="359" y="402" on="0"/>
        <pt x="395" y="442" on="1"/>
      </contour>
    </TTGlyph>
    <TTGlyph name="asterisk" xMin="37" yMin="416" xMax="369" yMax="732">
      <contour>
        <pt x="262" y="553" on="1"/>
        <pt x="335" y="471" on="1"/>
        <pt x="259" y="416" on="1"/>
        <pt x="203" y="510" on="1"/>
        <pt x="147" y="416" on="1"/>
        <pt x="71" y="471" on="1"/>
        <pt x="144" y="553" on="1"/>
        <pt x="37" y="577" on="1"/>
        <pt x="66" y="666" on="1"/>
        <pt x="166" y="623" on="1"/>
        <pt x="156" y="732" on="1"/>
        <pt x="250" y="732" on="1"/>
        <pt x="240" y="623" on="1"/>
        <pt x="340" y="666" on="1"/>
        <pt x="369" y="577" on="1"/>
      </contour>
    </TTGlyph>
    <TTGlyph name="at" xMin="50" yMin="-12" xMax="646" yMax="598">
      <contour>
        <pt x="646" y="316" on="1"/>
        <pt x="646" y="269" on="0"/>
        <pt x="612" y="191" on="0"/>
        <pt x="579" y="166" on="1"/>
        <pt x="564" y="155" on="0"/>
        <pt x="528" y="145" on="0"/>
        <pt x="510" y="145" on="1"/>
        <pt x="484" y="145" on="0"/>
        <pt x="438" y="170" on="0"/>
        <pt x="426" y="195" on="1"/>
        <pt x="386" y="152" on="0"/>
        <pt x="323" y="152" on="1"/>
        <pt x="285" y="152" on="0"/>
        <pt x="233" y="194" on="0"/>
        <pt x="233" y="233" on="1"/>
        <pt x="233" y="268" on="0"/>
        <pt x="283" y="314" on="0"/>
        <pt x="329" y="314" on="1"/>
        <pt x="351" y="314" on="0"/>
        <pt x="379" y="306" on="0"/>
        <pt x="392" y="299" on="1"/>
        <pt x="392" y="306" on="1"/>
        <pt x="392" y="334" on="0"/>
        <pt x="361" y="357" on="0"/>
        <pt x="334" y="357" on="1"/>
        <pt x="306" y="357" on="0"/>
        <pt x="272" y="348" on="1"/>
        <pt x="264" y="410" on="1"/>
        <pt x="282" y="416" on="0"/>
        <pt x="330" y="424" on="0"/>
        <pt x="349" y="424" on="1"/>
        <pt x="416" y="424" on="0"/>
        <pt x="468" y="363" on="0"/>
        <pt x="468" y="304" on="1"/>
        <pt x="468" y="240" on="1"/>
        <pt x="468" y="214" on="0"/>
        <pt x="497" y="193" on="0"/>
        <pt x="514" y="193" on="1"/>
        <pt x="534" y="193" on="0"/>
        <pt x="548" y="204" on="1"/>
        <pt x="566" y="218" on="0"/>
        <pt x="587" y="274" on="0"/>
        <pt x="587" y="309" on="1"/>
        <pt x="587" y="346" on="0"/>
        <pt x="561" y="428" on="0"/>
        <pt x="504" y="498" on="0"/>
        <pt x="413" y="544" on="0"/>
        <pt x="349" y="544" on="1"/>
        <pt x="301" y="544" on="0"/>
        <pt x="214" y="504" on="0"/>
        <pt x="149" y="435" on="0"/>
        <pt x="110" y="344" on="0"/>
        <pt x="110" y="293" on="1"/>
        <pt x="110" y="242" on="0"/>
        <pt x="147" y="151" on="0"/>
        <pt x="216" y="82" on="0"/>
        <pt x="316" y="42" on="0"/>
        <pt x="380" y="42" on="1"/>
        <pt x="407" y="42" on="0"/>
        <pt x="470" y="55" on="0"/>
        <pt x="499" y="65" on="1"/>
        <pt x="513" y="12" on="1"/>
        <pt x="478" y="1" on="0"/>
        <pt x="406" y="-12" on="0"/>
        <pt x="377" y="-12" on="1"/>
        <pt x="302" y="-12" on="0"/>
        <pt x="182" y="37" on="0"/>
        <pt x="96" y="120" on="0"/>
        <pt x="50" y="231" on="0"/>
        <pt x="50" y="293" on="1"/>
        <pt x="50" y="355" on="0"/>
        <pt x="98" y="466" on="0"/>
        <pt x="180" y="549" on="0"/>
        <pt x="289" y="598" on="0"/>
        <pt x="349" y="598" on="1"/>
        <pt x="422" y="598" on="0"/>
        <pt x="534" y="545" on="0"/>
        <pt x="608" y="463" on="0"/>
        <pt x="646" y="363" on="0"/>
      </contour>
      <contour>
        <pt x="392" y="251" on="1"/>
        <pt x="384" y="259" on="0"/>
        <pt x="368" y="265" on="0"/>
        <pt x="355" y="265" on="1"/>
        <pt x="339" y="265" on="0"/>
        <pt x="317" y="248" on="0"/>
        <pt x="317" y="234" on="1"/>
        <pt x="317" y="219" on="0"/>
        <pt x="336" y="203" on="0"/>
        <pt x="352" y="203" on="1"/>
        <pt x="378" y="203" on="0"/>
        <pt x="392" y="221" on="1"/>
      </contour>
    </TTGlyph>
    <TTGlyph name="at.cap" xMin="57" yMin="-12" xMax="800" yMax="746">
      <contour>
        <pt x="800" y="396" on="1"/>
        <pt x="800" y="337" on="0"/>
        <pt x="759" y="239" on="0"/>
        <pt x="717" y="208" on="1"/>
        <pt x="699" y="194" on="0"/>
        <pt x="655" y="183" on="0"/>
        <pt x="633" y="183" on="1"/>
        <pt x="619" y="183" on="0"/>
        <pt x="585" y="189" on="0"/>
        <pt x="555" y="205" on="0"/>
        <pt x="530" y="231" on="0"/>
        <pt x="525" y="251" on="1"/>
        <pt x="500" y="218" on="0"/>
        <pt x="439" y="191" on="0"/>
        <pt x="410" y="191" on="1"/>
        <pt x="358" y="191" on="0"/>
        <pt x="292" y="243" on="0"/>
        <pt x="292" y="290" on="1"/>
        <pt x="292" y="335" on="0"/>
        <pt x="352" y="392" on="0"/>
        <pt x="411" y="392" on="1"/>
        <pt x="438" y="392" on="0"/>
        <pt x="474" y="382" on="0"/>
        <pt x="491" y="375" on="1"/>
        <pt x="491" y="380" on="1"/>
        <pt x="491" y="414" on="0"/>
        <pt x="457" y="446" on="0"/>
        <pt x="414" y="446" on="1"/>
        <pt x="382" y="446" on="0"/>
        <pt x="339" y="434" on="1"/>
        <pt x="329" y="514" on="1"/>
        <pt x="352" y="519" on="0"/>
        <pt x="410" y="528" on="0"/>
        <pt x="433" y="528" on="1"/>
        <pt x="476" y="528" on="0"/>
        <pt x="532" y="508" on="0"/>
        <pt x="566" y="471" on="0"/>
        <pt x="580" y="416" on="0"/>
        <pt x="580" y="380" on="1"/>
        <pt x="580" y="300" on="1"/>
        <pt x="580" y="268" on="0"/>
        <pt x="615" y="242" on="0"/>
        <pt x="638" y="242" on="1"/>
        <pt x="649" y="242" on="0"/>
        <pt x="674" y="249" on="0"/>
        <pt x="682" y="257" on="1"/>
        <pt x="704" y="273" on="0"/>
        <pt x="731" y="344" on="0"/>
        <pt x="731" y="385" on="1"/>
        <pt x="731" y="433" on="0"/>
        <pt x="699" y="538" on="0"/>
        <pt x="628" y="626" on="0"/>
        <pt x="514" y="683" on="0"/>
        <pt x="432" y="683" on="1"/>
        <pt x="370" y="683" on="0"/>
        <pt x="260" y="632" on="0"/>
        <pt x="176" y="545" on="0"/>
        <pt x="127" y="430" on="0"/>
        <pt x="127" y="365" on="1"/>
        <pt x="127" y="299" on="0"/>
        <pt x="173" y="185" on="0"/>
        <pt x="260" y="99" on="0"/>
        <pt x="387" y="50" on="0"/>
        <pt x="468" y="50" on="1"/>
        <pt x="503" y="50" on="0"/>
        <pt x="582" y="66" on="0"/>
        <pt x="616" y="79" on="1"/>
        <pt x="634" y="17" on="1"/>
        <pt x="589" y="4" on="0"/>
        <pt x="501" y="-12" on="0"/>
        <pt x="467" y="-12" on="1"/>
        <pt x="374" y="-12" on="0"/>
        <pt x="222" y="48" on="0"/>
        <pt x="115" y="151" on="0"/>
        <pt x="57" y="288" on="0"/>
        <pt x="57" y="365" on="1"/>
        <pt x="57" y="441" on="0"/>
        <pt x="117" y="580" on="0"/>
        <pt x="220" y="684" on="0"/>
        <pt x="356" y="746" on="0"/>
        <pt x="432" y="746" on="1"/>
        <pt x="522" y="746" on="0"/>
        <pt x="660" y="682" on="0"/>
        <pt x="753" y="580" on="0"/>
        <pt x="800" y="456" on="0"/>
      </contour>
      <contour>
        <pt x="491" y="313" on="1"/>
        <pt x="481" y="322" on="0"/>
        <pt x="459" y="332" on="0"/>
        <pt x="445" y="332" on="1"/>
        <pt x="425" y="332" on="0"/>
        <pt x="397" y="310" on="0"/>
        <pt x="397" y="294" on="1"/>
        <pt x="397" y="278" on="0"/>
        <pt x="419" y="258" on="0"/>
        <pt x="439" y="258" on="1"/>
        <pt x="456" y="258" on="0"/>
        <pt x="483" y="278" on="0"/>
        <pt x="491" y="291" on="1"/>
      </contour>
    </TTGlyph>
    <TTGlyph name="atilde" xMin="26" yMin="-8" xMax="443" yMax="647">
      <component glyphName="a" x="0" y="0" flags="0x204"/>
      <component glyphName="tilde" x="-2" y="0" flags="0x4"/>
    </TTGlyph>
    <TTGlyph name="b" xMin="57" yMin="-8" xMax="520" yMax="733">
      <contour>
        <pt x="520" y="224" on="1"/>
        <pt x="520" y="178" on="0"/>
        <pt x="488" y="94" on="0"/>
        <pt x="434" y="30" on="0"/>
        <pt x="361" y="-8" on="0"/>
        <pt x="320" y="-8" on="1"/>
        <pt x="252" y="-8" on="0"/>
        <pt x="201" y="34" on="1"/>
        <pt x="201" y="0" on="1"/>
        <pt x="57" y="0" on="1"/>
        <pt x="57" y="733" on="1"/>
        <pt x="205" y="733" on="1"/>
        <pt x="205" y="396" on="1"/>
        <pt x="229" y="419" on="0"/>
        <pt x="285" y="442" on="0"/>
        <pt x="325" y="442" on="1"/>
        <pt x="367" y="442" on="0"/>
        <pt x="438" y="409" on="0"/>
        <pt x="491" y="351" on="0"/>
        <pt x="520" y="271" on="0"/>
      </contour>
      <contour>
        <pt x="372" y="222" on="1"/>
        <pt x="372" y="271" on="0"/>
        <pt x="333" y="327" on="0"/>
        <pt x="286" y="327" on="1"/>
        <pt x="263" y="327" on="0"/>
        <pt x="219" y="307" on="0"/>
        <pt x="205" y="291" on="1"/>
        <pt x="205" y="148" on="1"/>
        <pt x="220" y="127" on="0"/>
        <pt x="262" y="107" on="0"/>
        <pt x="284" y="107" on="1"/>
        <pt x="329" y="107" on="0"/>
        <pt x="372" y="168" on="0"/>
      </contour>
    </TTGlyph>
    <TTGlyph name="backslash" xMin="0" yMin="-216" xMax="346" yMax="733">
      <contour>
        <pt x="238" y="-216" on="1"/>
        <pt x="0" y="733" on="1"/>
        <pt x="108" y="733" on="1"/>
        <pt x="346" y="-216" on="1"/>
      </contour>
    </TTGlyph>
    <TTGlyph name="backslash.cap" xMin="14" yMin="-111" xMax="360" yMax="838">
      <component glyphName="backslash" x="14" y="105" flags="0x204"/>
    </TTGlyph>
    <TTGlyph name="bar" xMin="90" yMin="-216" xMax="195" yMax="733">
      <contour>
        <pt x="90" y="-216" on="1"/>
        <pt x="90" y="733" on="1"/>
        <pt x="195" y="733" on="1"/>
        <pt x="195" y="-216" on="1"/>
      </contour>
    </TTGlyph>
    <TTGlyph name="bar.cap" xMin="90" yMin="-111" xMax="195" yMax="838">
      <component glyphName="bar" x="0" y="105" flags="0x204"/>
    </TTGlyph>
    <TTGlyph name="braceleft" xMin="25" yMin="-223" xMax="319" yMax="740">
      <contour>
        <pt x="319" y="-223" on="1"/>
        <pt x="216" y="-223" on="0"/>
        <pt x="110" y="-119" on="0"/>
        <pt x="110" y="-31" on="1"/>
        <pt x="110" y="143" on="1"/>
        <pt x="110" y="175" on="0"/>
        <pt x="85" y="208" on="0"/>
        <pt x="48" y="208" on="1"/>
        <pt x="25" y="208" on="1"/>
        <pt x="25" y="308" on="1"/>
        <pt x="48" y="308" on="1"/>
        <pt x="85" y="308" on="0"/>
        <pt x="110" y="341" on="0"/>
        <pt x="110" y="373" on="1"/>
        <pt x="110" y="547" on="1"/>
        <pt x="110" y="635" on="0"/>
        <pt x="216" y="740" on="0"/>
        <pt x="319" y="740" on="1"/>
        <pt x="319" y="624" on="1"/>
        <pt x="272" y="624" on="0"/>
        <pt x="231" y="580" on="0"/>
        <pt x="231" y="523" on="1"/>
        <pt x="231" y="371" on="1"/>
        <pt x="231" y="324" on="0"/>
        <pt x="197" y="277" on="0"/>
        <pt x="154" y="258" on="1"/>
        <pt x="175" y="248" on="0"/>
        <pt x="205" y="228" on="0"/>
        <pt x="223" y="203" on="0"/>
        <pt x="231" y="169" on="0"/>
        <pt x="231" y="145" on="1"/>
        <pt x="231" y="-7" on="1"/>
        <pt x="231" y="-64" on="0"/>
        <pt x="272" y="-107" on="0"/>
        <pt x="319" y="-107" on="1"/>
      </contour>
    </TTGlyph>
    <TTGlyph name="braceleft.cap" xMin="25" yMin="-118" xMax="319" yMax="845">
      <component glyphName="braceleft" x="0" y="105" flags="0x204"/>
    </TTGlyph>
    <TTGlyph name="braceright" xMin="6" yMin="-223" xMax="300" yMax="740">
      <contour>
        <pt x="277" y="208" on="1"/>
        <pt x="240" y="208" on="0"/>
        <pt x="215" y="175" on="0"/>
        <pt x="215" y="143" on="1"/>
        <pt x="215" y="-31" on="1"/>
        <pt x="215" y="-119" on="0"/>
        <pt x="109" y="-223" on="0"/>
        <pt x="6" y="-223" on="1"/>
        <pt x="6" y="-107" on="1"/>
        <pt x="53" y="-107" on="0"/>
        <pt x="94" y="-64" on="0"/>
        <pt x="94" y="-7" on="1"/>
        <pt x="94" y="145" on="1"/>
        <pt x="94" y="169" on="0"/>
        <pt x="102" y="203" on="0"/>
        <pt x="120" y="228" on="0"/>
        <pt x="150" y="248" on="0"/>
        <pt x="171" y="258" on="1"/>
        <pt x="128" y="277" on="0"/>
        <pt x="94" y="324" on="0"/>
        <pt x="94" y="371" on="1"/>
        <pt x="94" y="523" on="1"/>
        <pt x="94" y="580" on="0"/>
        <pt x="53" y="624" on="0"/>
        <pt x="6" y="624" on="1"/>
        <pt x="6" y="740" on="1"/>
        <pt x="109" y="740" on="0"/>
        <pt x="215" y="635" on="0"/>
        <pt x="215" y="547" on="1"/>
        <pt x="215" y="373" on="1"/>
        <pt x="215" y="341" on="0"/>
        <pt x="240" y="308" on="0"/>
        <pt x="277" y="308" on="1"/>
        <pt x="300" y="308" on="1"/>
        <pt x="300" y="208" on="1"/>
      </contour>
    </TTGlyph>
    <TTGlyph name="braceright.cap" xMin="6" yMin="-118" xMax="300" yMax="845">
      <component glyphName="braceright" x="0" y="105" flags="0x204"/>
    </TTGlyph>
    <TTGlyph name="bracketleft" xMin="77" yMin="-216" xMax="326" yMax="733">
      <contour>
        <pt x="77" y="-216" on="1"/>
        <pt x="77" y="733" on="1"/>
        <pt x="326" y="733" on="1"/>
        <pt x="326" y="623" on="1"/>
        <pt x="196" y="623" on="1"/>
        <pt x="196" y="-106" on="1"/>
        <pt x="326" y="-106" on="1"/>
        <pt x="326" y="-216" on="1"/>
      </contour>
    </TTGlyph>
    <TTGlyph name="bracketleft.cap" xMin="77" yMin="-111" xMax="326" yMax="838">
      <component glyphName="bracketleft" x="0" y="105" flags="0x204"/>
    </TTGlyph>
    <TTGlyph name="bracketright" xMin="21" yMin="-216" xMax="270" yMax="733">
      <contour>
        <pt x="21" y="-216" on="1"/>
        <pt x="21" y="-106" on="1"/>
        <pt x="151" y="-106" on="1"/>
        <pt x="151" y="623" on="1"/>
        <pt x="21" y="623" on="1"/>
        <pt x="21" y="733" on="1"/>
        <pt x="270" y="733" on="1"/>
        <pt x="270" y="-216" on="1"/>
      </contour>
    </TTGlyph>
    <TTGlyph name="bracketright.cap" xMin="21" yMin="-111" xMax="270" yMax="838">
      <component glyphName="bracketright" x="0" y="105" flags="0x204"/>
    </TTGlyph>
    <TTGlyph name="breve" xMin="86" yMin="494" xMax="414" yMax="661">
      <contour>
        <pt x="414" y="652" on="1"/>
        <pt x="414" y="620" on="0"/>
        <pt x="392" y="562" on="0"/>
        <pt x="350" y="519" on="0"/>
        <pt x="289" y="494" on="0"/>
        <pt x="250" y="494" on="1"/>
        <pt x="211" y="494" on="0"/>
        <pt x="150" y="519" on="0"/>
        <pt x="108" y="562" on="0"/>
        <pt x="86" y="620" on="0"/>
        <pt x="86" y="652" on="1"/>
        <pt x="190" y="661" on="1"/>
        <pt x="190" y="625" on="0"/>
        <pt x="221" y="585" on="0"/>
        <pt x="250" y="585" on="1"/>
        <pt x="279" y="585" on="0"/>
        <pt x="310" y="625" on="0"/>
        <pt x="310" y="661" on="1"/>
      </contour>
    </TTGlyph>
    <TTGlyph name="bullet" xMin="54" yMin="176" xMax="428" yMax="557">
      <contour>
        <pt x="428" y="366" on="1"/>
        <pt x="428" y="327" on="0"/>
        <pt x="399" y="257" on="0"/>
        <pt x="348" y="206" on="0"/>
        <pt x="280" y="176" on="0"/>
        <pt x="241" y="176" on="1"/>
        <pt x="202" y="176" on="0"/>
        <pt x="134" y="206" on="0"/>
        <pt x="83" y="257" on="0"/>
        <pt x="54" y="327" on="0"/>
        <pt x="54" y="366" on="1"/>
        <pt x="54" y="406" on="0"/>
        <pt x="83" y="475" on="0"/>
        <pt x="134" y="527" on="0"/>
        <pt x="202" y="557" on="0"/>
        <pt x="241" y="557" on="1"/>
        <pt x="280" y="557" on="0"/>
        <pt x="348" y="527" on="0"/>
        <pt x="399" y="475" on="0"/>
        <pt x="428" y="406" on="0"/>
      </contour>
    </TTGlyph>
    <TTGlyph name="c" xMin="32" yMin="-8" xMax="430" yMax="442">
      <contour>
        <pt x="430" y="35" on="1"/>
        <pt x="401" y="17" on="0"/>
        <pt x="326" y="-8" on="0"/>
        <pt x="287" y="-8" on="1"/>
        <pt x="223" y="-8" on="0"/>
        <pt x="128" y="28" on="0"/>
        <pt x="64" y="89" on="0"/>
        <pt x="32" y="170" on="0"/>
        <pt x="32" y="215" on="1"/>
        <pt x="32" y="260" on="0"/>
        <pt x="64" y="343" on="0"/>
        <pt x="128" y="405" on="0"/>
        <pt x="223" y="442" on="0"/>
        <pt x="287" y="442" on="1"/>
        <pt x="326" y="442" on="0"/>
        <pt x="401" y="417" on="0"/>
        <pt x="430" y="399" on="1"/>
        <pt x="387" y="300" on="1"/>
        <pt x="364" y="312" on="0"/>
        <pt x="317" y="325" on="0"/>
        <pt x="290" y="325" on="1"/>
        <pt x="245" y="325" on="0"/>
        <pt x="179" y="274" on="0"/>
        <pt x="179" y="217" on="1"/>
        <pt x="179" y="165" on="0"/>
        <pt x="246" y="109" on="0"/>
        <pt x="296" y="109" on="1"/>
        <pt x="348" y="109" on="0"/>
        <pt x="392" y="134" on="1"/>
      </contour>
    </TTGlyph>
    <TTGlyph name="cacute" xMin="32" yMin="-8" xMax="435" yMax="692">
      <component glyphName="c" x="0" y="0" flags="0x204"/>
      <component glyphName="acute" x="59" y="0" flags="0x4"/>
    </TTGlyph>
    <TTGlyph name="caron" xMin="55" yMin="495" xMax="437" yMax="689">
      <contour>
        <pt x="274" y="495" on="1"/>
        <pt x="213" y="495" on="1"/>
        <pt x="55" y="689" on="1"/>
        <pt x="187" y="689" on="1"/>
        <pt x="250" y="606" on="1"/>
        <pt x="312" y="689" on="1"/>
        <pt x="437" y="689" on="1"/>
      </contour>
    </TTGlyph>
    <TTGlyph name="caron.alt" xMin="29" yMin="520" xMax="196" yMax="740">
      <contour>
        <pt x="196" y="718" on="1"/>
        <pt x="196" y="649" on="0"/>
        <pt x="139" y="551" on="0"/>
        <pt x="94" y="520" on="1"/>
        <pt x="29" y="558" on="1"/>
        <pt x="58" y="591" on="0"/>
        <pt x="89" y="678" on="0"/>
        <pt x="91" y="740" on="1"/>
      </contour>
    </TTGlyph>
    <TTGlyph name="ccaron" xMin="32" yMin="-8" xMax="442" yMax="689">
      <component glyphName="c" x="0" y="0" flags="0x204"/>
      <component glyphName="caron" x="5" y="0" flags="0x4"/>
    </TTGlyph>
    <TTGlyph name="ccedilla" xMin="32" yMin="-261" xMax="430" yMax="442">
      <contour>
        <pt x="385" y="-148" on="1"/>
        <pt x="385" y="-171" on="0"/>
        <pt x="369" y="-211" on="0"/>
        <pt x="336" y="-243" on="0"/>
        <pt x="287" y="-261" on="0"/>
        <pt x="255" y="-261" on="1"/>
        <pt x="223" y="-261" on="0"/>
        <pt x="158" y="-239" on="0"/>
        <pt x="124" y="-219" on="1"/>
        <pt x="156" y="-143" on="1"/>
        <pt x="185" y="-162" on="0"/>
        <pt x="236" y="-181" on="0"/>
        <pt x="261" y="-181" on="1"/>
        <pt x="295" y="-181" on="0"/>
        <pt x="295" y="-150" on="1"/>
        <pt x="295" y="-136" on="0"/>
        <pt x="254" y="-111" on="0"/>
        <pt x="196" y="-111" on="1"/>
        <pt x="191" y="-101" on="1"/>
        <pt x="217" y="-2" on="1"/>
        <pt x="170" y="7" on="0"/>
        <pt x="101" y="48" on="0"/>
        <pt x="55" y="105" on="0"/>
        <pt x="32" y="176" on="0"/>
        <pt x="32" y="215" on="1"/>
        <pt x="32" y="260" on="0"/>
        <pt x="64" y="343" on="0"/>
        <pt x="128" y="405" on="0"/>
        <pt x="223" y="442" on="0"/>
        <pt x="287" y="442" on="1"/>
        <pt x="326" y="442" on="0"/>
        <pt x="401" y="417" on="0"/>
        <pt x="430" y="399" on="1"/>
        <pt x="387" y="300" on="1"/>
        <pt x="364" y="312" on="0"/>
        <pt x="317" y="325" on="0"/>
        <pt x="290" y="325" on="1"/>
        <pt x="245" y="325" on="0"/>
        <pt x="179" y="274" on="0"/>
        <pt x="179" y="217" on="1"/>
        <pt x="179" y="165" on="0"/>
        <pt x="246" y="109" on="0"/>
        <pt x="296" y="109" on="1"/>
        <pt x="348" y="109" on="0"/>
        <pt x="392" y="134" on="1"/>
        <pt x="430" y="35" on="1"/>
        <pt x="401" y="17" on="0"/>
        <pt x="326" y="-8" on="0"/>
        <pt x="287" y="-8" on="1"/>
        <pt x="275" y="-8" on="1"/>
        <pt x="268" y="-41" on="1"/>
        <pt x="333" y="-56" on="0"/>
        <pt x="385" y="-111" on="0"/>
      </contour>
    </TTGlyph>
    <TTGlyph name="cdotaccent" xMin="32" yMin="-8" xMax="430" yMax="645">
      <component glyphName="c" x="0" y="0" flags="0x204"/>
      <component glyphName="dotaccent" x="31" y="0" flags="0x4"/>
    </TTGlyph>
    <TTGlyph name="cedilla" xMin="114" yMin="-271" xMax="375" yMax="20">
      <contour>
        <pt x="375" y="-158" on="1"/>
        <pt x="375" y="-181" on="0"/>
        <pt x="359" y="-221" on="0"/>
        <pt x="326" y="-253" on="0"/>
        <pt x="277" y="-271" on="0"/>
        <pt x="245" y="-271" on="1"/>
        <pt x="213" y="-271" on="0"/>
        <pt x="148" y="-249" on="0"/>
        <pt x="114" y="-229" on="1"/>
        <pt x="146" y="-153" on="1"/>
        <pt x="175" y="-172" on="0"/>
        <pt x="226" y="-191" on="0"/>
        <pt x="251" y="-191" on="1"/>
        <pt x="285" y="-191" on="0"/>
        <pt x="285" y="-160" on="1"/>
        <pt x="285" y="-146" on="0"/>
        <pt x="244" y="-121" on="0"/>
        <pt x="186" y="-121" on="1"/>
        <pt x="181" y="-111" on="1"/>
        <pt x="216" y="20" on="1"/>
        <pt x="271" y="6" on="1"/>
        <pt x="258" y="-51" on="1"/>
        <pt x="323" y="-66" on="0"/>
        <pt x="375" y="-121" on="0"/>
      </contour>
    </TTGlyph>
    <TTGlyph name="cent" xMin="32" yMin="-88" xMax="430" yMax="520">
      <contour>
        <pt x="223" y="-2" on="1"/>
        <pt x="181" y="5" on="0"/>
        <pt x="111" y="40" on="0"/>
        <pt x="60" y="96" on="0"/>
        <pt x="32" y="170" on="0"/>
        <pt x="32" y="215" on="1"/>
        <pt x="32" y="265" on="0"/>
        <pt x="66" y="346" on="0"/>
        <pt x="128" y="404" on="0"/>
        <pt x="212" y="438" on="0"/>
        <pt x="262" y="441" on="1"/>
        <pt x="269" y="520" on="1"/>
        <pt x="340" y="520" on="1"/>
        <pt x="333" y="437" on="1"/>
        <pt x="362" y="432" on="0"/>
        <pt x="409" y="412" on="0"/>
        <pt x="430" y="399" on="1"/>
        <pt x="388" y="296" on="1"/>
        <pt x="372" y="305" on="0"/>
        <pt x="340" y="319" on="0"/>
        <pt x="323" y="323" on="1"/>
        <pt x="304" y="107" on="1"/>
        <pt x="327" y="109" on="0"/>
        <pt x="371" y="125" on="0"/>
        <pt x="391" y="136" on="1"/>
        <pt x="430" y="35" on="1"/>
        <pt x="398" y="15" on="0"/>
        <pt x="335" y="-5" on="0"/>
        <pt x="294" y="-7" on="1"/>
        <pt x="287" y="-88" on="1"/>
        <pt x="216" y="-88" on="1"/>
      </contour>
      <contour>
        <pt x="174" y="217" on="1"/>
        <pt x="174" y="181" on="0"/>
        <pt x="205" y="130" on="0"/>
        <pt x="234" y="118" on="1"/>
        <pt x="252" y="324" on="1"/>
        <pt x="217" y="316" on="0"/>
        <pt x="174" y="265" on="0"/>
      </contour>
    </TTGlyph>
    <TTGlyph name="cent.lin" xMin="32" yMin="67" xMax="430" yMax="675">
      <component glyphName="cent" x="0" y="155" flags="0x4"/>
    </TTGlyph>
    <TTGlyph name="circumflex" xMin="62" yMin="497" xMax="444" yMax="691">
      <contour>
        <pt x="313" y="497" on="1"/>
        <pt x="250" y="580" on="1"/>
        <pt x="187" y="497" on="1"/>
        <pt x="62" y="497" on="1"/>
        <pt x="225" y="691" on="1"/>
        <pt x="286" y="691" on="1"/>
        <pt x="444" y="497" on="1"/>
      </contour>
    </TTGlyph>
    <TTGlyph name="colon" xMin="59" yMin="-8" xMax="216" yMax="402">
      <contour>
        <pt x="59" y="71" on="1"/>
        <pt x="59" y="104" on="0"/>
        <pt x="105" y="150" on="0"/>
        <pt x="137" y="150" on="1"/>
        <pt x="170" y="150" on="0"/>
        <pt x="216" y="104" on="0"/>
        <pt x="216" y="71" on="1"/>
        <pt x="216" y="38" on="0"/>
        <pt x="170" y="-8" on="0"/>
        <pt x="137" y="-8" on="1"/>
        <pt x="105" y="-8" on="0"/>
        <pt x="59" y="38" on="0"/>
      </contour>
      <contour>
        <pt x="59" y="323" on="1"/>
        <pt x="59" y="355" on="0"/>
        <pt x="105" y="402" on="0"/>
        <pt x="137" y="402" on="1"/>
        <pt x="170" y="402" on="0"/>
        <pt x="216" y="355" on="0"/>
        <pt x="216" y="323" on="1"/>
        <pt x="216" y="290" on="0"/>
        <pt x="170" y="244" on="0"/>
        <pt x="137" y="244" on="1"/>
        <pt x="105" y="244" on="0"/>
        <pt x="59" y="290" on="0"/>
      </contour>
    </TTGlyph>
    <TTGlyph name="comma" xMin="59" yMin="-139" xMax="216" yMax="146">
      <contour>
        <pt x="216" y="51" on="1"/>
        <pt x="216" y="24" on="0"/>
        <pt x="195" y="-33" on="0"/>
        <pt x="158" y="-85" on="0"/>
        <pt x="108" y="-127" on="0"/>
        <pt x="79" y="-139" on="1"/>
        <pt x="65" y="-117" on="1"/>
        <pt x="97" y="-89" on="0"/>
        <pt x="130" y="-41" on="0"/>
        <pt x="139" y="-8" on="1"/>
        <pt x="102" y="-6" on="0"/>
        <pt x="59" y="39" on="0"/>
        <pt x="59" y="71" on="1"/>
        <pt x="59" y="102" on="0"/>
        <pt x="102" y="146" on="0"/>
        <pt x="133" y="146" on="1"/>
        <pt x="174" y="146" on="0"/>
        <pt x="216" y="90" on="0"/>
      </contour>
    </TTGlyph>
    <TTGlyph name="commaaccent" xMin="24" yMin="-358" xMax="181" yMax="-73">
      <contour>
        <pt x="181" y="-168" on="1"/>
        <pt x="181" y="-195" on="0"/>
        <pt x="160" y="-252" on="0"/>
        <pt x="123" y="-304" on="0"/>
        <pt x="73" y="-346" on="0"/>
        <pt x="44" y="-358" on="1"/>
        <pt x="30" y="-336" on="1"/>
        <pt x="62" y="-308" on="0"/>
        <pt x="95" y="-260" on="0"/>
        <pt x="104" y="-227" on="1"/>
        <pt x="67" y="-225" on="0"/>
        <pt x="24" y="-180" on="0"/>
        <pt x="24" y="-148" on="1"/>
        <pt x="24" y="-117" on="0"/>
        <pt x="67" y="-73" on="0"/>
        <pt x="98" y="-73" on="1"/>
        <pt x="139" y="-73" on="0"/>
        <pt x="181" y="-129" on="0"/>
      </contour>
    </TTGlyph>
    <TTGlyph name="copyright" xMin="50" yMin="-12" xMax="792" yMax="745">
      <contour>
        <pt x="792" y="366" on="1"/>
        <pt x="792" y="288" on="0"/>
        <pt x="734" y="150" on="0"/>
        <pt x="633" y="47" on="0"/>
        <pt x="498" y="-12" on="0"/>
        <pt x="421" y="-12" on="1"/>
        <pt x="344" y="-12" on="0"/>
        <pt x="209" y="47" on="0"/>
        <pt x="108" y="150" on="0"/>
        <pt x="50" y="288" on="0"/>
        <pt x="50" y="366" on="1"/>
        <pt x="50" y="444" on="0"/>
        <pt x="108" y="582" on="0"/>
        <pt x="209" y="685" on="0"/>
        <pt x="344" y="745" on="0"/>
        <pt x="421" y="745" on="1"/>
        <pt x="498" y="745" on="0"/>
        <pt x="633" y="685" on="0"/>
        <pt x="734" y="582" on="0"/>
        <pt x="792" y="444" on="0"/>
      </contour>
      <contour>
        <pt x="725" y="366" on="1"/>
        <pt x="725" y="432" on="0"/>
        <pt x="677" y="549" on="0"/>
        <pt x="595" y="636" on="0"/>
        <pt x="484" y="686" on="0"/>
        <pt x="421" y="686" on="1"/>
        <pt x="358" y="686" on="0"/>
        <pt x="247" y="636" on="0"/>
        <pt x="165" y="549" on="0"/>
        <pt x="117" y="432" on="0"/>
        <pt x="117" y="366" on="1"/>
        <pt x="117" y="300" on="0"/>
        <pt x="165" y="184" on="0"/>
        <pt x="247" y="97" on="0"/>
        <pt x="358" y="47" on="0"/>
        <pt x="421" y="47" on="1"/>
        <pt x="484" y="47" on="0"/>
        <pt x="595" y="97" on="0"/>
        <pt x="677" y="184" on="0"/>
        <pt x="725" y="300" on="0"/>
      </contour>
      <contour>
        <pt x="561" y="208" on="1"/>
        <pt x="535" y="192" on="0"/>
        <pt x="471" y="173" on="0"/>
        <pt x="439" y="173" on="1"/>
        <pt x="393" y="173" on="0"/>
        <pt x="317" y="202" on="0"/>
        <pt x="262" y="255" on="0"/>
        <pt x="232" y="326" on="0"/>
        <pt x="232" y="368" on="1"/>
        <pt x="232" y="410" on="0"/>
        <pt x="262" y="481" on="0"/>
        <pt x="317" y="534" on="0"/>
        <pt x="393" y="563" on="0"/>
        <pt x="439" y="563" on="1"/>
        <pt x="472" y="563" on="0"/>
        <pt x="531" y="545" on="0"/>
        <pt x="557" y="530" on="1"/>
        <pt x="530" y="456" on="1"/>
        <pt x="509" y="468" on="0"/>
        <pt x="463" y="482" on="0"/>
        <pt x="440" y="482" on="1"/>
        <pt x="386" y="482" on="0"/>
        <pt x="326" y="421" on="0"/>
        <pt x="326" y="368" on="1"/>
        <pt x="326" y="315" on="0"/>
        <pt x="386" y="255" on="0"/>
        <pt x="440" y="255" on="1"/>
        <pt x="463" y="255" on="0"/>
        <pt x="513" y="269" on="0"/>
        <pt x="534" y="282" on="1"/>
      </contour>
    </TTGlyph>
    <TTGlyph name="d" xMin="37" yMin="-8" xMax="500" yMax="733">
      <contour>
        <pt x="356" y="0" on="1"/>
        <pt x="356" y="36" on="1"/>
        <pt x="329" y="13" on="0"/>
        <pt x="276" y="-8" on="0"/>
        <pt x="235" y="-8" on="1"/>
        <pt x="190" y="-8" on="0"/>
        <pt x="117" y="27" on="0"/>
        <pt x="65" y="87" on="0"/>
        <pt x="37" y="169" on="0"/>
        <pt x="37" y="217" on="1"/>
        <pt x="37" y="263" on="0"/>
        <pt x="71" y="345" on="0"/>
        <pt x="128" y="406" on="0"/>
        <pt x="203" y="442" on="0"/>
        <pt x="244" y="442" on="1"/>
        <pt x="285" y="442" on="0"/>
        <pt x="331" y="424" on="0"/>
        <pt x="352" y="408" on="1"/>
        <pt x="352" y="733" on="1"/>
        <pt x="500" y="733" on="1"/>
        <pt x="500" y="0" on="1"/>
      </contour>
      <contour>
        <pt x="352" y="284" on="1"/>
        <pt x="340" y="301" on="0"/>
        <pt x="299" y="327" on="0"/>
        <pt x="275" y="327" on="1"/>
        <pt x="237" y="327" on="0"/>
        <pt x="185" y="276" on="0"/>
        <pt x="185" y="219" on="1"/>
        <pt x="185" y="165" on="0"/>
        <pt x="230" y="107" on="0"/>
        <pt x="273" y="107" on="1"/>
        <pt x="297" y="107" on="0"/>
        <pt x="335" y="125" on="0"/>
        <pt x="352" y="148" on="1"/>
      </contour>
    </TTGlyph>
    <TTGlyph name="dagger" xMin="35" yMin="138" xMax="430" yMax="733">
      <contour>
        <pt x="300" y="455" on="1"/>
        <pt x="300" y="138" on="1"/>
        <pt x="169" y="138" on="1"/>
        <pt x="169" y="455" on="1"/>
        <pt x="35" y="455" on="1"/>
        <pt x="35" y="578" on="1"/>
        <pt x="169" y="578" on="1"/>
        <pt x="169" y="733" on="1"/>
        <pt x="300" y="733" on="1"/>
        <pt x="300" y="578" on="1"/>
        <pt x="430" y="578" on="1"/>
        <pt x="430" y="455" on="1"/>
      </contour>
    </TTGlyph>
    <TTGlyph name="daggerdbl" xMin="35" yMin="138" xMax="435" yMax="733">
      <contour>
        <pt x="300" y="264" on="1"/>
        <pt x="300" y="138" on="1"/>
        <pt x="170" y="138" on="1"/>
        <pt x="170" y="264" on="1"/>
        <pt x="40" y="264" on="1"/>
        <pt x="40" y="388" on="1"/>
        <pt x="170" y="388" on="1"/>
        <pt x="170" y="483" on="1"/>
        <pt x="35" y="483" on="1"/>
        <pt x="35" y="606" on="1"/>
        <pt x="170" y="606" on="1"/>
        <pt x="170" y="733" on="1"/>
        <pt x="300" y="733" on="1"/>
        <pt x="300" y="606" on="1"/>
        <pt x="430" y="606" on="1"/>
        <pt x="430" y="483" on="1"/>
        <pt x="300" y="483" on="1"/>
        <pt x="300" y="388" on="1"/>
        <pt x="435" y="388" on="1"/>
        <pt x="435" y="264" on="1"/>
      </contour>
    </TTGlyph>
    <TTGlyph name="dcaron" xMin="37" yMin="-8" xMax="691" yMax="734">
      <component glyphName="d" x="0" y="0" flags="0x204"/>
      <component glyphName="caron.alt" x="495" y="-6" flags="0x4"/>
    </TTGlyph>
    <TTGlyph name="dcroat" xMin="37" yMin="-8" xMax="551" yMax="733">
      <contour>
        <pt x="356" y="0" on="1"/>
        <pt x="356" y="36" on="1"/>
        <pt x="329" y="13" on="0"/>
        <pt x="276" y="-8" on="0"/>
        <pt x="235" y="-8" on="1"/>
        <pt x="190" y="-8" on="0"/>
        <pt x="117" y="27" on="0"/>
        <pt x="65" y="87" on="0"/>
        <pt x="37" y="169" on="0"/>
        <pt x="37" y="217" on="1"/>
        <pt x="37" y="263" on="0"/>
        <pt x="71" y="345" on="0"/>
        <pt x="128" y="406" on="0"/>
        <pt x="203" y="442" on="0"/>
        <pt x="244" y="442" on="1"/>
        <pt x="285" y="442" on="0"/>
        <pt x="331" y="424" on="0"/>
        <pt x="352" y="408" on="1"/>
        <pt x="352" y="534" on="1"/>
        <pt x="212" y="534" on="1"/>
        <pt x="212" y="639" on="1"/>
        <pt x="352" y="639" on="1"/>
        <pt x="352" y="733" on="1"/>
        <pt x="500" y="733" on="1"/>
        <pt x="500" y="639" on="1"/>
        <pt x="551" y="639" on="1"/>
        <pt x="551" y="534" on="1"/>
        <pt x="500" y="534" on="1"/>
        <pt x="500" y="0" on="1"/>
      </contour>
      <contour>
        <pt x="352" y="284" on="1"/>
        <pt x="340" y="301" on="0"/>
        <pt x="299" y="327" on="0"/>
        <pt x="275" y="327" on="1"/>
        <pt x="237" y="327" on="0"/>
        <pt x="185" y="276" on="0"/>
        <pt x="185" y="219" on="1"/>
        <pt x="185" y="165" on="0"/>
        <pt x="230" y="107" on="0"/>
        <pt x="273" y="107" on="1"/>
        <pt x="297" y="107" on="0"/>
        <pt x="335" y="125" on="0"/>
        <pt x="352" y="148" on="1"/>
      </contour>
    </TTGlyph>
    <TTGlyph name="degree" xMin="75" yMin="469" xMax="305" yMax="691">
      <contour>
        <pt x="305" y="580" on="1"/>
        <pt x="305" y="558" on="0"/>
        <pt x="288" y="518" on="0"/>
        <pt x="258" y="487" on="0"/>
        <pt x="215" y="469" on="0"/>
        <pt x="190" y="469" on="1"/>
        <pt x="164" y="469" on="0"/>
        <pt x="122" y="487" on="0"/>
        <pt x="92" y="518" on="0"/>
        <pt x="75" y="558" on="0"/>
        <pt x="75" y="580" on="1"/>
        <pt x="75" y="602" on="0"/>
        <pt x="92" y="642" on="0"/>
        <pt x="122" y="673" on="0"/>
        <pt x="164" y="691" on="0"/>
        <pt x="190" y="691" on="1"/>
        <pt x="215" y="691" on="0"/>
        <pt x="258" y="673" on="0"/>
        <pt x="288" y="642" on="0"/>
        <pt x="305" y="602" on="0"/>
      </contour>
      <contour>
        <pt x="230" y="580" on="1"/>
        <pt x="230" y="600" on="0"/>
        <pt x="207" y="627" on="0"/>
        <pt x="190" y="627" on="1"/>
        <pt x="173" y="627" on="0"/>
        <pt x="150" y="601" on="0"/>
        <pt x="150" y="580" on="1"/>
        <pt x="150" y="559" on="0"/>
        <pt x="173" y="533" on="0"/>
        <pt x="190" y="533" on="1"/>
        <pt x="207" y="533" on="0"/>
        <pt x="230" y="559" on="0"/>
      </contour>
    </TTGlyph>
    <TTGlyph name="degree.lin" xMin="62" yMin="463" xMax="354" yMax="745">
      <contour>
        <pt x="354" y="604" on="1"/>
        <pt x="354" y="576" on="0"/>
        <pt x="333" y="525" on="0"/>
        <pt x="294" y="486" on="0"/>
        <pt x="240" y="463" on="0"/>
        <pt x="208" y="463" on="1"/>
        <pt x="176" y="463" on="0"/>
        <pt x="122" y="486" on="0"/>
        <pt x="83" y="525" on="0"/>
        <pt x="62" y="576" on="0"/>
        <pt x="62" y="604" on="1"/>
        <pt x="62" y="632" on="0"/>
        <pt x="83" y="683" on="0"/>
        <pt x="122" y="722" on="0"/>
        <pt x="176" y="745" on="0"/>
        <pt x="208" y="745" on="1"/>
        <pt x="240" y="745" on="0"/>
        <pt x="294" y="722" on="0"/>
        <pt x="333" y="683" on="0"/>
        <pt x="354" y="632" on="0"/>
      </contour>
      <contour>
        <pt x="267" y="604" on="1"/>
        <pt x="267" y="634" on="0"/>
        <pt x="234" y="674" on="0"/>
        <pt x="208" y="674" on="1"/>
        <pt x="182" y="674" on="0"/>
        <pt x="149" y="636" on="0"/>
        <pt x="149" y="604" on="1"/>
        <pt x="149" y="572" on="0"/>
        <pt x="182" y="534" on="0"/>
        <pt x="208" y="534" on="1"/>
        <pt x="234" y="534" on="0"/>
        <pt x="267" y="572" on="0"/>
      </contour>
    </TTGlyph>
    <TTGlyph name="dieresis" xMin="79" yMin="494" xMax="421" yMax="645">
      <contour>
        <pt x="421" y="569" on="1"/>
        <pt x="421" y="538" on="0"/>
        <pt x="378" y="494" on="0"/>
        <pt x="346" y="494" on="1"/>
        <pt x="315" y="494" on="0"/>
        <pt x="271" y="538" on="0"/>
        <pt x="271" y="569" on="1"/>
        <pt x="271" y="601" on="0"/>
        <pt x="315" y="645" on="0"/>
        <pt x="346" y="645" on="1"/>
        <pt x="378" y="645" on="0"/>
        <pt x="421" y="601" on="0"/>
      </contour>
      <contour>
        <pt x="230" y="569" on="1"/>
        <pt x="230" y="538" on="0"/>
        <pt x="186" y="494" on="0"/>
        <pt x="154" y="494" on="1"/>
        <pt x="123" y="494" on="0"/>
        <pt x="79" y="538" on="0"/>
        <pt x="79" y="569" on="1"/>
        <pt x="79" y="601" on="0"/>
        <pt x="123" y="645" on="0"/>
        <pt x="154" y="645" on="1"/>
        <pt x="186" y="645" on="0"/>
        <pt x="230" y="601" on="0"/>
      </contour>
    </TTGlyph>
    <TTGlyph name="divide" xMin="60" yMin="77" xMax="398" yMax="499">
      <contour>
        <pt x="60" y="338" on="1"/>
        <pt x="398" y="338" on="1"/>
        <pt x="398" y="238" on="1"/>
        <pt x="60" y="238" on="1"/>
      </contour>
      <contour>
        <pt x="164" y="434" on="1"/>
        <pt x="164" y="461" on="0"/>
        <pt x="202" y="499" on="0"/>
        <pt x="229" y="499" on="1"/>
        <pt x="256" y="499" on="0"/>
        <pt x="294" y="461" on="0"/>
        <pt x="294" y="434" on="1"/>
        <pt x="294" y="407" on="0"/>
        <pt x="256" y="369" on="0"/>
        <pt x="229" y="369" on="1"/>
        <pt x="202" y="369" on="0"/>
        <pt x="164" y="407" on="0"/>
      </contour>
      <contour>
        <pt x="164" y="142" on="1"/>
        <pt x="164" y="169" on="0"/>
        <pt x="202" y="207" on="0"/>
        <pt x="229" y="207" on="1"/>
        <pt x="256" y="207" on="0"/>
        <pt x="294" y="169" on="0"/>
        <pt x="294" y="142" on="1"/>
        <pt x="294" y="115" on="0"/>
        <pt x="256" y="77" on="0"/>
        <pt x="229" y="77" on="1"/>
        <pt x="202" y="77" on="0"/>
        <pt x="164" y="115" on="0"/>
      </contour>
    </TTGlyph>
    <TTGlyph name="divide.lin" xMin="60" yMin="160" xMax="398" yMax="582">
      <component glyphName="divide" x="0" y="83" flags="0x204"/>
    </TTGlyph>
    <TTGlyph name="dollar" xMin="32" yMin="-88" xMax="478" yMax="678">
      <contour>
        <pt x="342" y="678" on="1"/>
        <pt x="334" y="597" on="1"/>
        <pt x="372" y="591" on="0"/>
        <pt x="440" y="567" on="0"/>
        <pt x="466" y="552" on="1"/>
        <pt x="428" y="428" on="1"/>
        <pt x="407" y="442" on="0"/>
        <pt x="351" y="466" on="0"/>
        <pt x="322" y="474" on="1"/>
        <pt x="310" y="354" on="1"/>
        <pt x="356" y="338" on="0"/>
        <pt x="421" y="303" on="0"/>
        <pt x="460" y="261" on="0"/>
        <pt x="478" y="209" on="0"/>
        <pt x="478" y="176" on="1"/>
        <pt x="478" y="136" on="0"/>
        <pt x="449" y="70" on="0"/>
        <pt x="395" y="20" on="0"/>
        <pt x="319" y="-9" on="0"/>
        <pt x="272" y="-11" on="1"/>
        <pt x="265" y="-88" on="1"/>
        <pt x="191" y="-88" on="1"/>
        <pt x="198" y="-7" on="1"/>
        <pt x="147" y="0" on="0"/>
        <pt x="61" y="35" on="0"/>
        <pt x="32" y="54" on="1"/>
        <pt x="77" y="179" on="1"/>
        <pt x="106" y="159" on="0"/>
        <pt x="174" y="126" on="0"/>
        <pt x="210" y="118" on="1"/>
        <pt x="223" y="247" on="1"/>
        <pt x="177" y="263" on="0"/>
        <pt x="115" y="298" on="0"/>
        <pt x="77" y="339" on="0"/>
        <pt x="61" y="389" on="0"/>
        <pt x="61" y="420" on="1"/>
        <pt x="61" y="456" on="0"/>
        <pt x="89" y="519" on="0"/>
        <pt x="140" y="567" on="0"/>
        <pt x="214" y="597" on="0"/>
        <pt x="260" y="600" on="1"/>
        <pt x="268" y="678" on="1"/>
      </contour>
      <contour>
        <pt x="341" y="163" on="1"/>
        <pt x="341" y="183" on="0"/>
        <pt x="321" y="209" on="0"/>
        <pt x="293" y="222" on="1"/>
        <pt x="283" y="113" on="1"/>
        <pt x="341" y="119" on="0"/>
      </contour>
      <contour>
        <pt x="196" y="434" on="1"/>
        <pt x="196" y="415" on="0"/>
        <pt x="215" y="390" on="0"/>
        <pt x="240" y="379" on="1"/>
        <pt x="249" y="480" on="1"/>
        <pt x="221" y="478" on="0"/>
        <pt x="196" y="453" on="0"/>
      </contour>
    </TTGlyph>
    <TTGlyph name="dollar.lin" xMin="20" yMin="-112" xMax="548" yMax="845">
      <contour>
        <pt x="386" y="845" on="1"/>
        <pt x="375" y="741" on="1"/>
        <pt x="423" y="734" on="0"/>
        <pt x="513" y="700" on="0"/>
        <pt x="548" y="678" on="1"/>
        <pt x="482" y="541" on="1"/>
        <pt x="460" y="555" on="0"/>
        <pt x="394" y="584" on="0"/>
        <pt x="361" y="592" on="1"/>
        <pt x="346" y="448" on="1"/>
        <pt x="364" y="441" on="1"/>
        <pt x="417" y="418" on="0"/>
        <pt x="487" y="373" on="0"/>
        <pt x="529" y="322" on="0"/>
        <pt x="547" y="261" on="0"/>
        <pt x="547" y="222" on="1"/>
        <pt x="547" y="178" on="0"/>
        <pt x="516" y="97" on="0"/>
        <pt x="455" y="33" on="0"/>
        <pt x="362" y="-8" on="0"/>
        <pt x="299" y="-11" on="1"/>
        <pt x="290" y="-112" on="1"/>
        <pt x="216" y="-112" on="1"/>
        <pt x="226" y="-8" on="1"/>
        <pt x="171" y="0" on="0"/>
        <pt x="60" y="42" on="0"/>
        <pt x="20" y="70" on="1"/>
        <pt x="85" y="208" on="1"/>
        <pt x="115" y="188" on="0"/>
        <pt x="197" y="155" on="0"/>
        <pt x="241" y="148" on="1"/>
        <pt x="255" y="304" on="1"/>
        <pt x="235" y="313" on="1"/>
        <pt x="185" y="333" on="0"/>
        <pt x="117" y="375" on="0"/>
        <pt x="75" y="426" on="0"/>
        <pt x="56" y="488" on="0"/>
        <pt x="56" y="528" on="1"/>
        <pt x="56" y="568" on="0"/>
        <pt x="87" y="643" on="0"/>
        <pt x="149" y="703" on="0"/>
        <pt x="241" y="741" on="0"/>
        <pt x="302" y="744" on="1"/>
        <pt x="312" y="845" on="1"/>
      </contour>
      <contour>
        <pt x="369" y="211" on="1"/>
        <pt x="369" y="230" on="0"/>
        <pt x="352" y="256" on="0"/>
        <pt x="325" y="272" on="1"/>
        <pt x="313" y="147" on="1"/>
        <pt x="343" y="153" on="0"/>
        <pt x="369" y="188" on="0"/>
      </contour>
      <contour>
        <pt x="232" y="536" on="1"/>
        <pt x="232" y="513" on="0"/>
        <pt x="254" y="488" on="0"/>
        <pt x="277" y="477" on="1"/>
        <pt x="288" y="594" on="1"/>
        <pt x="258" y="587" on="0"/>
        <pt x="232" y="555" on="0"/>
      </contour>
    </TTGlyph>
    <TTGlyph name="dotaccent" xMin="145" yMin="494" xMax="295" yMax="645">
      <contour>
        <pt x="145" y="569" on="1"/>
        <pt x="145" y="601" on="0"/>
        <pt x="189" y="645" on="0"/>
        <pt x="220" y="645" on="1"/>
        <pt x="252" y="645" on="0"/>
        <pt x="295" y="601" on="0"/>
        <pt x="295" y="569" on="1"/>
        <pt x="295" y="538" on="0"/>
        <pt x="252" y="494" on="0"/>
        <pt x="220" y="494" on="1"/>
        <pt x="189" y="494" on="0"/>
        <pt x="145" y="538" on="0"/>
      </contour>
    </TTGlyph>
    <TTGlyph name="dotlessi" xMin="62" yMin="0" xMax="211" yMax="434">
      <contour>
        <pt x="62" y="0" on="1"/>
        <pt x="62" y="434" on="1"/>
        <pt x="211" y="434" on="1"/>
        <pt x="211" y="0" on="1"/>
      </contour>
    </TTGlyph>
    <TTGlyph name="e" xMin="32" yMin="-8" xMax="466" yMax="442">
      <contour>
        <pt x="466" y="233" on="1"/>
        <pt x="466" y="228" on="0"/>
        <pt x="466" y="212" on="0"/>
        <pt x="465" y="194" on="0"/>
        <pt x="464" y="178" on="0"/>
        <pt x="463" y="172" on="1"/>
        <pt x="179" y="172" on="1"/>
        <pt x="186" y="135" on="0"/>
        <pt x="236" y="102" on="0"/>
        <pt x="288" y="102" on="1"/>
        <pt x="315" y="102" on="0"/>
        <pt x="385" y="115" on="0"/>
        <pt x="420" y="125" on="1"/>
        <pt x="434" y="16" on="1"/>
        <pt x="392" y="5" on="0"/>
        <pt x="308" y="-8" on="0"/>
        <pt x="273" y="-8" on="1"/>
        <pt x="209" y="-8" on="0"/>
        <pt x="118" y="28" on="0"/>
        <pt x="59" y="89" on="0"/>
        <pt x="32" y="170" on="0"/>
        <pt x="32" y="215" on="1"/>
        <pt x="32" y="258" on="0"/>
        <pt x="61" y="340" on="0"/>
        <pt x="119" y="403" on="0"/>
        <pt x="204" y="442" on="0"/>
        <pt x="260" y="442" on="1"/>
        <pt x="311" y="442" on="0"/>
        <pt x="389" y="409" on="0"/>
        <pt x="440" y="352" on="0"/>
        <pt x="466" y="276" on="0"/>
      </contour>
      <contour>
        <pt x="337" y="253" on="1"/>
        <pt x="333" y="292" on="0"/>
        <pt x="291" y="330" on="0"/>
        <pt x="260" y="330" on="1"/>
        <pt x="227" y="330" on="0"/>
        <pt x="185" y="291" on="0"/>
        <pt x="180" y="253" on="1"/>
      </contour>
    </TTGlyph>
    <TTGlyph name="eacute" xMin="32" yMin="-8" xMax="466" yMax="692">
      <component glyphName="e" x="0" y="0" flags="0x204"/>
      <component glyphName="acute" x="66" y="0" flags="0x4"/>
    </TTGlyph>
    <TTGlyph name="ebreve" xMin="32" yMin="-8" xMax="466" yMax="661">
      <component glyphName="e" x="0" y="0" flags="0x204"/>
      <component glyphName="breve" x="8" y="0" flags="0x4"/>
    </TTGlyph>
    <TTGlyph name="ecaron" xMin="32" yMin="-8" xMax="466" yMax="689">
      <component glyphName="e" x="0" y="0" flags="0x204"/>
      <component glyphName="caron" x="12" y="0" flags="0x4"/>
    </TTGlyph>
    <TTGlyph name="ecircumflex" xMin="32" yMin="-8" xMax="466" yMax="691">
      <component glyphName="e" x="0" y="0" flags="0x204"/>
      <component glyphName="circumflex" x="5" y="0" flags="0x4"/>
    </TTGlyph>
    <TTGlyph name="edieresis" xMin="32" yMin="-8" xMax="466" yMax="645">
      <component glyphName="e" x="0" y="0" flags="0x204"/>
      <component glyphName="dieresis" x="8" y="0" flags="0x4"/>
    </TTGlyph>
    <TTGlyph name="edotaccent" xMin="32" yMin="-8" xMax="466" yMax="645">
      <component glyphName="e" x="0" y="0" flags="0x204"/>
      <component glyphName="dotaccent" x="38" y="0" flags="0x4"/>
    </TTGlyph>
    <TTGlyph name="egrave" xMin="32" yMin="-8" xMax="466" yMax="693">
      <component glyphName="e" x="0" y="0" flags="0x204"/>
      <component glyphName="grave" x="-79" y="0" flags="0x4"/>
    </TTGlyph>
    <TTGlyph name="eight" xMin="50" yMin="-10" xMax="488" yMax="600">
      <contour>
        <pt x="488" y="158" on="1"/>
        <pt x="488" y="124" on="0"/>
        <pt x="458" y="63" on="0"/>
        <pt x="401" y="17" on="0"/>
        <pt x="320" y="-10" on="0"/>
        <pt x="269" y="-10" on="1"/>
        <pt x="219" y="-10" on="0"/>
        <pt x="138" y="17" on="0"/>
        <pt x="81" y="63" on="0"/>
        <pt x="50" y="124" on="0"/>
        <pt x="50" y="158" on="1"/>
        <pt x="50" y="203" on="0"/>
        <pt x="92" y="276" on="0"/>
        <pt x="148" y="300" on="1"/>
        <pt x="101" y="324" on="0"/>
        <pt x="62" y="389" on="0"/>
        <pt x="62" y="434" on="1"/>
        <pt x="62" y="468" on="0"/>
        <pt x="92" y="529" on="0"/>
        <pt x="146" y="574" on="0"/>
        <pt x="222" y="600" on="0"/>
        <pt x="269" y="600" on="1"/>
        <pt x="316" y="600" on="0"/>
        <pt x="392" y="574" on="0"/>
        <pt x="446" y="529" on="0"/>
        <pt x="476" y="468" on="0"/>
        <pt x="476" y="434" on="1"/>
        <pt x="476" y="389" on="0"/>
        <pt x="437" y="324" on="0"/>
        <pt x="390" y="300" on="1"/>
        <pt x="446" y="276" on="0"/>
        <pt x="488" y="203" on="0"/>
      </contour>
      <contour>
        <pt x="339" y="409" on="1"/>
        <pt x="339" y="439" on="0"/>
        <pt x="301" y="477" on="0"/>
        <pt x="269" y="477" on="1"/>
        <pt x="237" y="477" on="0"/>
        <pt x="199" y="439" on="0"/>
        <pt x="199" y="409" on="1"/>
        <pt x="199" y="377" on="0"/>
        <pt x="237" y="342" on="0"/>
        <pt x="269" y="342" on="1"/>
        <pt x="301" y="342" on="0"/>
        <pt x="339" y="377" on="0"/>
      </contour>
      <contour>
        <pt x="339" y="181" on="1"/>
        <pt x="339" y="213" on="0"/>
        <pt x="301" y="249" on="0"/>
        <pt x="269" y="249" on="1"/>
        <pt x="237" y="249" on="0"/>
        <pt x="199" y="213" on="0"/>
        <pt x="199" y="181" on="1"/>
        <pt x="199" y="151" on="0"/>
        <pt x="237" y="113" on="0"/>
        <pt x="269" y="113" on="1"/>
        <pt x="301" y="113" on="0"/>
        <pt x="339" y="151" on="0"/>
      </contour>
    </TTGlyph>
    <TTGlyph name="eight.den" xMin="17" yMin="-8" xMax="333" yMax="417">
      <contour>
        <pt x="175" y="-8" on="1"/>
        <pt x="101" y="-8" on="0"/>
        <pt x="17" y="58" on="0"/>
        <pt x="17" y="112" on="1"/>
        <pt x="17" y="143" on="0"/>
        <pt x="46" y="189" on="0"/>
        <pt x="81" y="206" on="1"/>
        <pt x="55" y="221" on="0"/>
        <pt x="25" y="265" on="0"/>
        <pt x="25" y="298" on="1"/>
        <pt x="25" y="350" on="0"/>
        <pt x="106" y="417" on="0"/>
        <pt x="175" y="417" on="1"/>
        <pt x="244" y="417" on="0"/>
        <pt x="325" y="350" on="0"/>
        <pt x="325" y="298" on="1"/>
        <pt x="325" y="265" on="0"/>
        <pt x="295" y="221" on="0"/>
        <pt x="269" y="206" on="1"/>
        <pt x="304" y="189" on="0"/>
        <pt x="333" y="143" on="0"/>
        <pt x="333" y="112" on="1"/>
        <pt x="333" y="58" on="0"/>
        <pt x="249" y="-8" on="0"/>
      </contour>
      <contour>
        <pt x="175" y="172" on="1"/>
        <pt x="120" y="172" on="0"/>
        <pt x="120" y="123" on="1"/>
        <pt x="120" y="100" on="0"/>
        <pt x="148" y="73" on="0"/>
        <pt x="175" y="73" on="1"/>
        <pt x="202" y="73" on="0"/>
        <pt x="230" y="100" on="0"/>
        <pt x="230" y="123" on="1"/>
        <pt x="230" y="172" on="0"/>
      </contour>
      <contour>
        <pt x="175" y="336" on="1"/>
        <pt x="149" y="336" on="0"/>
        <pt x="124" y="308" on="0"/>
        <pt x="124" y="285" on="1"/>
        <pt x="124" y="262" on="0"/>
        <pt x="153" y="240" on="0"/>
        <pt x="175" y="240" on="1"/>
        <pt x="197" y="240" on="0"/>
        <pt x="226" y="262" on="0"/>
        <pt x="226" y="285" on="1"/>
        <pt x="226" y="308" on="0"/>
        <pt x="201" y="336" on="0"/>
      </contour>
    </TTGlyph>
    <TTGlyph name="eight.lin" xMin="42" yMin="-12" xMax="583" yMax="745">
      <contour>
        <pt x="583" y="193" on="1"/>
        <pt x="583" y="151" on="0"/>
        <pt x="545" y="76" on="0"/>
        <pt x="474" y="21" on="0"/>
        <pt x="374" y="-12" on="0"/>
        <pt x="312" y="-12" on="1"/>
        <pt x="250" y="-12" on="0"/>
        <pt x="150" y="21" on="0"/>
        <pt x="80" y="76" on="0"/>
        <pt x="42" y="151" on="0"/>
        <pt x="42" y="193" on="1"/>
        <pt x="42" y="221" on="0"/>
        <pt x="56" y="275" on="0"/>
        <pt x="85" y="321" on="0"/>
        <pt x="130" y="358" on="0"/>
        <pt x="162" y="369" on="1"/>
        <pt x="112" y="394" on="0"/>
        <pt x="62" y="483" on="0"/>
        <pt x="62" y="539" on="1"/>
        <pt x="62" y="582" on="0"/>
        <pt x="97" y="657" on="0"/>
        <pt x="161" y="713" on="0"/>
        <pt x="254" y="745" on="0"/>
        <pt x="312" y="745" on="1"/>
        <pt x="370" y="745" on="0"/>
        <pt x="462" y="713" on="0"/>
        <pt x="527" y="657" on="0"/>
        <pt x="562" y="582" on="0"/>
        <pt x="562" y="539" on="1"/>
        <pt x="562" y="483" on="0"/>
        <pt x="506" y="391" on="0"/>
        <pt x="461" y="369" on="1"/>
        <pt x="494" y="357" on="0"/>
        <pt x="541" y="320" on="0"/>
        <pt x="570" y="274" on="0"/>
        <pt x="583" y="221" on="0"/>
      </contour>
      <contour>
        <pt x="397" y="507" on="1"/>
        <pt x="397" y="546" on="0"/>
        <pt x="355" y="597" on="0"/>
        <pt x="312" y="597" on="1"/>
        <pt x="271" y="597" on="0"/>
        <pt x="225" y="546" on="0"/>
        <pt x="225" y="507" on="1"/>
        <pt x="225" y="469" on="0"/>
        <pt x="274" y="427" on="0"/>
        <pt x="312" y="427" on="1"/>
        <pt x="348" y="427" on="0"/>
        <pt x="397" y="469" on="0"/>
      </contour>
      <contour>
        <pt x="406" y="224" on="1"/>
        <pt x="406" y="263" on="0"/>
        <pt x="354" y="309" on="0"/>
        <pt x="312" y="309" on="1"/>
        <pt x="274" y="309" on="0"/>
        <pt x="222" y="264" on="0"/>
        <pt x="222" y="224" on="1"/>
        <pt x="222" y="187" on="0"/>
        <pt x="272" y="137" on="0"/>
        <pt x="312" y="137" on="1"/>
        <pt x="356" y="137" on="0"/>
        <pt x="406" y="187" on="0"/>
      </contour>
    </TTGlyph>
    <TTGlyph name="eight.num" xMin="17" yMin="316" xMax="333" yMax="741">
      <contour>
        <pt x="175" y="316" on="1"/>
        <pt x="101" y="316" on="0"/>
        <pt x="17" y="382" on="0"/>
        <pt x="17" y="436" on="1"/>
        <pt x="17" y="467" on="0"/>
        <pt x="46" y="513" on="0"/>
        <pt x="81" y="530" on="1"/>
        <pt x="55" y="545" on="0"/>
        <pt x="25" y="589" on="0"/>
        <pt x="25" y="622" on="1"/>
        <pt x="25" y="674" on="0"/>
        <pt x="106" y="741" on="0"/>
        <pt x="175" y="741" on="1"/>
        <pt x="244" y="741" on="0"/>
        <pt x="325" y="674" on="0"/>
        <pt x="325" y="622" on="1"/>
        <pt x="325" y="589" on="0"/>
        <pt x="295" y="545" on="0"/>
        <pt x="269" y="530" on="1"/>
        <pt x="304" y="513" on="0"/>
        <pt x="333" y="467" on="0"/>
        <pt x="333" y="436" on="1"/>
        <pt x="333" y="382" on="0"/>
        <pt x="249" y="316" on="0"/>
      </contour>
      <contour>
        <pt x="175" y="496" on="1"/>
        <pt x="120" y="496" on="0"/>
        <pt x="120" y="447" on="1"/>
        <pt x="120" y="424" on="0"/>
        <pt x="148" y="397" on="0"/>
        <pt x="175" y="397" on="1"/>
        <pt x="202" y="397" on="0"/>
        <pt x="230" y="424" on="0"/>
        <pt x="230" y="447" on="1"/>
        <pt x="230" y="496" on="0"/>
      </contour>
      <contour>
        <pt x="175" y="660" on="1"/>
        <pt x="149" y="660" on="0"/>
        <pt x="124" y="632" on="0"/>
        <pt x="124" y="609" on="1"/>
        <pt x="124" y="586" on="0"/>
        <pt x="153" y="564" on="0"/>
        <pt x="175" y="564" on="1"/>
        <pt x="197" y="564" on="0"/>
        <pt x="226" y="586" on="0"/>
        <pt x="226" y="609" on="1"/>
        <pt x="226" y="632" on="0"/>
        <pt x="201" y="660" on="0"/>
      </contour>
    </TTGlyph>
    <TTGlyph name="elevensixteenths" xMin="7" yMin="-20" xMax="1280" yMax="753">
      <component glyphName="one.num" x="0" y="0" flags="0x4"/>
      <component glyphName="one.num" x="274" y="0" flags="0x4"/>
      <component glyphName="fraction" x="548" y="0" flags="0x4"/>
      <component glyphName="one.den" x="673" y="0" flags="0x4"/>
      <component glyphName="six.den" x="947" y="0" flags="0x4"/>
    </TTGlyph>
    <TTGlyph name="ellipsis" xMin="69" yMin="-8" xMax="774" yMax="150">
      <contour>
        <pt x="69" y="71" on="1"/>
        <pt x="69" y="104" on="0"/>
        <pt x="115" y="150" on="0"/>
        <pt x="147" y="150" on="1"/>
        <pt x="180" y="150" on="0"/>
        <pt x="226" y="104" on="0"/>
        <pt x="226" y="71" on="1"/>
        <pt x="226" y="38" on="0"/>
        <pt x="180" y="-8" on="0"/>
        <pt x="147" y="-8" on="1"/>
        <pt x="115" y="-8" on="0"/>
        <pt x="69" y="38" on="0"/>
      </contour>
      <contour>
        <pt x="343" y="71" on="1"/>
        <pt x="343" y="104" on="0"/>
        <pt x="389" y="150" on="0"/>
        <pt x="421" y="150" on="1"/>
        <pt x="454" y="150" on="0"/>
        <pt x="500" y="104" on="0"/>
        <pt x="500" y="71" on="1"/>
        <pt x="500" y="38" on="0"/>
        <pt x="454" y="-8" on="0"/>
        <pt x="421" y="-8" on="1"/>
        <pt x="389" y="-8" on="0"/>
        <pt x="343" y="38" on="0"/>
      </contour>
      <contour>
        <pt x="617" y="71" on="1"/>
        <pt x="617" y="104" on="0"/>
        <pt x="663" y="150" on="0"/>
        <pt x="695" y="150" on="1"/>
        <pt x="728" y="150" on="0"/>
        <pt x="774" y="104" on="0"/>
        <pt x="774" y="71" on="1"/>
        <pt x="774" y="38" on="0"/>
        <pt x="728" y="-8" on="0"/>
        <pt x="695" y="-8" on="1"/>
        <pt x="663" y="-8" on="0"/>
        <pt x="617" y="38" on="0"/>
      </contour>
    </TTGlyph>
    <TTGlyph name="emacron" xMin="32" yMin="-8" xMax="466" yMax="611">
      <component glyphName="e" x="0" y="0" flags="0x204"/>
      <component glyphName="macron" x="8" y="0" flags="0x4"/>
    </TTGlyph>
    <TTGlyph name="emdash" xMin="50" yMin="203" xMax="700" yMax="290">
      <contour>
        <pt x="50" y="203" on="1"/>
        <pt x="50" y="290" on="1"/>
        <pt x="700" y="290" on="1"/>
        <pt x="700" y="203" on="1"/>
      </contour>
    </TTGlyph>
    <TTGlyph name="emdash.cap" xMin="50" yMin="327" xMax="700" yMax="414">
      <component glyphName="emdash" x="0" y="124" flags="0x204"/>
    </TTGlyph>
    <TTGlyph name="endash" xMin="50" yMin="203" xMax="450" yMax="290">
      <contour>
        <pt x="50" y="203" on="1"/>
        <pt x="50" y="290" on="1"/>
        <pt x="450" y="290" on="1"/>
        <pt x="450" y="203" on="1"/>
      </contour>
    </TTGlyph>
    <TTGlyph name="endash.cap" xMin="50" yMin="327" xMax="450" yMax="414">
      <component glyphName="endash" x="0" y="124" flags="0x204"/>
    </TTGlyph>
    <TTGlyph name="eogonek" xMin="32" yMin="-224" xMax="467" yMax="442">
      <contour>
        <pt x="466" y="233" on="1"/>
        <pt x="466" y="228" on="0"/>
        <pt x="466" y="212" on="0"/>
        <pt x="465" y="194" on="0"/>
        <pt x="464" y="178" on="0"/>
        <pt x="463" y="172" on="1"/>
        <pt x="179" y="172" on="1"/>
        <pt x="186" y="135" on="0"/>
        <pt x="236" y="102" on="0"/>
        <pt x="288" y="102" on="1"/>
        <pt x="315" y="102" on="0"/>
        <pt x="385" y="115" on="0"/>
        <pt x="420" y="125" on="1"/>
        <pt x="434" y="16" on="1"/>
        <pt x="398" y="-9" on="0"/>
        <pt x="352" y="-76" on="0"/>
        <pt x="352" y="-103" on="1"/>
        <pt x="352" y="-136" on="0"/>
        <pt x="386" y="-136" on="1"/>
        <pt x="400" y="-136" on="0"/>
        <pt x="421" y="-124" on="0"/>
        <pt x="432" y="-116" on="1"/>
        <pt x="467" y="-177" on="1"/>
        <pt x="447" y="-196" on="0"/>
        <pt x="390" y="-224" on="0"/>
        <pt x="350" y="-224" on="1"/>
        <pt x="304" y="-224" on="0"/>
        <pt x="252" y="-173" on="0"/>
        <pt x="252" y="-130" on="1"/>
        <pt x="252" y="-94" on="0"/>
        <pt x="290" y="-33" on="0"/>
        <pt x="319" y="-5" on="1"/>
        <pt x="295" y="-8" on="0"/>
        <pt x="273" y="-8" on="1"/>
        <pt x="209" y="-8" on="0"/>
        <pt x="118" y="28" on="0"/>
        <pt x="59" y="89" on="0"/>
        <pt x="32" y="170" on="0"/>
        <pt x="32" y="215" on="1"/>
        <pt x="32" y="258" on="0"/>
        <pt x="61" y="340" on="0"/>
        <pt x="119" y="403" on="0"/>
        <pt x="204" y="442" on="0"/>
        <pt x="260" y="442" on="1"/>
        <pt x="311" y="442" on="0"/>
        <pt x="389" y="409" on="0"/>
        <pt x="440" y="352" on="0"/>
        <pt x="466" y="276" on="0"/>
      </contour>
      <contour>
        <pt x="337" y="253" on="1"/>
        <pt x="333" y="292" on="0"/>
        <pt x="291" y="330" on="0"/>
        <pt x="260" y="330" on="1"/>
        <pt x="227" y="330" on="0"/>
        <pt x="185" y="291" on="0"/>
        <pt x="180" y="253" on="1"/>
      </contour>
    </TTGlyph>
    <TTGlyph name="equal" xMin="60" yMin="149" xMax="389" yMax="427">
      <contour>
        <pt x="60" y="326" on="1"/>
        <pt x="60" y="427" on="1"/>
        <pt x="389" y="427" on="1"/>
        <pt x="389" y="326" on="1"/>
      </contour>
      <contour>
        <pt x="60" y="149" on="1"/>
        <pt x="60" y="250" on="1"/>
        <pt x="389" y="250" on="1"/>
        <pt x="389" y="149" on="1"/>
      </contour>
    </TTGlyph>
    <TTGlyph name="equal.lin" xMin="60" yMin="232" xMax="389" yMax="510">
      <component glyphName="equal" x="0" y="83" flags="0x204"/>
    </TTGlyph>
    <TTGlyph name="eth" xMin="37" yMin="-12" xMax="504" yMax="745">
      <contour>
        <pt x="106" y="536" on="1"/>
        <pt x="161" y="584" on="1"/>
        <pt x="137" y="598" on="0"/>
        <pt x="89" y="620" on="0"/>
        <pt x="68" y="627" on="1"/>
        <pt x="125" y="745" on="1"/>
        <pt x="157" y="731" on="0"/>
        <pt x="227" y="695" on="0"/>
        <pt x="262" y="672" on="1"/>
        <pt x="328" y="730" on="1"/>
        <pt x="390" y="654" on="1"/>
        <pt x="340" y="613" on="1"/>
        <pt x="374" y="582" on="0"/>
        <pt x="434" y="508" on="0"/>
        <pt x="479" y="419" on="0"/>
        <pt x="504" y="313" on="0"/>
        <pt x="504" y="252" on="1"/>
        <pt x="504" y="194" on="0"/>
        <pt x="473" y="97" on="0"/>
        <pt x="413" y="27" on="0"/>
        <pt x="326" y="-12" on="0"/>
        <pt x="271" y="-12" on="1"/>
        <pt x="212" y="-12" on="0"/>
        <pt x="124" y="27" on="0"/>
        <pt x="66" y="92" on="0"/>
        <pt x="37" y="176" on="0"/>
        <pt x="37" y="220" on="1"/>
        <pt x="37" y="264" on="0"/>
        <pt x="62" y="344" on="0"/>
        <pt x="111" y="405" on="0"/>
        <pt x="187" y="441" on="0"/>
        <pt x="238" y="441" on="1"/>
        <pt x="267" y="441" on="0"/>
        <pt x="319" y="425" on="0"/>
        <pt x="339" y="411" on="1"/>
        <pt x="324" y="443" on="0"/>
        <pt x="272" y="503" on="0"/>
        <pt x="240" y="529" on="1"/>
        <pt x="163" y="465" on="1"/>
      </contour>
      <contour>
        <pt x="364" y="218" on="1"/>
        <pt x="364" y="274" on="0"/>
        <pt x="312" y="333" on="0"/>
        <pt x="273" y="333" on="1"/>
        <pt x="235" y="333" on="0"/>
        <pt x="184" y="277" on="0"/>
        <pt x="184" y="223" on="1"/>
        <pt x="184" y="169" on="0"/>
        <pt x="231" y="99" on="0"/>
        <pt x="275" y="99" on="1"/>
        <pt x="320" y="99" on="0"/>
        <pt x="364" y="164" on="0"/>
      </contour>
    </TTGlyph>
    <TTGlyph name="exclam" xMin="70" yMin="-8" xMax="233" yMax="733">
      <contour>
        <pt x="200" y="228" on="1"/>
        <pt x="103" y="228" on="1"/>
        <pt x="70" y="733" on="1"/>
        <pt x="233" y="733" on="1"/>
      </contour>
      <contour>
        <pt x="230" y="71" on="1"/>
        <pt x="230" y="38" on="0"/>
        <pt x="184" y="-8" on="0"/>
        <pt x="152" y="-8" on="1"/>
        <pt x="119" y="-8" on="0"/>
        <pt x="73" y="38" on="0"/>
        <pt x="73" y="71" on="1"/>
        <pt x="73" y="104" on="0"/>
        <pt x="119" y="150" on="0"/>
        <pt x="152" y="150" on="1"/>
        <pt x="184" y="150" on="0"/>
        <pt x="230" y="104" on="0"/>
      </contour>
    </TTGlyph>
    <TTGlyph name="exclamdown" xMin="71" yMin="0" xMax="234" yMax="741">
      <contour>
        <pt x="74" y="662" on="1"/>
        <pt x="74" y="695" on="0"/>
        <pt x="120" y="741" on="0"/>
        <pt x="152" y="741" on="1"/>
        <pt x="185" y="741" on="0"/>
        <pt x="231" y="695" on="0"/>
        <pt x="231" y="662" on="1"/>
        <pt x="231" y="629" on="0"/>
        <pt x="185" y="583" on="0"/>
        <pt x="152" y="583" on="1"/>
        <pt x="120" y="583" on="0"/>
        <pt x="74" y="629" on="0"/>
      </contour>
      <contour>
        <pt x="104" y="505" on="1"/>
        <pt x="201" y="505" on="1"/>
        <pt x="234" y="0" on="1"/>
        <pt x="71" y="0" on="1"/>
      </contour>
    </TTGlyph>
    <TTGlyph name="f" xMin="19" yMin="0" xMax="390" yMax="740">
      <contour>
        <pt x="378" y="606" on="1"/>
        <pt x="368" y="608" on="0"/>
        <pt x="345" y="610" on="0"/>
        <pt x="332" y="610" on="1"/>
        <pt x="316" y="610" on="0"/>
        <pt x="289" y="602" on="0"/>
        <pt x="270" y="580" on="0"/>
        <pt x="260" y="542" on="0"/>
        <pt x="260" y="512" on="1"/>
        <pt x="260" y="434" on="1"/>
        <pt x="377" y="434" on="1"/>
        <pt x="377" y="317" on="1"/>
        <pt x="260" y="317" on="1"/>
        <pt x="260" y="0" on="1"/>
        <pt x="112" y="0" on="1"/>
        <pt x="112" y="317" on="1"/>
        <pt x="19" y="317" on="1"/>
        <pt x="19" y="338" on="1"/>
        <pt x="112" y="434" on="1"/>
        <pt x="112" y="524" on="1"/>
        <pt x="112" y="623" on="0"/>
        <pt x="212" y="740" on="0"/>
        <pt x="315" y="740" on="1"/>
        <pt x="337" y="740" on="0"/>
        <pt x="374" y="735" on="0"/>
        <pt x="390" y="731" on="1"/>
      </contour>
    </TTGlyph>
    <TTGlyph name="f_f" xMin="19" yMin="0" xMax="742" yMax="740">
      <contour>
        <pt x="730" y="606" on="1"/>
        <pt x="720" y="608" on="0"/>
        <pt x="697" y="610" on="0"/>
        <pt x="684" y="610" on="1"/>
        <pt x="668" y="610" on="0"/>
        <pt x="641" y="602" on="0"/>
        <pt x="622" y="580" on="0"/>
        <pt x="612" y="542" on="0"/>
        <pt x="612" y="512" on="1"/>
        <pt x="612" y="434" on="1"/>
        <pt x="729" y="434" on="1"/>
        <pt x="729" y="317" on="1"/>
        <pt x="612" y="317" on="1"/>
        <pt x="612" y="0" on="1"/>
        <pt x="464" y="0" on="1"/>
        <pt x="464" y="317" on="1"/>
        <pt x="260" y="317" on="1"/>
        <pt x="260" y="0" on="1"/>
        <pt x="112" y="0" on="1"/>
        <pt x="112" y="317" on="1"/>
        <pt x="19" y="317" on="1"/>
        <pt x="19" y="338" on="1"/>
        <pt x="112" y="434" on="1"/>
        <pt x="112" y="524" on="1"/>
        <pt x="112" y="623" on="0"/>
        <pt x="212" y="740" on="0"/>
        <pt x="315" y="740" on="1"/>
        <pt x="337" y="740" on="0"/>
        <pt x="374" y="735" on="0"/>
        <pt x="390" y="731" on="1"/>
        <pt x="378" y="606" on="1"/>
        <pt x="368" y="608" on="0"/>
        <pt x="345" y="610" on="0"/>
        <pt x="332" y="610" on="1"/>
        <pt x="316" y="610" on="0"/>
        <pt x="289" y="602" on="0"/>
        <pt x="270" y="580" on="0"/>
        <pt x="260" y="542" on="0"/>
        <pt x="260" y="512" on="1"/>
        <pt x="260" y="434" on="1"/>
        <pt x="377" y="434" on="1"/>
        <pt x="377" y="344" on="1"/>
        <pt x="464" y="434" on="1"/>
        <pt x="464" y="524" on="1"/>
        <pt x="464" y="623" on="0"/>
        <pt x="564" y="740" on="0"/>
        <pt x="667" y="740" on="1"/>
        <pt x="689" y="740" on="0"/>
        <pt x="726" y="735" on="0"/>
        <pt x="742" y="731" on="1"/>
      </contour>
    </TTGlyph>
    <TTGlyph name="f_f_i" xMin="19" yMin="0" xMax="954" yMax="740">
      <contour>
        <pt x="730" y="606" on="1"/>
        <pt x="720" y="608" on="0"/>
        <pt x="697" y="610" on="0"/>
        <pt x="684" y="610" on="1"/>
        <pt x="668" y="610" on="0"/>
        <pt x="641" y="602" on="0"/>
        <pt x="622" y="580" on="0"/>
        <pt x="612" y="542" on="0"/>
        <pt x="612" y="512" on="1"/>
        <pt x="612" y="434" on="1"/>
        <pt x="729" y="434" on="1"/>
        <pt x="729" y="317" on="1"/>
        <pt x="612" y="317" on="1"/>
        <pt x="612" y="0" on="1"/>
        <pt x="464" y="0" on="1"/>
        <pt x="464" y="317" on="1"/>
        <pt x="260" y="317" on="1"/>
        <pt x="260" y="0" on="1"/>
        <pt x="112" y="0" on="1"/>
        <pt x="112" y="317" on="1"/>
        <pt x="19" y="317" on="1"/>
        <pt x="19" y="338" on="1"/>
        <pt x="112" y="434" on="1"/>
        <pt x="112" y="524" on="1"/>
        <pt x="112" y="623" on="0"/>
        <pt x="212" y="740" on="0"/>
        <pt x="315" y="740" on="1"/>
        <pt x="337" y="740" on="0"/>
        <pt x="374" y="735" on="0"/>
        <pt x="390" y="731" on="1"/>
        <pt x="378" y="606" on="1"/>
        <pt x="368" y="608" on="0"/>
        <pt x="345" y="610" on="0"/>
        <pt x="332" y="610" on="1"/>
        <pt x="316" y="610" on="0"/>
        <pt x="289" y="602" on="0"/>
        <pt x="270" y="580" on="0"/>
        <pt x="260" y="542" on="0"/>
        <pt x="260" y="512" on="1"/>
        <pt x="260" y="434" on="1"/>
        <pt x="377" y="434" on="1"/>
        <pt x="377" y="344" on="1"/>
        <pt x="464" y="434" on="1"/>
        <pt x="464" y="524" on="1"/>
        <pt x="464" y="623" on="0"/>
        <pt x="564" y="740" on="0"/>
        <pt x="667" y="740" on="1"/>
        <pt x="689" y="740" on="0"/>
        <pt x="726" y="735" on="0"/>
        <pt x="742" y="731" on="1"/>
      </contour>
      <contour>
        <pt x="796" y="0" on="1"/>
        <pt x="796" y="434" on="1"/>
        <pt x="945" y="434" on="1"/>
        <pt x="945" y="0" on="1"/>
      </contour>
      <contour>
        <pt x="954" y="584" on="1"/>
        <pt x="954" y="549" on="0"/>
        <pt x="906" y="501" on="0"/>
        <pt x="871" y="501" on="1"/>
        <pt x="836" y="501" on="0"/>
        <pt x="788" y="549" on="0"/>
        <pt x="788" y="584" on="1"/>
        <pt x="788" y="619" on="0"/>
        <pt x="836" y="668" on="0"/>
        <pt x="871" y="668" on="1"/>
        <pt x="906" y="668" on="0"/>
        <pt x="954" y="619" on="0"/>
      </contour>
    </TTGlyph>
    <TTGlyph name="f_f_l" xMin="19" yMin="0" xMax="939" yMax="740">
      <contour>
        <pt x="730" y="606" on="1"/>
        <pt x="720" y="608" on="0"/>
        <pt x="697" y="610" on="0"/>
        <pt x="684" y="610" on="1"/>
        <pt x="668" y="610" on="0"/>
        <pt x="641" y="602" on="0"/>
        <pt x="622" y="580" on="0"/>
        <pt x="612" y="542" on="0"/>
        <pt x="612" y="512" on="1"/>
        <pt x="612" y="434" on="1"/>
        <pt x="729" y="434" on="1"/>
        <pt x="729" y="317" on="1"/>
        <pt x="612" y="317" on="1"/>
        <pt x="612" y="0" on="1"/>
        <pt x="464" y="0" on="1"/>
        <pt x="464" y="317" on="1"/>
        <pt x="260" y="317" on="1"/>
        <pt x="260" y="0" on="1"/>
        <pt x="112" y="0" on="1"/>
        <pt x="112" y="317" on="1"/>
        <pt x="19" y="317" on="1"/>
        <pt x="19" y="338" on="1"/>
        <pt x="112" y="434" on="1"/>
        <pt x="112" y="524" on="1"/>
        <pt x="112" y="623" on="0"/>
        <pt x="212" y="740" on="0"/>
        <pt x="315" y="740" on="1"/>
        <pt x="337" y="740" on="0"/>
        <pt x="374" y="735" on="0"/>
        <pt x="390" y="731" on="1"/>
        <pt x="378" y="606" on="1"/>
        <pt x="368" y="608" on="0"/>
        <pt x="345" y="610" on="0"/>
        <pt x="332" y="610" on="1"/>
        <pt x="316" y="610" on="0"/>
        <pt x="289" y="602" on="0"/>
        <pt x="270" y="580" on="0"/>
        <pt x="260" y="542" on="0"/>
        <pt x="260" y="512" on="1"/>
        <pt x="260" y="434" on="1"/>
        <pt x="377" y="434" on="1"/>
        <pt x="377" y="344" on="1"/>
        <pt x="464" y="434" on="1"/>
        <pt x="464" y="524" on="1"/>
        <pt x="464" y="623" on="0"/>
        <pt x="564" y="740" on="0"/>
        <pt x="667" y="740" on="1"/>
        <pt x="689" y="740" on="0"/>
        <pt x="726" y="735" on="0"/>
        <pt x="742" y="731" on="1"/>
      </contour>
      <contour>
        <pt x="791" y="0" on="1"/>
        <pt x="791" y="733" on="1"/>
        <pt x="939" y="733" on="1"/>
        <pt x="939" y="0" on="1"/>
      </contour>
    </TTGlyph>
    <TTGlyph name="fi" xMin="19" yMin="0" xMax="602" yMax="740">
      <contour>
        <pt x="602" y="584" on="1"/>
        <pt x="602" y="549" on="0"/>
        <pt x="554" y="501" on="0"/>
        <pt x="519" y="501" on="1"/>
        <pt x="484" y="501" on="0"/>
        <pt x="436" y="549" on="0"/>
        <pt x="436" y="584" on="1"/>
        <pt x="436" y="619" on="0"/>
        <pt x="484" y="668" on="0"/>
        <pt x="519" y="668" on="1"/>
        <pt x="554" y="668" on="0"/>
        <pt x="602" y="619" on="0"/>
      </contour>
      <contour>
        <pt x="378" y="606" on="1"/>
        <pt x="368" y="608" on="0"/>
        <pt x="345" y="610" on="0"/>
        <pt x="332" y="610" on="1"/>
        <pt x="316" y="610" on="0"/>
        <pt x="289" y="602" on="0"/>
        <pt x="270" y="580" on="0"/>
        <pt x="260" y="542" on="0"/>
        <pt x="260" y="512" on="1"/>
        <pt x="260" y="434" on="1"/>
        <pt x="377" y="434" on="1"/>
        <pt x="377" y="317" on="1"/>
        <pt x="260" y="317" on="1"/>
        <pt x="260" y="0" on="1"/>
        <pt x="112" y="0" on="1"/>
        <pt x="112" y="317" on="1"/>
        <pt x="19" y="317" on="1"/>
        <pt x="19" y="338" on="1"/>
        <pt x="112" y="434" on="1"/>
        <pt x="112" y="524" on="1"/>
        <pt x="112" y="623" on="0"/>
        <pt x="212" y="740" on="0"/>
        <pt x="315" y="740" on="1"/>
        <pt x="337" y="740" on="0"/>
        <pt x="374" y="735" on="0"/>
        <pt x="390" y="731" on="1"/>
      </contour>
      <contour>
        <pt x="444" y="0" on="1"/>
        <pt x="444" y="434" on="1"/>
        <pt x="593" y="434" on="1"/>
        <pt x="593" y="0" on="1"/>
      </contour>
    </TTGlyph>
    <TTGlyph name="fifteensixteenths" xMin="7" yMin="-20" xMax="1356" yMax="753">
      <component glyphName="one.num" x="0" y="0" flags="0x4"/>
      <component glyphName="five.num" x="274" y="0" flags="0x4"/>
      <component glyphName="fraction" x="624" y="0" flags="0x4"/>
      <component glyphName="one.den" x="749" y="0" flags="0x4"/>
      <component glyphName="six.den" x="1023" y="0" flags="0x4"/>
    </TTGlyph>
    <TTGlyph name="five" xMin="59" yMin="-10" xMax="475" yMax="590">
      <contour>
        <pt x="475" y="201" on="1"/>
        <pt x="475" y="157" on="0"/>
        <pt x="439" y="80" on="0"/>
        <pt x="372" y="23" on="0"/>
        <pt x="277" y="-10" on="0"/>
        <pt x="218" y="-10" on="1"/>
        <pt x="177" y="-10" on="0"/>
        <pt x="96" y="4" on="0"/>
        <pt x="59" y="17" on="1"/>
        <pt x="80" y="142" on="1"/>
        <pt x="110" y="131" on="0"/>
        <pt x="173" y="117" on="0"/>
        <pt x="206" y="117" on="1"/>
        <pt x="266" y="117" on="0"/>
        <pt x="329" y="158" on="0"/>
        <pt x="329" y="189" on="1"/>
        <pt x="329" y="224" on="0"/>
        <pt x="272" y="262" on="0"/>
        <pt x="206" y="262" on="1"/>
        <pt x="179" y="262" on="0"/>
        <pt x="118" y="256" on="0"/>
        <pt x="92" y="249" on="1"/>
        <pt x="83" y="260" on="1"/>
        <pt x="83" y="590" on="1"/>
        <pt x="439" y="590" on="1"/>
        <pt x="439" y="465" on="1"/>
        <pt x="222" y="465" on="1"/>
        <pt x="222" y="380" on="1"/>
        <pt x="235" y="381" on="0"/>
        <pt x="260" y="382" on="0"/>
        <pt x="270" y="382" on="1"/>
        <pt x="324" y="382" on="0"/>
        <pt x="402" y="354" on="0"/>
        <pt x="452" y="305" on="0"/>
        <pt x="475" y="239" on="0"/>
      </contour>
    </TTGlyph>
    <TTGlyph name="five.den" xMin="29" yMin="-8" xMax="329" yMax="409">
      <contour>
        <pt x="146" y="-8" on="1"/>
        <pt x="117" y="-8" on="0"/>
        <pt x="55" y="2" on="0"/>
        <pt x="29" y="12" on="1"/>
        <pt x="54" y="102" on="1"/>
        <pt x="74" y="94" on="0"/>
        <pt x="120" y="85" on="0"/>
        <pt x="143" y="85" on="1"/>
        <pt x="178" y="85" on="0"/>
        <pt x="215" y="108" on="0"/>
        <pt x="215" y="128" on="1"/>
        <pt x="215" y="149" on="0"/>
        <pt x="177" y="173" on="0"/>
        <pt x="139" y="173" on="1"/>
        <pt x="121" y="173" on="0"/>
        <pt x="82" y="169" on="0"/>
        <pt x="65" y="164" on="1"/>
        <pt x="47" y="174" on="1"/>
        <pt x="47" y="409" on="1"/>
        <pt x="305" y="409" on="1"/>
        <pt x="305" y="317" on="1"/>
        <pt x="145" y="317" on="1"/>
        <pt x="145" y="259" on="1"/>
        <pt x="154" y="260" on="0"/>
        <pt x="176" y="260" on="0"/>
        <pt x="182" y="260" on="1"/>
        <pt x="260" y="260" on="0"/>
        <pt x="329" y="191" on="0"/>
        <pt x="329" y="134" on="1"/>
        <pt x="329" y="68" on="0"/>
        <pt x="231" y="-8" on="0"/>
      </contour>
    </TTGlyph>
    <TTGlyph name="five.lin" xMin="49" yMin="-12" xMax="564" yMax="733">
      <contour>
        <pt x="564" y="245" on="1"/>
        <pt x="564" y="191" on="0"/>
        <pt x="521" y="97" on="0"/>
        <pt x="440" y="28" on="0"/>
        <pt x="322" y="-12" on="0"/>
        <pt x="246" y="-12" on="1"/>
        <pt x="196" y="-12" on="0"/>
        <pt x="96" y="5" on="0"/>
        <pt x="49" y="21" on="1"/>
        <pt x="78" y="162" on="1"/>
        <pt x="114" y="148" on="0"/>
        <pt x="192" y="131" on="0"/>
        <pt x="233" y="131" on="1"/>
        <pt x="308" y="131" on="0"/>
        <pt x="388" y="182" on="0"/>
        <pt x="388" y="226" on="1"/>
        <pt x="388" y="246" on="0"/>
        <pt x="370" y="284" on="0"/>
        <pt x="332" y="313" on="0"/>
        <pt x="273" y="331" on="0"/>
        <pt x="233" y="331" on="1"/>
        <pt x="220" y="331" on="0"/>
        <pt x="183" y="329" on="0"/>
        <pt x="143" y="324" on="0"/>
        <pt x="105" y="317" on="0"/>
        <pt x="90" y="312" on="1"/>
        <pt x="79" y="325" on="1"/>
        <pt x="79" y="733" on="1"/>
        <pt x="535" y="733" on="1"/>
        <pt x="535" y="581" on="1"/>
        <pt x="249" y="581" on="1"/>
        <pt x="249" y="468" on="1"/>
        <pt x="292" y="471" on="0"/>
        <pt x="312" y="471" on="1"/>
        <pt x="376" y="471" on="0"/>
        <pt x="471" y="436" on="0"/>
        <pt x="534" y="375" on="0"/>
        <pt x="564" y="292" on="0"/>
      </contour>
    </TTGlyph>
    <TTGlyph name="five.num" xMin="29" yMin="316" xMax="329" yMax="733">
      <contour>
        <pt x="146" y="316" on="1"/>
        <pt x="117" y="316" on="0"/>
        <pt x="55" y="326" on="0"/>
        <pt x="29" y="336" on="1"/>
        <pt x="54" y="426" on="1"/>
        <pt x="74" y="418" on="0"/>
        <pt x="120" y="409" on="0"/>
        <pt x="143" y="409" on="1"/>
        <pt x="178" y="409" on="0"/>
        <pt x="215" y="432" on="0"/>
        <pt x="215" y="452" on="1"/>
        <pt x="215" y="473" on="0"/>
        <pt x="177" y="497" on="0"/>
        <pt x="139" y="497" on="1"/>
        <pt x="121" y="497" on="0"/>
        <pt x="82" y="493" on="0"/>
        <pt x="65" y="488" on="1"/>
        <pt x="47" y="498" on="1"/>
        <pt x="47" y="733" on="1"/>
        <pt x="305" y="733" on="1"/>
        <pt x="305" y="641" on="1"/>
        <pt x="145" y="641" on="1"/>
        <pt x="145" y="583" on="1"/>
        <pt x="154" y="584" on="0"/>
        <pt x="176" y="584" on="0"/>
        <pt x="182" y="584" on="1"/>
        <pt x="260" y="584" on="0"/>
        <pt x="329" y="515" on="0"/>
        <pt x="329" y="458" on="1"/>
        <pt x="329" y="392" on="0"/>
        <pt x="231" y="316" on="0"/>
      </contour>
    </TTGlyph>
    <TTGlyph name="fiveeighths" xMin="29" yMin="-20" xMax="808" yMax="753">
      <component glyphName="five.num" x="0" y="0" flags="0x4"/>
      <component glyphName="fraction" x="350" y="0" flags="0x4"/>
      <component glyphName="eight.den" x="475" y="0" flags="0x4"/>
    </TTGlyph>
    <TTGlyph name="fivesixteenths" xMin="29" yMin="-20" xMax="1082" yMax="753">
      <component glyphName="five.num" x="0" y="0" flags="0x4"/>
      <component glyphName="fraction" x="350" y="0" flags="0x4"/>
      <component glyphName="one.den" x="475" y="0" flags="0x4"/>
      <component glyphName="six.den" x="749" y="0" flags="0x4"/>
    </TTGlyph>
    <TTGlyph name="fivesixths" xMin="44" yMin="-20" xMax="793" yMax="753">
      <component glyphName="five.num" x="15" y="0" flags="0x4"/>
      <component glyphName="fraction" x="365" y="0" flags="0x4"/>
      <component glyphName="six.den" x="460" y="0" flags="0x4"/>
    </TTGlyph>
    <TTGlyph name="fl" xMin="19" yMin="0" xMax="587" yMax="740">
      <contour>
        <pt x="378" y="606" on="1"/>
        <pt x="368" y="608" on="0"/>
        <pt x="345" y="610" on="0"/>
        <pt x="332" y="610" on="1"/>
        <pt x="316" y="610" on="0"/>
        <pt x="289" y="602" on="0"/>
        <pt x="270" y="580" on="0"/>
        <pt x="260" y="542" on="0"/>
        <pt x="260" y="512" on="1"/>
        <pt x="260" y="434" on="1"/>
        <pt x="377" y="434" on="1"/>
        <pt x="377" y="317" on="1"/>
        <pt x="260" y="317" on="1"/>
        <pt x="260" y="0" on="1"/>
        <pt x="112" y="0" on="1"/>
        <pt x="112" y="317" on="1"/>
        <pt x="19" y="317" on="1"/>
        <pt x="19" y="338" on="1"/>
        <pt x="112" y="434" on="1"/>
        <pt x="112" y="524" on="1"/>
        <pt x="112" y="623" on="0"/>
        <pt x="212" y="740" on="0"/>
        <pt x="315" y="740" on="1"/>
        <pt x="337" y="740" on="0"/>
        <pt x="374" y="735" on="0"/>
        <pt x="390" y="731" on="1"/>
      </contour>
      <contour>
        <pt x="439" y="0" on="1"/>
        <pt x="439" y="733" on="1"/>
        <pt x="587" y="733" on="1"/>
        <pt x="587" y="0" on="1"/>
      </contour>
    </TTGlyph>
    <TTGlyph name="florin" xMin="29" yMin="0" xMax="419" yMax="590">
      <contour>
        <pt x="403" y="448" on="1"/>
        <pt x="394" y="450" on="0"/>
        <pt x="376" y="453" on="0"/>
        <pt x="365" y="453" on="1"/>
        <pt x="300" y="453" on="0"/>
        <pt x="290" y="365" on="1"/>
        <pt x="287" y="341" on="1"/>
        <pt x="373" y="341" on="1"/>
        <pt x="373" y="224" on="1"/>
        <pt x="273" y="224" on="1"/>
        <pt x="247" y="0" on="1"/>
        <pt x="101" y="0" on="1"/>
        <pt x="127" y="224" on="1"/>
        <pt x="29" y="224" on="1"/>
        <pt x="29" y="231" on="1"/>
        <pt x="141" y="344" on="1"/>
        <pt x="144" y="368" on="1"/>
        <pt x="150" y="420" on="0"/>
        <pt x="180" y="503" on="0"/>
        <pt x="231" y="560" on="0"/>
        <pt x="305" y="590" on="0"/>
        <pt x="356" y="590" on="1"/>
        <pt x="396" y="590" on="0"/>
        <pt x="419" y="582" on="1"/>
      </contour>
    </TTGlyph>
    <TTGlyph name="florin.lin" xMin="48" yMin="0" xMax="517" yMax="739">
      <contour>
        <pt x="494" y="580" on="1"/>
        <pt x="480" y="585" on="0"/>
        <pt x="458" y="590" on="0"/>
        <pt x="444" y="590" on="1"/>
        <pt x="401" y="590" on="0"/>
        <pt x="346" y="521" on="0"/>
        <pt x="339" y="460" on="1"/>
        <pt x="334" y="414" on="1"/>
        <pt x="461" y="414" on="1"/>
        <pt x="461" y="285" on="1"/>
        <pt x="318" y="285" on="1"/>
        <pt x="285" y="0" on="1"/>
        <pt x="124" y="0" on="1"/>
        <pt x="158" y="285" on="1"/>
        <pt x="49" y="285" on="1"/>
        <pt x="48" y="294" on="1"/>
        <pt x="172" y="411" on="1"/>
        <pt x="179" y="473" on="1"/>
        <pt x="186" y="537" on="0"/>
        <pt x="223" y="636" on="0"/>
        <pt x="285" y="704" on="0"/>
        <pt x="375" y="739" on="0"/>
        <pt x="436" y="739" on="1"/>
        <pt x="485" y="739" on="0"/>
        <pt x="517" y="727" on="1"/>
      </contour>
    </TTGlyph>
    <TTGlyph name="four" xMin="22" yMin="-2" xMax="493" yMax="601">
      <contour>
        <pt x="414" y="120" on="1"/>
        <pt x="414" y="-2" on="1"/>
        <pt x="273" y="-2" on="1"/>
        <pt x="273" y="120" on="1"/>
        <pt x="22" y="120" on="1"/>
        <pt x="22" y="221" on="1"/>
        <pt x="322" y="601" on="1"/>
        <pt x="414" y="601" on="1"/>
        <pt x="414" y="234" on="1"/>
        <pt x="493" y="234" on="1"/>
        <pt x="493" y="120" on="1"/>
      </contour>
      <contour>
        <pt x="273" y="364" on="1"/>
        <pt x="171" y="234" on="1"/>
        <pt x="273" y="234" on="1"/>
      </contour>
    </TTGlyph>
    <TTGlyph name="four.den" xMin="12" yMin="0" xMax="340" yMax="417">
      <contour>
        <pt x="196" y="67" on="1"/>
        <pt x="12" y="67" on="1"/>
        <pt x="12" y="158" on="1"/>
        <pt x="198" y="417" on="1"/>
        <pt x="294" y="417" on="1"/>
        <pt x="294" y="150" on="1"/>
        <pt x="340" y="150" on="1"/>
        <pt x="340" y="67" on="1"/>
        <pt x="294" y="67" on="1"/>
        <pt x="294" y="0" on="1"/>
        <pt x="196" y="0" on="1"/>
      </contour>
      <contour>
        <pt x="196" y="150" on="1"/>
        <pt x="196" y="286" on="1"/>
        <pt x="98" y="150" on="1"/>
      </contour>
    </TTGlyph>
    <TTGlyph name="four.lin" xMin="27" yMin="0" xMax="612" yMax="745">
      <contour>
        <pt x="525" y="140" on="1"/>
        <pt x="525" y="0" on="1"/>
        <pt x="355" y="0" on="1"/>
        <pt x="355" y="140" on="1"/>
        <pt x="27" y="140" on="1"/>
        <pt x="27" y="273" on="1"/>
        <pt x="399" y="745" on="1"/>
        <pt x="525" y="745" on="1"/>
        <pt x="525" y="282" on="1"/>
        <pt x="612" y="282" on="1"/>
        <pt x="612" y="140" on="1"/>
      </contour>
      <contour>
        <pt x="355" y="481" on="1"/>
        <pt x="198" y="282" on="1"/>
        <pt x="355" y="282" on="1"/>
      </contour>
    </TTGlyph>
    <TTGlyph name="four.num" xMin="12" yMin="324" xMax="340" yMax="741">
      <contour>
        <pt x="196" y="391" on="1"/>
        <pt x="12" y="391" on="1"/>
        <pt x="12" y="482" on="1"/>
        <pt x="198" y="741" on="1"/>
        <pt x="294" y="741" on="1"/>
        <pt x="294" y="474" on="1"/>
        <pt x="340" y="474" on="1"/>
        <pt x="340" y="391" on="1"/>
        <pt x="294" y="391" on="1"/>
        <pt x="294" y="324" on="1"/>
        <pt x="196" y="324" on="1"/>
      </contour>
      <contour>
        <pt x="196" y="474" on="1"/>
        <pt x="196" y="610" on="1"/>
        <pt x="98" y="474" on="1"/>
      </contour>
    </TTGlyph>
    <TTGlyph name="fourfifths" xMin="12" yMin="-20" xMax="804" yMax="753">
      <component glyphName="four.num" x="0" y="0" flags="0x4"/>
      <component glyphName="fraction" x="350" y="0" flags="0x4"/>
      <component glyphName="five.den" x="475" y="0" flags="0x4"/>
    </TTGlyph>
    <TTGlyph name="fraction" xMin="-215" yMin="-20" xMax="340" yMax="753">
      <contour>
        <pt x="-215" y="26" on="1"/>
        <pt x="32" y="388" on="1"/>
        <pt x="270" y="753" on="1"/>
        <pt x="340" y="707" on="1"/>
        <pt x="93" y="345" on="1"/>
        <pt x="-145" y="-20" on="1"/>
      </contour>
    </TTGlyph>
    <TTGlyph name="g" xMin="37" yMin="-224" xMax="500" yMax="442">
      <contour>
        <pt x="500" y="-4" on="1"/>
        <pt x="500" y="-68" on="0"/>
        <pt x="471" y="-152" on="0"/>
        <pt x="414" y="-203" on="0"/>
        <pt x="332" y="-224" on="0"/>
        <pt x="280" y="-224" on="1"/>
        <pt x="248" y="-224" on="0"/>
        <pt x="167" y="-213" on="0"/>
        <pt x="137" y="-204" on="1"/>
        <pt x="148" y="-77" on="1"/>
        <pt x="172" y="-85" on="0"/>
        <pt x="231" y="-95" on="0"/>
        <pt x="256" y="-95" on="1"/>
        <pt x="304" y="-95" on="0"/>
        <pt x="352" y="-54" on="0"/>
        <pt x="352" y="-1" on="1"/>
        <pt x="352" y="20" on="1"/>
        <pt x="334" y="7" on="0"/>
        <pt x="286" y="-8" on="0"/>
        <pt x="252" y="-8" on="1"/>
        <pt x="207" y="-8" on="0"/>
        <pt x="129" y="19" on="0"/>
        <pt x="71" y="74" on="0"/>
        <pt x="37" y="156" on="0"/>
        <pt x="37" y="210" on="1"/>
        <pt x="37" y="258" on="0"/>
        <pt x="71" y="342" on="0"/>
        <pt x="128" y="405" on="0"/>
        <pt x="205" y="442" on="0"/>
        <pt x="248" y="442" on="1"/>
        <pt x="283" y="442" on="0"/>
        <pt x="333" y="426" on="0"/>
        <pt x="356" y="411" on="1"/>
        <pt x="356" y="434" on="1"/>
        <pt x="500" y="434" on="1"/>
      </contour>
      <contour>
        <pt x="352" y="296" on="1"/>
        <pt x="323" y="325" on="0"/>
        <pt x="279" y="325" on="1"/>
        <pt x="238" y="325" on="0"/>
        <pt x="185" y="265" on="0"/>
        <pt x="185" y="208" on="1"/>
        <pt x="185" y="162" on="0"/>
        <pt x="233" y="106" on="0"/>
        <pt x="279" y="106" on="1"/>
        <pt x="324" y="106" on="0"/>
        <pt x="352" y="139" on="1"/>
      </contour>
    </TTGlyph>
    <TTGlyph name="gbreve" xMin="37" yMin="-224" xMax="500" yMax="661">
      <component glyphName="g" x="0" y="0" flags="0x204"/>
      <component glyphName="breve" x="38" y="0" flags="0x4"/>
    </TTGlyph>
    <TTGlyph name="gcommaaccent" xMin="37" yMin="-224" xMax="500" yMax="777">
      <contour>
        <pt x="212" y="587" on="1"/>
        <pt x="212" y="614" on="0"/>
        <pt x="233" y="671" on="0"/>
        <pt x="270" y="723" on="0"/>
        <pt x="320" y="765" on="0"/>
        <pt x="349" y="777" on="1"/>
        <pt x="363" y="755" on="1"/>
        <pt x="331" y="727" on="0"/>
        <pt x="298" y="679" on="0"/>
        <pt x="289" y="646" on="1"/>
        <pt x="326" y="644" on="0"/>
        <pt x="369" y="599" on="0"/>
        <pt x="369" y="567" on="1"/>
        <pt x="369" y="536" on="0"/>
        <pt x="326" y="492" on="0"/>
        <pt x="295" y="492" on="1"/>
        <pt x="254" y="492" on="0"/>
        <pt x="212" y="548" on="0"/>
      </contour>
      <contour>
        <pt x="500" y="-4" on="1"/>
        <pt x="500" y="-68" on="0"/>
        <pt x="471" y="-152" on="0"/>
        <pt x="414" y="-203" on="0"/>
        <pt x="332" y="-224" on="0"/>
        <pt x="280" y="-224" on="1"/>
        <pt x="248" y="-224" on="0"/>
        <pt x="167" y="-213" on="0"/>
        <pt x="137" y="-204" on="1"/>
        <pt x="148" y="-77" on="1"/>
        <pt x="172" y="-85" on="0"/>
        <pt x="231" y="-95" on="0"/>
        <pt x="256" y="-95" on="1"/>
        <pt x="304" y="-95" on="0"/>
        <pt x="352" y="-54" on="0"/>
        <pt x="352" y="-1" on="1"/>
        <pt x="352" y="20" on="1"/>
        <pt x="334" y="7" on="0"/>
        <pt x="286" y="-8" on="0"/>
        <pt x="252" y="-8" on="1"/>
        <pt x="207" y="-8" on="0"/>
        <pt x="129" y="19" on="0"/>
        <pt x="71" y="74" on="0"/>
        <pt x="37" y="156" on="0"/>
        <pt x="37" y="210" on="1"/>
        <pt x="37" y="258" on="0"/>
        <pt x="71" y="342" on="0"/>
        <pt x="128" y="405" on="0"/>
        <pt x="205" y="442" on="0"/>
        <pt x="248" y="442" on="1"/>
        <pt x="283" y="442" on="0"/>
        <pt x="333" y="426" on="0"/>
        <pt x="356" y="411" on="1"/>
        <pt x="356" y="434" on="1"/>
        <pt x="500" y="434" on="1"/>
      </contour>
      <contour>
        <pt x="352" y="296" on="1"/>
        <pt x="323" y="325" on="0"/>
        <pt x="279" y="325" on="1"/>
        <pt x="238" y="325" on="0"/>
        <pt x="185" y="265" on="0"/>
        <pt x="185" y="208" on="1"/>
        <pt x="185" y="162" on="0"/>
        <pt x="233" y="106" on="0"/>
        <pt x="279" y="106" on="1"/>
        <pt x="324" y="106" on="0"/>
        <pt x="352" y="139" on="1"/>
      </contour>
    </TTGlyph>
    <TTGlyph name="gdotaccent" xMin="37" yMin="-224" xMax="500" yMax="645">
      <component glyphName="g" x="0" y="0" flags="0x204"/>
      <component glyphName="dotaccent" x="68" y="0" flags="0x4"/>
    </TTGlyph>
    <TTGlyph name="germandbls" xMin="66" yMin="-94" xMax="590" yMax="740">
      <contour>
        <pt x="454" y="223" on="1"/>
        <pt x="513" y="200" on="0"/>
        <pt x="563" y="129" on="0"/>
        <pt x="563" y="83" on="1"/>
        <pt x="563" y="41" on="0"/>
        <pt x="524" y="-25" on="0"/>
        <pt x="458" y="-70" on="0"/>
        <pt x="372" y="-94" on="0"/>
        <pt x="326" y="-94" on="1"/>
        <pt x="312" y="-94" on="0"/>
        <pt x="281" y="-91" on="0"/>
        <pt x="266" y="-89" on="1"/>
        <pt x="277" y="27" on="1"/>
        <pt x="290" y="25" on="0"/>
        <pt x="314" y="23" on="0"/>
        <pt x="325" y="23" on="1"/>
        <pt x="373" y="23" on="0"/>
        <pt x="415" y="56" on="0"/>
        <pt x="415" y="83" on="1"/>
        <pt x="415" y="105" on="0"/>
        <pt x="378" y="136" on="0"/>
        <pt x="334" y="136" on="1"/>
        <pt x="326" y="136" on="0"/>
        <pt x="308" y="136" on="0"/>
        <pt x="298" y="134" on="1"/>
        <pt x="291" y="148" on="1"/>
        <pt x="391" y="314" on="1"/>
        <pt x="214" y="314" on="1"/>
        <pt x="214" y="0" on="1"/>
        <pt x="66" y="0" on="1"/>
        <pt x="66" y="524" on="1"/>
        <pt x="66" y="623" on="0"/>
        <pt x="166" y="740" on="0"/>
        <pt x="269" y="740" on="1"/>
        <pt x="291" y="740" on="0"/>
        <pt x="328" y="735" on="0"/>
        <pt x="344" y="731" on="1"/>
        <pt x="332" y="606" on="1"/>
        <pt x="322" y="608" on="0"/>
        <pt x="299" y="610" on="0"/>
        <pt x="286" y="610" on="1"/>
        <pt x="270" y="610" on="0"/>
        <pt x="243" y="602" on="0"/>
        <pt x="224" y="580" on="0"/>
        <pt x="214" y="542" on="0"/>
        <pt x="214" y="512" on="1"/>
        <pt x="214" y="434" on="1"/>
        <pt x="585" y="434" on="1"/>
        <pt x="590" y="422" on="1"/>
      </contour>
    </TTGlyph>
    <TTGlyph name="grave" xMin="137" yMin="483" xMax="393" yMax="693">
      <contour>
        <pt x="353" y="483" on="1"/>
        <pt x="137" y="577" on="1"/>
        <pt x="200" y="693" on="1"/>
        <pt x="393" y="547" on="1"/>
      </contour>
    </TTGlyph>
    <TTGlyph name="greater" xMin="44" yMin="45" xMax="356" yMax="532">
      <contour>
        <pt x="128" y="45" on="1"/>
        <pt x="44" y="132" on="1"/>
        <pt x="196" y="288" on="1"/>
        <pt x="44" y="445" on="1"/>
        <pt x="128" y="532" on="1"/>
        <pt x="356" y="288" on="1"/>
      </contour>
    </TTGlyph>
    <TTGlyph name="greater.lin" xMin="44" yMin="127" xMax="356" yMax="614">
      <component glyphName="greater" x="0" y="82" flags="0x204"/>
    </TTGlyph>
    <TTGlyph name="guillemotleft" xMin="46" yMin="9" xMax="486" yMax="336">
      <contour>
        <pt x="352" y="9" on="1"/>
        <pt x="247" y="173" on="1"/>
        <pt x="352" y="336" on="1"/>
        <pt x="486" y="336" on="1"/>
        <pt x="377" y="173" on="1"/>
        <pt x="486" y="9" on="1"/>
      </contour>
      <contour>
        <pt x="151" y="9" on="1"/>
        <pt x="46" y="173" on="1"/>
        <pt x="151" y="336" on="1"/>
        <pt x="285" y="336" on="1"/>
        <pt x="176" y="173" on="1"/>
        <pt x="285" y="9" on="1"/>
      </contour>
    </TTGlyph>
    <TTGlyph name="guillemotleft.cap" xMin="46" yMin="207" xMax="486" yMax="534">
      <component glyphName="guillemotleft" x="0" y="198" flags="0x204"/>
    </TTGlyph>
    <TTGlyph name="guillemotright" xMin="35" yMin="9" xMax="475" yMax="336">
      <contour>
        <pt x="370" y="9" on="1"/>
        <pt x="236" y="9" on="1"/>
        <pt x="345" y="173" on="1"/>
        <pt x="236" y="336" on="1"/>
        <pt x="370" y="336" on="1"/>
        <pt x="475" y="173" on="1"/>
      </contour>
      <contour>
        <pt x="169" y="9" on="1"/>
        <pt x="35" y="9" on="1"/>
        <pt x="144" y="173" on="1"/>
        <pt x="35" y="336" on="1"/>
        <pt x="169" y="336" on="1"/>
        <pt x="274" y="173" on="1"/>
      </contour>
    </TTGlyph>
    <TTGlyph name="guillemotright.cap" xMin="35" yMin="207" xMax="475" yMax="534">
      <component glyphName="guillemotright" x="0" y="198" flags="0x204"/>
    </TTGlyph>
    <TTGlyph name="guilsinglleft" xMin="46" yMin="9" xMax="285" yMax="336">
      <contour>
        <pt x="151" y="9" on="1"/>
        <pt x="46" y="173" on="1"/>
        <pt x="151" y="336" on="1"/>
        <pt x="285" y="336" on="1"/>
        <pt x="176" y="173" on="1"/>
        <pt x="285" y="9" on="1"/>
      </contour>
    </TTGlyph>
    <TTGlyph name="guilsinglleft.cap" xMin="46" yMin="207" xMax="285" yMax="534">
      <component glyphName="guilsinglleft" x="0" y="198" flags="0x204"/>
    </TTGlyph>
    <TTGlyph name="guilsinglright" xMin="42" yMin="9" xMax="281" yMax="336">
      <contour>
        <pt x="176" y="9" on="1"/>
        <pt x="42" y="9" on="1"/>
        <pt x="151" y="173" on="1"/>
        <pt x="42" y="336" on="1"/>
        <pt x="176" y="336" on="1"/>
        <pt x="281" y="173" on="1"/>
      </contour>
    </TTGlyph>
    <TTGlyph name="guilsinglright.cap" xMin="42" yMin="207" xMax="281" yMax="534">
      <component glyphName="guilsinglright" x="0" y="198" flags="0x204"/>
    </TTGlyph>
    <TTGlyph name="h" xMin="57" yMin="0" xMax="499" yMax="733">
      <contour>
        <pt x="350" y="0" on="1"/>
        <pt x="350" y="264" on="1"/>
        <pt x="350" y="296" on="0"/>
        <pt x="326" y="319" on="0"/>
        <pt x="304" y="319" on="1"/>
        <pt x="281" y="319" on="0"/>
        <pt x="231" y="294" on="0"/>
        <pt x="206" y="267" on="1"/>
        <pt x="206" y="0" on="1"/>
        <pt x="57" y="0" on="1"/>
        <pt x="57" y="733" on="1"/>
        <pt x="205" y="733" on="1"/>
        <pt x="205" y="359" on="1"/>
        <pt x="246" y="404" on="0"/>
        <pt x="322" y="442" on="0"/>
        <pt x="364" y="442" on="1"/>
        <pt x="432" y="442" on="0"/>
        <pt x="499" y="362" on="0"/>
        <pt x="499" y="298" on="1"/>
        <pt x="499" y="0" on="1"/>
      </contour>
    </TTGlyph>
    <TTGlyph name="hbar" xMin="6" yMin="0" xMax="499" yMax="733">
      <contour>
        <pt x="350" y="0" on="1"/>
        <pt x="350" y="264" on="1"/>
        <pt x="350" y="296" on="0"/>
        <pt x="326" y="319" on="0"/>
        <pt x="304" y="319" on="1"/>
        <pt x="281" y="319" on="0"/>
        <pt x="231" y="294" on="0"/>
        <pt x="206" y="267" on="1"/>
        <pt x="206" y="0" on="1"/>
        <pt x="57" y="0" on="1"/>
        <pt x="57" y="534" on="1"/>
        <pt x="6" y="534" on="1"/>
        <pt x="6" y="639" on="1"/>
        <pt x="57" y="639" on="1"/>
        <pt x="57" y="733" on="1"/>
        <pt x="205" y="733" on="1"/>
        <pt x="205" y="639" on="1"/>
        <pt x="345" y="639" on="1"/>
        <pt x="345" y="534" on="1"/>
        <pt x="205" y="534" on="1"/>
        <pt x="205" y="359" on="1"/>
        <pt x="246" y="404" on="0"/>
        <pt x="322" y="442" on="0"/>
        <pt x="364" y="442" on="1"/>
        <pt x="432" y="442" on="0"/>
        <pt x="499" y="362" on="0"/>
        <pt x="499" y="298" on="1"/>
        <pt x="499" y="0" on="1"/>
      </contour>
    </TTGlyph>
</ttFont>
